<?xml version="1.0" encoding="utf-8"?>
<svg xmlns="http://www.w3.org/2000/svg" xmlns:xlink="http://www.w3.org/1999/xlink" width="600" height="400" viewBox="0 0 2400 1600">
<defs>
  <clipPath id="clip5300">
    <rect x="0" y="0" width="2400" height="1600"/>
  </clipPath>
</defs>
<path clip-path="url(#clip5300)" d="
M0 1600 L2400 1600 L2400 0 L0 0  Z
  " fill="#ffffff" fill-rule="evenodd" fill-opacity="1"/>
<defs>
  <clipPath id="clip5301">
    <rect x="480" y="0" width="1681" height="1600"/>
  </clipPath>
</defs>
<path clip-path="url(#clip5300)" d="
M278.067 1376.69 L2352.76 1376.69 L2352.76 47.2441 L278.067 47.2441  Z
  " fill="#ffffff" fill-rule="evenodd" fill-opacity="1"/>
<defs>
  <clipPath id="clip5302">
    <rect x="278" y="47" width="2076" height="1330"/>
  </clipPath>
</defs>
<polyline clip-path="url(#clip5302)" style="stroke:#000000; stroke-width:2; stroke-opacity:0.1; fill:none" points="
  278.067,1376.69 278.067,47.2441 
  "/>
<polyline clip-path="url(#clip5302)" style="stroke:#000000; stroke-width:2; stroke-opacity:0.1; fill:none" points="
  574.451,1376.69 574.451,47.2441 
  "/>
<polyline clip-path="url(#clip5302)" style="stroke:#000000; stroke-width:2; stroke-opacity:0.1; fill:none" points="
  870.835,1376.69 870.835,47.2441 
  "/>
<polyline clip-path="url(#clip5302)" style="stroke:#000000; stroke-width:2; stroke-opacity:0.1; fill:none" points="
  1167.22,1376.69 1167.22,47.2441 
  "/>
<polyline clip-path="url(#clip5302)" style="stroke:#000000; stroke-width:2; stroke-opacity:0.1; fill:none" points="
  1463.6,1376.69 1463.6,47.2441 
  "/>
<polyline clip-path="url(#clip5302)" style="stroke:#000000; stroke-width:2; stroke-opacity:0.1; fill:none" points="
  1759.99,1376.69 1759.99,47.2441 
  "/>
<polyline clip-path="url(#clip5302)" style="stroke:#000000; stroke-width:2; stroke-opacity:0.1; fill:none" points="
  2056.37,1376.69 2056.37,47.2441 
  "/>
<polyline clip-path="url(#clip5302)" style="stroke:#000000; stroke-width:2; stroke-opacity:0.1; fill:none" points="
  2352.76,1376.69 2352.76,47.2441 
  "/>
<polyline clip-path="url(#clip5302)" style="stroke:#000000; stroke-width:2; stroke-opacity:0.1; fill:none" points="
  278.067,1339.06 2352.76,1339.06 
  "/>
<polyline clip-path="url(#clip5302)" style="stroke:#000000; stroke-width:2; stroke-opacity:0.1; fill:none" points="
  278.067,1213.64 2352.76,1213.64 
  "/>
<polyline clip-path="url(#clip5302)" style="stroke:#000000; stroke-width:2; stroke-opacity:0.1; fill:none" points="
  278.067,1088.22 2352.76,1088.22 
  "/>
<polyline clip-path="url(#clip5302)" style="stroke:#000000; stroke-width:2; stroke-opacity:0.1; fill:none" points="
  278.067,962.804 2352.76,962.804 
  "/>
<polyline clip-path="url(#clip5302)" style="stroke:#000000; stroke-width:2; stroke-opacity:0.1; fill:none" points="
  278.067,837.385 2352.76,837.385 
  "/>
<polyline clip-path="url(#clip5302)" style="stroke:#000000; stroke-width:2; stroke-opacity:0.1; fill:none" points="
  278.067,711.965 2352.76,711.965 
  "/>
<polyline clip-path="url(#clip5302)" style="stroke:#000000; stroke-width:2; stroke-opacity:0.1; fill:none" points="
  278.067,586.546 2352.76,586.546 
  "/>
<polyline clip-path="url(#clip5302)" style="stroke:#000000; stroke-width:2; stroke-opacity:0.1; fill:none" points="
  278.067,461.127 2352.76,461.127 
  "/>
<polyline clip-path="url(#clip5302)" style="stroke:#000000; stroke-width:2; stroke-opacity:0.1; fill:none" points="
  278.067,335.708 2352.76,335.708 
  "/>
<polyline clip-path="url(#clip5302)" style="stroke:#000000; stroke-width:2; stroke-opacity:0.1; fill:none" points="
  278.067,210.289 2352.76,210.289 
  "/>
<polyline clip-path="url(#clip5302)" style="stroke:#000000; stroke-width:2; stroke-opacity:0.1; fill:none" points="
  278.067,84.8698 2352.76,84.8698 
  "/>
<polyline clip-path="url(#clip5300)" style="stroke:#000000; stroke-width:4; stroke-opacity:1; fill:none" points="
  278.067,1376.69 2352.76,1376.69 
  "/>
<polyline clip-path="url(#clip5300)" style="stroke:#000000; stroke-width:4; stroke-opacity:1; fill:none" points="
  278.067,1376.69 278.067,47.2441 
  "/>
<polyline clip-path="url(#clip5300)" style="stroke:#000000; stroke-width:4; stroke-opacity:1; fill:none" points="
  278.067,1376.69 278.067,1360.73 
  "/>
<polyline clip-path="url(#clip5300)" style="stroke:#000000; stroke-width:4; stroke-opacity:1; fill:none" points="
  574.451,1376.69 574.451,1360.73 
  "/>
<polyline clip-path="url(#clip5300)" style="stroke:#000000; stroke-width:4; stroke-opacity:1; fill:none" points="
  870.835,1376.69 870.835,1360.73 
  "/>
<polyline clip-path="url(#clip5300)" style="stroke:#000000; stroke-width:4; stroke-opacity:1; fill:none" points="
  1167.22,1376.69 1167.22,1360.73 
  "/>
<polyline clip-path="url(#clip5300)" style="stroke:#000000; stroke-width:4; stroke-opacity:1; fill:none" points="
  1463.6,1376.69 1463.6,1360.73 
  "/>
<polyline clip-path="url(#clip5300)" style="stroke:#000000; stroke-width:4; stroke-opacity:1; fill:none" points="
  1759.99,1376.69 1759.99,1360.73 
  "/>
<polyline clip-path="url(#clip5300)" style="stroke:#000000; stroke-width:4; stroke-opacity:1; fill:none" points="
  2056.37,1376.69 2056.37,1360.73 
  "/>
<polyline clip-path="url(#clip5300)" style="stroke:#000000; stroke-width:4; stroke-opacity:1; fill:none" points="
  2352.76,1376.69 2352.76,1360.73 
  "/>
<polyline clip-path="url(#clip5300)" style="stroke:#000000; stroke-width:4; stroke-opacity:1; fill:none" points="
  278.067,1339.06 302.963,1339.06 
  "/>
<polyline clip-path="url(#clip5300)" style="stroke:#000000; stroke-width:4; stroke-opacity:1; fill:none" points="
  278.067,1213.64 302.963,1213.64 
  "/>
<polyline clip-path="url(#clip5300)" style="stroke:#000000; stroke-width:4; stroke-opacity:1; fill:none" points="
  278.067,1088.22 302.963,1088.22 
  "/>
<polyline clip-path="url(#clip5300)" style="stroke:#000000; stroke-width:4; stroke-opacity:1; fill:none" points="
  278.067,962.804 302.963,962.804 
  "/>
<polyline clip-path="url(#clip5300)" style="stroke:#000000; stroke-width:4; stroke-opacity:1; fill:none" points="
  278.067,837.385 302.963,837.385 
  "/>
<polyline clip-path="url(#clip5300)" style="stroke:#000000; stroke-width:4; stroke-opacity:1; fill:none" points="
  278.067,711.965 302.963,711.965 
  "/>
<polyline clip-path="url(#clip5300)" style="stroke:#000000; stroke-width:4; stroke-opacity:1; fill:none" points="
  278.067,586.546 302.963,586.546 
  "/>
<polyline clip-path="url(#clip5300)" style="stroke:#000000; stroke-width:4; stroke-opacity:1; fill:none" points="
  278.067,461.127 302.963,461.127 
  "/>
<polyline clip-path="url(#clip5300)" style="stroke:#000000; stroke-width:4; stroke-opacity:1; fill:none" points="
  278.067,335.708 302.963,335.708 
  "/>
<polyline clip-path="url(#clip5300)" style="stroke:#000000; stroke-width:4; stroke-opacity:1; fill:none" points="
  278.067,210.289 302.963,210.289 
  "/>
<polyline clip-path="url(#clip5300)" style="stroke:#000000; stroke-width:4; stroke-opacity:1; fill:none" points="
  278.067,84.8698 302.963,84.8698 
  "/>
<g clip-path="url(#clip5300)">
<text style="fill:#000000; fill-opacity:1; font-family:Arial,Helvetica Neue,Helvetica,sans-serif; font-size:48px; text-anchor:middle;" transform="rotate(0, 278.067, 1430.69)" x="278.067" y="1430.69">0</text>
</g>
<g clip-path="url(#clip5300)">
<text style="fill:#000000; fill-opacity:1; font-family:Arial,Helvetica Neue,Helvetica,sans-serif; font-size:48px; text-anchor:middle;" transform="rotate(0, 574.451, 1430.69)" x="574.451" y="1430.69">10</text>
</g>
<g clip-path="url(#clip5300)">
<text style="fill:#000000; fill-opacity:1; font-family:Arial,Helvetica Neue,Helvetica,sans-serif; font-size:48px; text-anchor:middle;" transform="rotate(0, 870.835, 1430.69)" x="870.835" y="1430.69">20</text>
</g>
<g clip-path="url(#clip5300)">
<text style="fill:#000000; fill-opacity:1; font-family:Arial,Helvetica Neue,Helvetica,sans-serif; font-size:48px; text-anchor:middle;" transform="rotate(0, 1167.22, 1430.69)" x="1167.22" y="1430.69">30</text>
</g>
<g clip-path="url(#clip5300)">
<text style="fill:#000000; fill-opacity:1; font-family:Arial,Helvetica Neue,Helvetica,sans-serif; font-size:48px; text-anchor:middle;" transform="rotate(0, 1463.6, 1430.69)" x="1463.6" y="1430.69">40</text>
</g>
<g clip-path="url(#clip5300)">
<text style="fill:#000000; fill-opacity:1; font-family:Arial,Helvetica Neue,Helvetica,sans-serif; font-size:48px; text-anchor:middle;" transform="rotate(0, 1759.99, 1430.69)" x="1759.99" y="1430.69">50</text>
</g>
<g clip-path="url(#clip5300)">
<text style="fill:#000000; fill-opacity:1; font-family:Arial,Helvetica Neue,Helvetica,sans-serif; font-size:48px; text-anchor:middle;" transform="rotate(0, 2056.37, 1430.69)" x="2056.37" y="1430.69">60</text>
</g>
<g clip-path="url(#clip5300)">
<text style="fill:#000000; fill-opacity:1; font-family:Arial,Helvetica Neue,Helvetica,sans-serif; font-size:48px; text-anchor:middle;" transform="rotate(0, 2352.76, 1430.69)" x="2352.76" y="1430.69">70</text>
</g>
<g clip-path="url(#clip5300)">
<text style="fill:#000000; fill-opacity:1; font-family:Arial,Helvetica Neue,Helvetica,sans-serif; font-size:48px; text-anchor:end;" transform="rotate(0, 254.067, 1356.56)" x="254.067" y="1356.56">0</text>
</g>
<g clip-path="url(#clip5300)">
<text style="fill:#000000; fill-opacity:1; font-family:Arial,Helvetica Neue,Helvetica,sans-serif; font-size:48px; text-anchor:end;" transform="rotate(0, 254.067, 1231.14)" x="254.067" y="1231.14">10</text>
</g>
<g clip-path="url(#clip5300)">
<text style="fill:#000000; fill-opacity:1; font-family:Arial,Helvetica Neue,Helvetica,sans-serif; font-size:48px; text-anchor:end;" transform="rotate(0, 254.067, 1105.72)" x="254.067" y="1105.72">20</text>
</g>
<g clip-path="url(#clip5300)">
<text style="fill:#000000; fill-opacity:1; font-family:Arial,Helvetica Neue,Helvetica,sans-serif; font-size:48px; text-anchor:end;" transform="rotate(0, 254.067, 980.304)" x="254.067" y="980.304">30</text>
</g>
<g clip-path="url(#clip5300)">
<text style="fill:#000000; fill-opacity:1; font-family:Arial,Helvetica Neue,Helvetica,sans-serif; font-size:48px; text-anchor:end;" transform="rotate(0, 254.067, 854.885)" x="254.067" y="854.885">40</text>
</g>
<g clip-path="url(#clip5300)">
<text style="fill:#000000; fill-opacity:1; font-family:Arial,Helvetica Neue,Helvetica,sans-serif; font-size:48px; text-anchor:end;" transform="rotate(0, 254.067, 729.465)" x="254.067" y="729.465">50</text>
</g>
<g clip-path="url(#clip5300)">
<text style="fill:#000000; fill-opacity:1; font-family:Arial,Helvetica Neue,Helvetica,sans-serif; font-size:48px; text-anchor:end;" transform="rotate(0, 254.067, 604.046)" x="254.067" y="604.046">60</text>
</g>
<g clip-path="url(#clip5300)">
<text style="fill:#000000; fill-opacity:1; font-family:Arial,Helvetica Neue,Helvetica,sans-serif; font-size:48px; text-anchor:end;" transform="rotate(0, 254.067, 478.627)" x="254.067" y="478.627">70</text>
</g>
<g clip-path="url(#clip5300)">
<text style="fill:#000000; fill-opacity:1; font-family:Arial,Helvetica Neue,Helvetica,sans-serif; font-size:48px; text-anchor:end;" transform="rotate(0, 254.067, 353.208)" x="254.067" y="353.208">80</text>
</g>
<g clip-path="url(#clip5300)">
<text style="fill:#000000; fill-opacity:1; font-family:Arial,Helvetica Neue,Helvetica,sans-serif; font-size:48px; text-anchor:end;" transform="rotate(0, 254.067, 227.789)" x="254.067" y="227.789">90</text>
</g>
<g clip-path="url(#clip5300)">
<text style="fill:#000000; fill-opacity:1; font-family:Arial,Helvetica Neue,Helvetica,sans-serif; font-size:48px; text-anchor:end;" transform="rotate(0, 254.067, 102.37)" x="254.067" y="102.37">100</text>
</g>
<g clip-path="url(#clip5300)">
<text style="fill:#000000; fill-opacity:1; font-family:Arial,Helvetica Neue,Helvetica,sans-serif; font-size:66px; text-anchor:middle;" transform="rotate(0, 1315.41, 1512.67)" x="1315.41" y="1512.67">Industrial Emissions </text>
</g>
<g clip-path="url(#clip5300)">
<text style="fill:#000000; fill-opacity:1; font-family:Arial,Helvetica Neue,Helvetica,sans-serif; font-size:66px; text-anchor:middle;" transform="rotate(0, 1315.41, 1583.95)" x="1315.41" y="1583.95"> (% of Projected)</text>
</g>
<g clip-path="url(#clip5300)">
<text style="fill:#000000; fill-opacity:1; font-family:Arial,Helvetica Neue,Helvetica,sans-serif; font-size:66px; text-anchor:middle;" transform="rotate(-90, 64.8202, 711.965)" x="64.8202" y="711.965">Agricultural Emissions </text>
</g>
<g clip-path="url(#clip5300)">
<text style="fill:#000000; fill-opacity:1; font-family:Arial,Helvetica Neue,Helvetica,sans-serif; font-size:66px; text-anchor:middle;" transform="rotate(-90, 136.1, 711.965)" x="136.1" y="711.965"> (% of Projected)</text>
</g>
<polyline clip-path="url(#clip5302)" style="stroke:#000000; stroke-width:8; stroke-opacity:1; fill:none" points="
  657.439,84.8698 669.294,109.954 675.222,135.037 687.077,160.121 693.005,185.205 704.86,210.289 710.788,235.373 722.643,260.457 734.499,285.54 740.426,310.624 
  752.282,335.708 758.209,360.792 770.065,385.876 781.92,410.96 787.848,436.043 799.703,461.127 811.559,486.211 817.486,511.295 829.342,536.379 835.269,561.462 
  847.125,586.546 858.98,611.63 870.835,636.714 876.763,661.798 888.618,686.882 900.474,711.965 906.401,737.049 918.257,762.133 930.112,787.217 941.968,812.301 
  947.895,837.385 959.751,862.468 971.606,887.552 983.461,912.636 989.389,937.72 1001.24,962.804 1013.1,987.887 1024.96,1012.97 1036.81,1038.06 1048.67,1063.14 
  1054.59,1088.22 1066.45,1113.31 1078.3,1138.39 1090.16,1163.47 1102.01,1188.56 1113.87,1213.64 1125.73,1238.73 1137.58,1263.81 1149.44,1288.89 1161.29,1313.98 
  1173.15,1339.06 
  "/>
<polyline clip-path="url(#clip5302)" style="stroke:#000000; stroke-width:8; stroke-opacity:1; fill:none" stroke-dasharray="32, 20" points="
  1001.24,84.8698 1013.1,109.954 1024.96,135.037 1030.88,160.121 1042.74,185.205 1048.67,210.289 1060.52,235.373 1072.38,260.457 1078.3,285.54 1090.16,310.624 
  1102.01,335.708 1107.94,360.792 1119.8,385.876 1131.65,410.96 1137.58,436.043 1149.44,461.127 1161.29,486.211 1167.22,511.295 1179.07,536.379 1190.93,561.462 
  1202.79,586.546 1208.71,611.63 1220.57,636.714 1232.42,661.798 1244.28,686.882 1250.21,711.965 1262.06,737.049 1273.92,762.133 1285.77,787.217 1297.63,812.301 
  1309.48,837.385 1315.41,862.468 1327.27,887.552 1339.12,912.636 1350.98,937.72 1362.83,962.804 1374.69,987.887 1386.54,1012.97 1392.47,1038.06 1404.33,1063.14 
  1416.18,1088.22 1428.04,1113.31 1439.89,1138.39 1451.75,1163.47 1463.6,1188.56 1475.46,1213.64 1487.31,1238.73 1499.17,1263.81 1511.03,1288.89 1522.88,1313.98 
  1534.74,1339.06 
  "/>
<polyline clip-path="url(#clip5302)" style="stroke:#000000; stroke-width:8; stroke-opacity:1; fill:none" stroke-dasharray="32, 16, 4, 16" points="
  1362.83,84.8698 1374.69,109.954 1386.54,135.037 1392.47,160.121 1404.33,185.205 1416.18,210.289 1422.11,235.373 1433.97,260.457 1445.82,285.54 1451.75,310.624 
  1463.6,335.708 1475.46,360.792 1487.31,385.876 1493.24,410.96 1505.1,436.043 1516.95,461.127 1528.81,486.211 1534.74,511.295 1546.59,536.379 1558.45,561.462 
  1570.3,586.546 1582.16,611.63 1588.08,636.714 1599.94,661.798 1611.8,686.882 1623.65,711.965 1635.51,737.049 1647.36,762.133 1659.22,787.217 1665.14,812.301 
  1677,837.385 1688.86,862.468 1700.71,887.552 1712.57,912.636 1724.42,937.72 1736.28,962.804 1748.13,987.887 1759.99,1012.97 1771.84,1038.06 1783.7,1063.14 
  1795.55,1088.22 1807.41,1113.31 1819.26,1138.39 1831.12,1163.47 1842.98,1188.56 1854.83,1213.64 1866.69,1238.73 1878.54,1263.81 1890.4,1288.89 1908.18,1313.98 
  1920.04,1339.06 
  "/>
<path clip-path="url(#clip5300)" d="
M1872.19 372.684 L2280.76 372.684 L2280.76 130.764 L1872.19 130.764  Z
  " fill="#ffffff" fill-rule="evenodd" fill-opacity="1"/>
<polyline clip-path="url(#clip5300)" style="stroke:#000000; stroke-width:4; stroke-opacity:1; fill:none" points="
  1872.19,372.684 2280.76,372.684 2280.76,130.764 1872.19,130.764 1872.19,372.684 
  "/>
<polyline clip-path="url(#clip5300)" style="stroke:#000000; stroke-width:8; stroke-opacity:1; fill:none" points="
  1896.19,191.244 2040.19,191.244 
  "/>
<g clip-path="url(#clip5300)">
<text style="fill:#000000; fill-opacity:1; font-family:Arial,Helvetica Neue,Helvetica,sans-serif; font-size:48px; text-anchor:start;" transform="rotate(0, 2064.19, 208.744)" x="2064.19" y="208.744">2 Deg.</text>
</g>
<polyline clip-path="url(#clip5300)" style="stroke:#000000; stroke-width:8; stroke-opacity:1; fill:none" stroke-dasharray="32, 20" points="
  1896.19,251.724 2040.19,251.724 
  "/>
<g clip-path="url(#clip5300)">
<text style="fill:#000000; fill-opacity:1; font-family:Arial,Helvetica Neue,Helvetica,sans-serif; font-size:48px; text-anchor:start;" transform="rotate(0, 2064.19, 269.224)" x="2064.19" y="269.224">2.5 Deg</text>
</g>
<polyline clip-path="url(#clip5300)" style="stroke:#000000; stroke-width:8; stroke-opacity:1; fill:none" stroke-dasharray="32, 16, 4, 16" points="
  1896.19,312.204 2040.19,312.204 
  "/>
<g clip-path="url(#clip5300)">
<text style="fill:#000000; fill-opacity:1; font-family:Arial,Helvetica Neue,Helvetica,sans-serif; font-size:48px; text-anchor:start;" transform="rotate(0, 2064.19, 329.704)" x="2064.19" y="329.704">3 Deg</text>
</g>
</svg>
