<?xml version="1.0" encoding="utf-8"?>
<svg xmlns="http://www.w3.org/2000/svg" xmlns:xlink="http://www.w3.org/1999/xlink" width="600" height="400" viewBox="0 0 2400 1600">
<defs>
  <clipPath id="clip6300">
    <rect x="0" y="0" width="2400" height="1600"/>
  </clipPath>
</defs>
<path clip-path="url(#clip6300)" d="
M0 1600 L2400 1600 L2400 0 L0 0  Z
  " fill="#ffffff" fill-rule="evenodd" fill-opacity="1"/>
<defs>
  <clipPath id="clip6301">
    <rect x="480" y="0" width="1681" height="1600"/>
  </clipPath>
</defs>
<path clip-path="url(#clip6300)" d="
M375.65 1487.47 L2352.76 1487.47 L2352.76 47.2441 L375.65 47.2441  Z
  " fill="#ffffff" fill-rule="evenodd" fill-opacity="1"/>
<defs>
  <clipPath id="clip6302">
    <rect x="375" y="47" width="1978" height="1441"/>
  </clipPath>
</defs>
<polyline clip-path="url(#clip6302)" style="stroke:#000000; stroke-width:2; stroke-opacity:0.1; fill:none" points="
  524.865,1487.47 524.865,47.2441 
  "/>
<polyline clip-path="url(#clip6302)" style="stroke:#000000; stroke-width:2; stroke-opacity:0.1; fill:none" points="
  991.164,1487.47 991.164,47.2441 
  "/>
<polyline clip-path="url(#clip6302)" style="stroke:#000000; stroke-width:2; stroke-opacity:0.1; fill:none" points="
  1457.46,1487.47 1457.46,47.2441 
  "/>
<polyline clip-path="url(#clip6302)" style="stroke:#000000; stroke-width:2; stroke-opacity:0.1; fill:none" points="
  1923.76,1487.47 1923.76,47.2441 
  "/>
<polyline clip-path="url(#clip6302)" style="stroke:#000000; stroke-width:2; stroke-opacity:0.1; fill:none" points="
  375.65,1471.01 2352.76,1471.01 
  "/>
<polyline clip-path="url(#clip6302)" style="stroke:#000000; stroke-width:2; stroke-opacity:0.1; fill:none" points="
  375.65,1235.42 2352.76,1235.42 
  "/>
<polyline clip-path="url(#clip6302)" style="stroke:#000000; stroke-width:2; stroke-opacity:0.1; fill:none" points="
  375.65,999.828 2352.76,999.828 
  "/>
<polyline clip-path="url(#clip6302)" style="stroke:#000000; stroke-width:2; stroke-opacity:0.1; fill:none" points="
  375.65,764.236 2352.76,764.236 
  "/>
<polyline clip-path="url(#clip6302)" style="stroke:#000000; stroke-width:2; stroke-opacity:0.1; fill:none" points="
  375.65,528.644 2352.76,528.644 
  "/>
<polyline clip-path="url(#clip6302)" style="stroke:#000000; stroke-width:2; stroke-opacity:0.1; fill:none" points="
  375.65,293.052 2352.76,293.052 
  "/>
<polyline clip-path="url(#clip6302)" style="stroke:#000000; stroke-width:2; stroke-opacity:0.1; fill:none" points="
  375.65,57.4605 2352.76,57.4605 
  "/>
<polyline clip-path="url(#clip6300)" style="stroke:#000000; stroke-width:4; stroke-opacity:1; fill:none" points="
  375.65,1487.47 2352.76,1487.47 
  "/>
<polyline clip-path="url(#clip6300)" style="stroke:#000000; stroke-width:4; stroke-opacity:1; fill:none" points="
  375.65,1487.47 375.65,47.2441 
  "/>
<polyline clip-path="url(#clip6300)" style="stroke:#000000; stroke-width:4; stroke-opacity:1; fill:none" points="
  524.865,1487.47 524.865,1470.19 
  "/>
<polyline clip-path="url(#clip6300)" style="stroke:#000000; stroke-width:4; stroke-opacity:1; fill:none" points="
  991.164,1487.47 991.164,1470.19 
  "/>
<polyline clip-path="url(#clip6300)" style="stroke:#000000; stroke-width:4; stroke-opacity:1; fill:none" points="
  1457.46,1487.47 1457.46,1470.19 
  "/>
<polyline clip-path="url(#clip6300)" style="stroke:#000000; stroke-width:4; stroke-opacity:1; fill:none" points="
  1923.76,1487.47 1923.76,1470.19 
  "/>
<polyline clip-path="url(#clip6300)" style="stroke:#000000; stroke-width:4; stroke-opacity:1; fill:none" points="
  375.65,1471.01 399.375,1471.01 
  "/>
<polyline clip-path="url(#clip6300)" style="stroke:#000000; stroke-width:4; stroke-opacity:1; fill:none" points="
  375.65,1235.42 399.375,1235.42 
  "/>
<polyline clip-path="url(#clip6300)" style="stroke:#000000; stroke-width:4; stroke-opacity:1; fill:none" points="
  375.65,999.828 399.375,999.828 
  "/>
<polyline clip-path="url(#clip6300)" style="stroke:#000000; stroke-width:4; stroke-opacity:1; fill:none" points="
  375.65,764.236 399.375,764.236 
  "/>
<polyline clip-path="url(#clip6300)" style="stroke:#000000; stroke-width:4; stroke-opacity:1; fill:none" points="
  375.65,528.644 399.375,528.644 
  "/>
<polyline clip-path="url(#clip6300)" style="stroke:#000000; stroke-width:4; stroke-opacity:1; fill:none" points="
  375.65,293.052 399.375,293.052 
  "/>
<polyline clip-path="url(#clip6300)" style="stroke:#000000; stroke-width:4; stroke-opacity:1; fill:none" points="
  375.65,57.4605 399.375,57.4605 
  "/>
<g clip-path="url(#clip6300)">
<text style="fill:#000000; fill-opacity:1; font-family:Arial,Helvetica Neue,Helvetica,sans-serif; font-size:48px; text-anchor:middle;" transform="rotate(0, 524.865, 1541.47)" x="524.865" y="1541.47">2025</text>
</g>
<g clip-path="url(#clip6300)">
<text style="fill:#000000; fill-opacity:1; font-family:Arial,Helvetica Neue,Helvetica,sans-serif; font-size:48px; text-anchor:middle;" transform="rotate(0, 991.164, 1541.47)" x="991.164" y="1541.47">2050</text>
</g>
<g clip-path="url(#clip6300)">
<text style="fill:#000000; fill-opacity:1; font-family:Arial,Helvetica Neue,Helvetica,sans-serif; font-size:48px; text-anchor:middle;" transform="rotate(0, 1457.46, 1541.47)" x="1457.46" y="1541.47">2075</text>
</g>
<g clip-path="url(#clip6300)">
<text style="fill:#000000; fill-opacity:1; font-family:Arial,Helvetica Neue,Helvetica,sans-serif; font-size:48px; text-anchor:middle;" transform="rotate(0, 1923.76, 1541.47)" x="1923.76" y="1541.47">2100</text>
</g>
<g clip-path="url(#clip6300)">
<text style="fill:#000000; fill-opacity:1; font-family:Arial,Helvetica Neue,Helvetica,sans-serif; font-size:48px; text-anchor:start;" transform="rotate(0, 136.781, 1494.74)" x="136.781" y="1494.74">5.0×10</text>
</g>
<g clip-path="url(#clip6300)">
<text style="fill:#000000; fill-opacity:1; font-family:Arial,Helvetica Neue,Helvetica,sans-serif; font-size:38px; text-anchor:start;" transform="rotate(0, 285.322, 1467.33)" x="285.322" y="1467.33">-</text>
</g>
<g clip-path="url(#clip6300)">
<text style="fill:#000000; fill-opacity:1; font-family:Arial,Helvetica Neue,Helvetica,sans-serif; font-size:38px; text-anchor:start;" transform="rotate(0, 308.161, 1467.33)" x="308.161" y="1467.33">10</text>
</g>
<g clip-path="url(#clip6300)">
<text style="fill:#000000; fill-opacity:1; font-family:Arial,Helvetica Neue,Helvetica,sans-serif; font-size:48px; text-anchor:start;" transform="rotate(0, 158.525, 1259.15)" x="158.525" y="1259.15">1.0×10</text>
</g>
<g clip-path="url(#clip6300)">
<text style="fill:#000000; fill-opacity:1; font-family:Arial,Helvetica Neue,Helvetica,sans-serif; font-size:38px; text-anchor:start;" transform="rotate(0, 307.066, 1231.74)" x="307.066" y="1231.74">-</text>
</g>
<g clip-path="url(#clip6300)">
<text style="fill:#000000; fill-opacity:1; font-family:Arial,Helvetica Neue,Helvetica,sans-serif; font-size:38px; text-anchor:start;" transform="rotate(0, 329.906, 1231.74)" x="329.906" y="1231.74">9</text>
</g>
<g clip-path="url(#clip6300)">
<text style="fill:#000000; fill-opacity:1; font-family:Arial,Helvetica Neue,Helvetica,sans-serif; font-size:48px; text-anchor:start;" transform="rotate(0, 158.525, 1023.56)" x="158.525" y="1023.56">1.5×10</text>
</g>
<g clip-path="url(#clip6300)">
<text style="fill:#000000; fill-opacity:1; font-family:Arial,Helvetica Neue,Helvetica,sans-serif; font-size:38px; text-anchor:start;" transform="rotate(0, 307.066, 996.146)" x="307.066" y="996.146">-</text>
</g>
<g clip-path="url(#clip6300)">
<text style="fill:#000000; fill-opacity:1; font-family:Arial,Helvetica Neue,Helvetica,sans-serif; font-size:38px; text-anchor:start;" transform="rotate(0, 329.906, 996.146)" x="329.906" y="996.146">9</text>
</g>
<g clip-path="url(#clip6300)">
<text style="fill:#000000; fill-opacity:1; font-family:Arial,Helvetica Neue,Helvetica,sans-serif; font-size:48px; text-anchor:start;" transform="rotate(0, 158.525, 787.964)" x="158.525" y="787.964">2.0×10</text>
</g>
<g clip-path="url(#clip6300)">
<text style="fill:#000000; fill-opacity:1; font-family:Arial,Helvetica Neue,Helvetica,sans-serif; font-size:38px; text-anchor:start;" transform="rotate(0, 307.066, 760.554)" x="307.066" y="760.554">-</text>
</g>
<g clip-path="url(#clip6300)">
<text style="fill:#000000; fill-opacity:1; font-family:Arial,Helvetica Neue,Helvetica,sans-serif; font-size:38px; text-anchor:start;" transform="rotate(0, 329.906, 760.554)" x="329.906" y="760.554">9</text>
</g>
<g clip-path="url(#clip6300)">
<text style="fill:#000000; fill-opacity:1; font-family:Arial,Helvetica Neue,Helvetica,sans-serif; font-size:48px; text-anchor:start;" transform="rotate(0, 158.525, 552.372)" x="158.525" y="552.372">2.5×10</text>
</g>
<g clip-path="url(#clip6300)">
<text style="fill:#000000; fill-opacity:1; font-family:Arial,Helvetica Neue,Helvetica,sans-serif; font-size:38px; text-anchor:start;" transform="rotate(0, 307.066, 524.962)" x="307.066" y="524.962">-</text>
</g>
<g clip-path="url(#clip6300)">
<text style="fill:#000000; fill-opacity:1; font-family:Arial,Helvetica Neue,Helvetica,sans-serif; font-size:38px; text-anchor:start;" transform="rotate(0, 329.906, 524.962)" x="329.906" y="524.962">9</text>
</g>
<g clip-path="url(#clip6300)">
<text style="fill:#000000; fill-opacity:1; font-family:Arial,Helvetica Neue,Helvetica,sans-serif; font-size:48px; text-anchor:start;" transform="rotate(0, 158.525, 316.78)" x="158.525" y="316.78">3.0×10</text>
</g>
<g clip-path="url(#clip6300)">
<text style="fill:#000000; fill-opacity:1; font-family:Arial,Helvetica Neue,Helvetica,sans-serif; font-size:38px; text-anchor:start;" transform="rotate(0, 307.066, 289.37)" x="307.066" y="289.37">-</text>
</g>
<g clip-path="url(#clip6300)">
<text style="fill:#000000; fill-opacity:1; font-family:Arial,Helvetica Neue,Helvetica,sans-serif; font-size:38px; text-anchor:start;" transform="rotate(0, 329.906, 289.37)" x="329.906" y="289.37">9</text>
</g>
<g clip-path="url(#clip6300)">
<text style="fill:#000000; fill-opacity:1; font-family:Arial,Helvetica Neue,Helvetica,sans-serif; font-size:48px; text-anchor:start;" transform="rotate(0, 158.525, 81.1881)" x="158.525" y="81.1881">3.5×10</text>
</g>
<g clip-path="url(#clip6300)">
<text style="fill:#000000; fill-opacity:1; font-family:Arial,Helvetica Neue,Helvetica,sans-serif; font-size:38px; text-anchor:start;" transform="rotate(0, 307.066, 53.7777)" x="307.066" y="53.7777">-</text>
</g>
<g clip-path="url(#clip6300)">
<text style="fill:#000000; fill-opacity:1; font-family:Arial,Helvetica Neue,Helvetica,sans-serif; font-size:38px; text-anchor:start;" transform="rotate(0, 329.906, 53.7777)" x="329.906" y="53.7777">9</text>
</g>
<polyline clip-path="url(#clip6302)" style="stroke:#008000; stroke-width:8; stroke-opacity:1; fill:none" points="
  431.606,1384.63 450.258,881.635 468.91,539.061 487.562,315.906 506.214,181.097 524.865,111.077 543.517,88.0053 562.169,98.392 580.821,132.068 599.473,181.401 
  618.125,240.703 636.777,305.764 655.429,373.508 674.081,441.712 692.733,508.802 711.385,573.696 730.037,635.687 748.689,694.333 767.341,749.403 785.993,800.806 
  804.645,848.563 823.297,892.763 841.949,933.541 860.6,971.069 879.252,1005.54 897.904,1037.16 916.556,1066.12 935.208,1092.64 953.86,1116.9 972.512,1139.09 
  991.164,1159.39 1009.82,1177.96 1028.47,1194.97 1047.12,1210.54 1065.77,1224.8 1084.42,1237.89 1103.08,1249.91 1121.73,1260.95 1140.38,1271.11 1159.03,1280.48 
  1177.68,1289.13 1196.34,1297.13 1214.99,1304.53 1233.64,1311.39 1252.29,1317.78 1270.94,1323.72 1289.6,1329.26 1308.25,1334.44 1326.9,1339.29 1345.55,1343.84 
  1364.2,1348.13 1382.85,1352.17 1401.51,1355.99 1420.16,1359.61 1438.81,1363.04 1457.46,1366.3 1476.11,1369.41 1494.77,1372.37 1513.42,1375.21 1532.07,1377.93 
  1550.72,1380.55 1569.37,1383.07 1588.03,1385.49 1606.68,1387.83 1625.33,1390.08 1643.98,1392.25 1662.63,1394.35 1681.29,1396.39 1699.94,1398.37 1718.59,1400.29 
  1737.24,1402.16 1755.89,1403.99 1774.55,1405.77 1793.2,1407.52 1811.85,1409.23 1830.5,1410.91 1849.15,1412.56 1867.81,1414.19 1886.46,1415.79 1905.11,1417.36 
  1923.76,1418.9 1942.41,1420.43 1961.07,1421.95 1979.72,1423.44 1998.37,1424.92 2017.02,1426.38 2035.67,1427.83 2054.32,1429.27 2072.98,1430.69 2091.63,1432.1 
  2110.28,1433.49 2128.93,1434.87 2147.58,1436.23 2166.24,1437.59 2184.89,1438.93 2203.54,1440.26 2222.19,1441.58 2240.84,1442.89 2259.5,1444.18 2278.15,1445.45 
  2296.8,1446.71 
  "/>
<polyline clip-path="url(#clip6302)" style="stroke:#000000; stroke-width:8; stroke-opacity:1; fill:none" stroke-dasharray="32, 20" points="
  431.606,1380.56 450.258,1162.15 468.91,1014.76 487.562,915.666 506.214,849.68 524.865,806.528 543.517,779.216 562.169,762.93 580.821,754.328 599.473,751.072 
  618.125,751.518 636.777,754.504 655.429,759.206 674.081,765.037 692.733,771.578 711.385,778.529 730.037,785.684 748.689,792.892 767.341,800.053 785.993,807.096 
  804.645,813.976 823.297,820.662 841.949,827.136 860.6,833.388 879.252,839.412 897.904,845.214 916.556,850.796 935.208,856.165 953.86,861.326 972.512,866.29 
  991.164,871.064 1009.82,875.657 1028.47,880.078 1047.12,884.334 1065.77,888.429 1084.42,892.372 1103.08,896.175 1121.73,899.843 1140.38,903.385 1159.03,906.808 
  1177.68,910.116 1196.34,913.314 1214.99,916.408 1233.64,919.405 1252.29,922.308 1270.94,925.122 1289.6,927.848 1308.25,930.49 1326.9,933.055 1345.55,935.548 
  1364.2,937.974 1382.85,940.332 1401.51,942.625 1420.16,944.854 1438.81,947.022 1457.46,949.129 1476.11,951.178 1494.77,953.169 1513.42,955.109 1532.07,956.999 
  1550.72,958.844 1569.37,960.645 1588.03,962.404 1606.68,964.119 1625.33,965.795 1643.98,967.427 1662.63,969.021 1681.29,970.577 1699.94,972.096 1718.59,973.58 
  1737.24,975.027 1755.89,976.444 1774.55,977.827 1793.2,979.182 1811.85,980.513 1830.5,981.815 1849.15,983.089 1867.81,984.34 1886.46,985.561 1905.11,986.756 
  1923.76,987.925 1942.41,989.072 1961.07,990.198 1979.72,991.304 1998.37,992.397 2017.02,993.472 2035.67,994.532 2054.32,995.574 2072.98,996.6 2091.63,997.611 
  2110.28,998.606 2128.93,999.584 2147.58,1000.55 2166.24,1001.51 2184.89,1002.45 2203.54,1003.38 2222.19,1004.31 2240.84,1005.22 2259.5,1006.12 2278.15,1007 
  2296.8,1007.87 
  "/>
<path clip-path="url(#clip6300)" d="
M1800.09 312.204 L2280.76 312.204 L2280.76 130.764 L1800.09 130.764  Z
  " fill="#ffffff" fill-rule="evenodd" fill-opacity="1"/>
<polyline clip-path="url(#clip6300)" style="stroke:#000000; stroke-width:4; stroke-opacity:1; fill:none" points="
  1800.09,312.204 2280.76,312.204 2280.76,130.764 1800.09,130.764 1800.09,312.204 
  "/>
<polyline clip-path="url(#clip6300)" style="stroke:#008000; stroke-width:8; stroke-opacity:1; fill:none" points="
  1824.09,191.244 1968.09,191.244 
  "/>
<g clip-path="url(#clip6300)">
<text style="fill:#000000; fill-opacity:1; font-family:Arial,Helvetica Neue,Helvetica,sans-serif; font-size:48px; text-anchor:start;" transform="rotate(0, 1992.09, 208.744)" x="1992.09" y="208.744">Diet IRF</text>
</g>
<polyline clip-path="url(#clip6300)" style="stroke:#000000; stroke-width:8; stroke-opacity:1; fill:none" stroke-dasharray="32, 20" points="
  1824.09,251.724 1968.09,251.724 
  "/>
<g clip-path="url(#clip6300)">
<text style="fill:#000000; fill-opacity:1; font-family:Arial,Helvetica Neue,Helvetica,sans-serif; font-size:48px; text-anchor:start;" transform="rotate(0, 1992.09, 269.224)" x="1992.09" y="269.224">Driving IRF</text>
</g>
</svg>
