<?xml version="1.0" encoding="utf-8"?>
<svg xmlns="http://www.w3.org/2000/svg" xmlns:xlink="http://www.w3.org/1999/xlink" width="600" height="400" viewBox="0 0 2400 1600">
<defs>
  <clipPath id="clip5800">
    <rect x="0" y="0" width="2400" height="1600"/>
  </clipPath>
</defs>
<path clip-path="url(#clip5800)" d="
M0 1600 L2400 1600 L2400 0 L0 0  Z
  " fill="#ffffff" fill-rule="evenodd" fill-opacity="1"/>
<defs>
  <clipPath id="clip5801">
    <rect x="480" y="0" width="1681" height="1600"/>
  </clipPath>
</defs>
<path clip-path="url(#clip5800)" d="
M153.898 1487.47 L2352.76 1487.47 L2352.76 47.2441 L153.898 47.2441  Z
  " fill="#ffffff" fill-rule="evenodd" fill-opacity="1"/>
<defs>
  <clipPath id="clip5802">
    <rect x="153" y="47" width="2200" height="1441"/>
  </clipPath>
</defs>
<polyline clip-path="url(#clip5802)" style="stroke:#000000; stroke-width:2; stroke-opacity:0.1; fill:none" points="
  319.85,1487.47 319.85,47.2441 
  "/>
<polyline clip-path="url(#clip5802)" style="stroke:#000000; stroke-width:2; stroke-opacity:0.1; fill:none" points="
  838.448,1487.47 838.448,47.2441 
  "/>
<polyline clip-path="url(#clip5802)" style="stroke:#000000; stroke-width:2; stroke-opacity:0.1; fill:none" points="
  1357.05,1487.47 1357.05,47.2441 
  "/>
<polyline clip-path="url(#clip5802)" style="stroke:#000000; stroke-width:2; stroke-opacity:0.1; fill:none" points="
  1875.65,1487.47 1875.65,47.2441 
  "/>
<polyline clip-path="url(#clip5802)" style="stroke:#000000; stroke-width:2; stroke-opacity:0.1; fill:none" points="
  153.898,1266.07 2352.76,1266.07 
  "/>
<polyline clip-path="url(#clip5802)" style="stroke:#000000; stroke-width:2; stroke-opacity:0.1; fill:none" points="
  153.898,973.252 2352.76,973.252 
  "/>
<polyline clip-path="url(#clip5802)" style="stroke:#000000; stroke-width:2; stroke-opacity:0.1; fill:none" points="
  153.898,680.437 2352.76,680.437 
  "/>
<polyline clip-path="url(#clip5802)" style="stroke:#000000; stroke-width:2; stroke-opacity:0.1; fill:none" points="
  153.898,387.622 2352.76,387.622 
  "/>
<polyline clip-path="url(#clip5802)" style="stroke:#000000; stroke-width:2; stroke-opacity:0.1; fill:none" points="
  153.898,94.8068 2352.76,94.8068 
  "/>
<polyline clip-path="url(#clip5800)" style="stroke:#000000; stroke-width:4; stroke-opacity:1; fill:none" points="
  153.898,1487.47 2352.76,1487.47 
  "/>
<polyline clip-path="url(#clip5800)" style="stroke:#000000; stroke-width:4; stroke-opacity:1; fill:none" points="
  153.898,1487.47 153.898,47.2441 
  "/>
<polyline clip-path="url(#clip5800)" style="stroke:#000000; stroke-width:4; stroke-opacity:1; fill:none" points="
  319.85,1487.47 319.85,1470.19 
  "/>
<polyline clip-path="url(#clip5800)" style="stroke:#000000; stroke-width:4; stroke-opacity:1; fill:none" points="
  838.448,1487.47 838.448,1470.19 
  "/>
<polyline clip-path="url(#clip5800)" style="stroke:#000000; stroke-width:4; stroke-opacity:1; fill:none" points="
  1357.05,1487.47 1357.05,1470.19 
  "/>
<polyline clip-path="url(#clip5800)" style="stroke:#000000; stroke-width:4; stroke-opacity:1; fill:none" points="
  1875.65,1487.47 1875.65,1470.19 
  "/>
<polyline clip-path="url(#clip5800)" style="stroke:#000000; stroke-width:4; stroke-opacity:1; fill:none" points="
  153.898,1266.07 180.284,1266.07 
  "/>
<polyline clip-path="url(#clip5800)" style="stroke:#000000; stroke-width:4; stroke-opacity:1; fill:none" points="
  153.898,973.252 180.284,973.252 
  "/>
<polyline clip-path="url(#clip5800)" style="stroke:#000000; stroke-width:4; stroke-opacity:1; fill:none" points="
  153.898,680.437 180.284,680.437 
  "/>
<polyline clip-path="url(#clip5800)" style="stroke:#000000; stroke-width:4; stroke-opacity:1; fill:none" points="
  153.898,387.622 180.284,387.622 
  "/>
<polyline clip-path="url(#clip5800)" style="stroke:#000000; stroke-width:4; stroke-opacity:1; fill:none" points="
  153.898,94.8068 180.284,94.8068 
  "/>
<g clip-path="url(#clip5800)">
<text style="fill:#000000; fill-opacity:1; font-family:Arial,Helvetica Neue,Helvetica,sans-serif; font-size:48px; text-anchor:middle;" transform="rotate(0, 319.85, 1541.47)" x="319.85" y="1541.47">2025</text>
</g>
<g clip-path="url(#clip5800)">
<text style="fill:#000000; fill-opacity:1; font-family:Arial,Helvetica Neue,Helvetica,sans-serif; font-size:48px; text-anchor:middle;" transform="rotate(0, 838.448, 1541.47)" x="838.448" y="1541.47">2050</text>
</g>
<g clip-path="url(#clip5800)">
<text style="fill:#000000; fill-opacity:1; font-family:Arial,Helvetica Neue,Helvetica,sans-serif; font-size:48px; text-anchor:middle;" transform="rotate(0, 1357.05, 1541.47)" x="1357.05" y="1541.47">2075</text>
</g>
<g clip-path="url(#clip5800)">
<text style="fill:#000000; fill-opacity:1; font-family:Arial,Helvetica Neue,Helvetica,sans-serif; font-size:48px; text-anchor:middle;" transform="rotate(0, 1875.65, 1541.47)" x="1875.65" y="1541.47">2100</text>
</g>
<g clip-path="url(#clip5800)">
<text style="fill:#000000; fill-opacity:1; font-family:Arial,Helvetica Neue,Helvetica,sans-serif; font-size:48px; text-anchor:end;" transform="rotate(0, 129.898, 1283.57)" x="129.898" y="1283.57">1.5</text>
</g>
<g clip-path="url(#clip5800)">
<text style="fill:#000000; fill-opacity:1; font-family:Arial,Helvetica Neue,Helvetica,sans-serif; font-size:48px; text-anchor:end;" transform="rotate(0, 129.898, 990.752)" x="129.898" y="990.752">2.0</text>
</g>
<g clip-path="url(#clip5800)">
<text style="fill:#000000; fill-opacity:1; font-family:Arial,Helvetica Neue,Helvetica,sans-serif; font-size:48px; text-anchor:end;" transform="rotate(0, 129.898, 697.937)" x="129.898" y="697.937">2.5</text>
</g>
<g clip-path="url(#clip5800)">
<text style="fill:#000000; fill-opacity:1; font-family:Arial,Helvetica Neue,Helvetica,sans-serif; font-size:48px; text-anchor:end;" transform="rotate(0, 129.898, 405.122)" x="129.898" y="405.122">3.0</text>
</g>
<g clip-path="url(#clip5800)">
<text style="fill:#000000; fill-opacity:1; font-family:Arial,Helvetica Neue,Helvetica,sans-serif; font-size:48px; text-anchor:end;" transform="rotate(0, 129.898, 112.307)" x="129.898" y="112.307">3.5</text>
</g>
<polyline clip-path="url(#clip5802)" style="stroke:#000000; stroke-width:8; stroke-opacity:1; fill:none" points="
  216.13,1445.59 236.874,1432.99 257.618,1417.51 278.362,1400.95 299.106,1384.47 319.85,1370.28 340.593,1358.07 361.337,1347.39 382.081,1336.79 402.825,1326.71 
  423.569,1316.44 444.313,1306.47 465.057,1295.94 485.801,1283.49 506.545,1268.34 527.289,1253.5 548.033,1237.93 568.777,1224.34 589.521,1211.01 610.265,1199.64 
  631.009,1189.72 651.753,1180.42 672.497,1170.55 693.24,1159.64 713.984,1147.18 734.728,1131.8 755.472,1114.91 776.216,1096.63 796.96,1078.99 817.704,1063.71 
  838.448,1051.09 859.192,1039.48 879.936,1028.56 900.68,1017.86 921.424,1006.17 942.168,992.501 962.912,976.887 983.656,961.552 1004.4,946.147 1025.14,930.785 
  1045.89,917.197 1066.63,904.272 1087.38,891.629 1108.12,878.496 1128.86,864.732 1149.61,849.865 1170.35,832.533 1191.1,813.464 1211.84,793.817 1232.58,775.176 
  1253.33,758.033 1274.07,742.825 1294.81,728.315 1315.56,714.157 1336.3,700.559 1357.05,686.913 1377.79,673.249 1398.53,658.758 1419.28,642.783 1440.02,625.546 
  1460.77,607.737 1481.51,590.653 1502.25,574.347 1523,559.695 1543.74,545.863 1564.49,533.79 1585.23,522.448 1605.97,510.935 1626.72,499.138 1647.46,486.064 
  1668.21,471.224 1688.95,455.523 1709.69,438.652 1730.44,423.564 1751.18,410.67 1771.93,399.16 1792.67,388.963 1813.41,378.776 1834.16,368.57 1854.9,357.174 
  1875.65,343.958 1896.39,329.051 1917.13,314.754 1937.88,300.918 1958.62,288.111 1979.36,276.857 2000.11,266.14 2020.85,255.675 2041.6,244.751 2062.34,232.92 
  2083.08,219.33 2103.83,202.713 2124.57,186.719 2145.32,171.166 2166.06,157.908 2186.8,145.219 2207.55,133.986 2228.29,123.147 2249.04,112.356 2269.78,101.08 
  2290.52,88.0053 
  "/>
<polyline clip-path="url(#clip5802)" style="stroke:#008000; stroke-width:8; stroke-opacity:1; fill:none" stroke-dasharray="32, 20" points="
  216.13,1446.71 236.874,1437.02 257.618,1425.7 278.362,1414.15 299.106,1403.24 319.85,1394.96 340.593,1388.82 361.337,1384.26 382.081,1379.73 402.825,1375.62 
  423.569,1371.17 444.313,1366.85 465.057,1361.76 485.801,1354.57 506.545,1344.47 527.289,1334.46 548.033,1323.54 568.777,1314.4 589.521,1305.34 610.265,1298.07 
  631.009,1292.08 651.753,1286.56 672.497,1280.32 693.24,1272.9 713.984,1263.83 734.728,1251.7 755.472,1237.97 776.216,1222.75 796.96,1208.08 817.704,1195.68 
  838.448,1185.86 859.192,1176.98 879.936,1168.72 900.68,1160.61 921.424,1151.46 942.168,1140.28 962.912,1127.1 983.656,1114.15 1004.4,1101.08 1025.14,1088.01 
  1045.89,1076.68 1066.63,1065.97 1087.38,1055.51 1108.12,1044.54 1128.86,1032.9 1149.61,1020.14 1170.35,1004.89 1191.1,987.887 1211.84,970.282 1232.58,953.664 
  1253.33,938.527 1274.07,925.308 1294.81,912.775 1315.56,900.585 1336.3,888.947 1357.05,877.256 1377.79,865.54 1398.53,852.994 1419.28,838.958 1440.02,823.655 
  1460.77,807.778 1481.51,792.627 1502.25,778.267 1523,765.581 1543.74,753.743 1564.49,743.693 1585.23,734.407 1605.97,724.983 1626.72,715.31 1647.46,704.395 
  1668.21,691.75 1688.95,678.271 1709.69,663.638 1730.44,650.794 1751.18,640.142 1771.93,630.869 1792.67,622.897 1813.41,614.925 1834.16,606.918 1854.9,597.707 
  1875.65,586.661 1896.39,573.904 1917.13,561.729 1937.88,549.984 1958.62,539.232 1979.36,529.994 2000.11,521.255 2020.85,512.73 2041.6,503.708 2062.34,493.742 
  2083.08,481.98 2103.83,467.157 2124.57,452.923 2145.32,439.098 2166.06,427.538 2186.8,416.518 2207.55,406.926 2228.29,397.702 2249.04,388.502 2269.78,378.792 
  2290.52,367.262 
  "/>
<path clip-path="url(#clip5800)" d="
M225.898 312.204 L605.053 312.204 L605.053 130.764 L225.898 130.764  Z
  " fill="#ffffff" fill-rule="evenodd" fill-opacity="1"/>
<polyline clip-path="url(#clip5800)" style="stroke:#000000; stroke-width:4; stroke-opacity:1; fill:none" points="
  225.898,312.204 605.053,312.204 605.053,130.764 225.898,130.764 225.898,312.204 
  "/>
<polyline clip-path="url(#clip5800)" style="stroke:#000000; stroke-width:8; stroke-opacity:1; fill:none" points="
  249.898,191.244 393.898,191.244 
  "/>
<g clip-path="url(#clip5800)">
<text style="fill:#000000; fill-opacity:1; font-family:Arial,Helvetica Neue,Helvetica,sans-serif; font-size:48px; text-anchor:start;" transform="rotate(0, 417.898, 208.744)" x="417.898" y="208.744">BAU</text>
</g>
<polyline clip-path="url(#clip5800)" style="stroke:#008000; stroke-width:8; stroke-opacity:1; fill:none" stroke-dasharray="32, 20" points="
  249.898,251.724 393.898,251.724 
  "/>
<g clip-path="url(#clip5800)">
<text style="fill:#000000; fill-opacity:1; font-family:Arial,Helvetica Neue,Helvetica,sans-serif; font-size:48px; text-anchor:start;" transform="rotate(0, 417.898, 269.224)" x="417.898" y="269.224">Vegan</text>
</g>
</svg>
