<?xml version="1.0" encoding="utf-8"?>
<svg xmlns="http://www.w3.org/2000/svg" xmlns:xlink="http://www.w3.org/1999/xlink" width="600" height="400" viewBox="0 0 2400 1600">
<defs>
  <clipPath id="clip3400">
    <rect x="0" y="0" width="2400" height="1600"/>
  </clipPath>
</defs>
<path clip-path="url(#clip3400)" d="
M0 1600 L2400 1600 L2400 0 L0 0  Z
  " fill="#ffffff" fill-rule="evenodd" fill-opacity="1"/>
<defs>
  <clipPath id="clip3401">
    <rect x="480" y="0" width="1681" height="1600"/>
  </clipPath>
</defs>
<path clip-path="url(#clip3400)" d="
M215.754 1487.47 L2352.76 1487.47 L2352.76 47.2441 L215.754 47.2441  Z
  " fill="#ffffff" fill-rule="evenodd" fill-opacity="1"/>
<defs>
  <clipPath id="clip3402">
    <rect x="215" y="47" width="2138" height="1441"/>
  </clipPath>
</defs>
<polyline clip-path="url(#clip3400)" style="stroke:#000000; stroke-width:4; stroke-opacity:1; fill:none" points="
  215.754,1487.47 2352.76,1487.47 
  "/>
<polyline clip-path="url(#clip3400)" style="stroke:#000000; stroke-width:4; stroke-opacity:1; fill:none" points="
  215.754,1487.47 215.754,47.2441 
  "/>
<polyline clip-path="url(#clip3400)" style="stroke:#000000; stroke-width:4; stroke-opacity:1; fill:none" points="
  377.037,1487.47 377.037,1470.19 
  "/>
<polyline clip-path="url(#clip3400)" style="stroke:#000000; stroke-width:4; stroke-opacity:1; fill:none" points="
  881.047,1487.47 881.047,1470.19 
  "/>
<polyline clip-path="url(#clip3400)" style="stroke:#000000; stroke-width:4; stroke-opacity:1; fill:none" points="
  1385.06,1487.47 1385.06,1470.19 
  "/>
<polyline clip-path="url(#clip3400)" style="stroke:#000000; stroke-width:4; stroke-opacity:1; fill:none" points="
  1889.07,1487.47 1889.07,1470.19 
  "/>
<polyline clip-path="url(#clip3400)" style="stroke:#000000; stroke-width:4; stroke-opacity:1; fill:none" points="
  215.754,1326.18 241.398,1326.18 
  "/>
<polyline clip-path="url(#clip3400)" style="stroke:#000000; stroke-width:4; stroke-opacity:1; fill:none" points="
  215.754,1070.37 241.398,1070.37 
  "/>
<polyline clip-path="url(#clip3400)" style="stroke:#000000; stroke-width:4; stroke-opacity:1; fill:none" points="
  215.754,814.571 241.398,814.571 
  "/>
<polyline clip-path="url(#clip3400)" style="stroke:#000000; stroke-width:4; stroke-opacity:1; fill:none" points="
  215.754,558.769 241.398,558.769 
  "/>
<polyline clip-path="url(#clip3400)" style="stroke:#000000; stroke-width:4; stroke-opacity:1; fill:none" points="
  215.754,302.966 241.398,302.966 
  "/>
<g clip-path="url(#clip3400)">
<text style="fill:#000000; fill-opacity:1; font-family:Arial,Helvetica Neue,Helvetica,sans-serif; font-size:48px; text-anchor:middle;" transform="rotate(0, 377.037, 1541.47)" x="377.037" y="1541.47">2025</text>
</g>
<g clip-path="url(#clip3400)">
<text style="fill:#000000; fill-opacity:1; font-family:Arial,Helvetica Neue,Helvetica,sans-serif; font-size:48px; text-anchor:middle;" transform="rotate(0, 881.047, 1541.47)" x="881.047" y="1541.47">2050</text>
</g>
<g clip-path="url(#clip3400)">
<text style="fill:#000000; fill-opacity:1; font-family:Arial,Helvetica Neue,Helvetica,sans-serif; font-size:48px; text-anchor:middle;" transform="rotate(0, 1385.06, 1541.47)" x="1385.06" y="1541.47">2075</text>
</g>
<g clip-path="url(#clip3400)">
<text style="fill:#000000; fill-opacity:1; font-family:Arial,Helvetica Neue,Helvetica,sans-serif; font-size:48px; text-anchor:middle;" transform="rotate(0, 1889.07, 1541.47)" x="1889.07" y="1541.47">2100</text>
</g>
<g clip-path="url(#clip3400)">
<text style="fill:#000000; fill-opacity:1; font-family:Arial,Helvetica Neue,Helvetica,sans-serif; font-size:48px; text-anchor:end;" transform="rotate(0, 191.754, 1343.68)" x="191.754" y="1343.68">1.5</text>
</g>
<g clip-path="url(#clip3400)">
<text style="fill:#000000; fill-opacity:1; font-family:Arial,Helvetica Neue,Helvetica,sans-serif; font-size:48px; text-anchor:end;" transform="rotate(0, 191.754, 1087.87)" x="191.754" y="1087.87">2.0</text>
</g>
<g clip-path="url(#clip3400)">
<text style="fill:#000000; fill-opacity:1; font-family:Arial,Helvetica Neue,Helvetica,sans-serif; font-size:48px; text-anchor:end;" transform="rotate(0, 191.754, 832.071)" x="191.754" y="832.071">2.5</text>
</g>
<g clip-path="url(#clip3400)">
<text style="fill:#000000; fill-opacity:1; font-family:Arial,Helvetica Neue,Helvetica,sans-serif; font-size:48px; text-anchor:end;" transform="rotate(0, 191.754, 576.269)" x="191.754" y="576.269">3.0</text>
</g>
<g clip-path="url(#clip3400)">
<text style="fill:#000000; fill-opacity:1; font-family:Arial,Helvetica Neue,Helvetica,sans-serif; font-size:48px; text-anchor:end;" transform="rotate(0, 191.754, 320.466)" x="191.754" y="320.466">3.5</text>
</g>
<g clip-path="url(#clip3400)">
<text style="fill:#000000; fill-opacity:1; font-family:Arial,Helvetica Neue,Helvetica,sans-serif; font-size:66px; text-anchor:middle;" transform="rotate(-90, 89.2861, 767.359)" x="89.2861" y="767.359">Temperature Increase (C Above Pre-Industrial)</text>
</g>
<polyline clip-path="url(#clip3402)" style="stroke:#000000; stroke-width:8; stroke-opacity:1; fill:none" points="
  276.235,1445.69 296.396,1433.72 316.556,1419.1 336.716,1403.46 356.877,1387.85 377.037,1374.28 397.198,1362.47 417.358,1352.01 437.518,1341.6 457.679,1331.62 
  477.839,1321.45 498,1311.53 518.16,1301.07 538.32,1288.86 558.481,1274.17 578.641,1259.73 598.802,1244.62 618.962,1231.28 639.122,1218.16 659.283,1206.79 
  679.443,1196.73 699.604,1187.21 719.764,1177.17 739.924,1166.16 760.085,1153.75 780.245,1138.67 800.406,1122.21 820.566,1104.47 840.726,1087.29 860.887,1072.24 
  881.047,1059.59 901.207,1047.86 921.368,1036.74 941.528,1025.8 961.689,1013.96 981.849,1000.32 1002.01,984.909 1022.17,969.739 1042.33,954.497 1062.49,939.285 
  1082.65,925.673 1102.81,912.655 1122.97,899.887 1143.13,886.667 1163.29,872.87 1183.45,858.066 1203.61,841.017 1223.77,822.385 1243.93,803.219 1264.09,784.956 
  1284.25,768.043 1304.42,752.878 1324.58,738.339 1344.74,724.114 1364.9,710.393 1385.06,696.623 1405.22,682.831 1425.38,668.286 1445.54,652.389 1465.7,635.342 
  1485.86,617.771 1506.02,600.85 1526.18,584.629 1546.34,569.903 1566.5,555.918 1586.66,543.524 1606.82,531.792 1626.98,519.903 1647.14,507.755 1667.3,494.447 
  1687.46,479.536 1707.62,463.839 1727.78,447.078 1747.94,431.93 1768.1,418.77 1788.26,406.864 1808.43,396.147 1828.59,385.442 1848.75,374.719 1868.91,362.918 
  1889.07,349.465 1909.23,334.478 1929.39,320.042 1949.55,306.024 1969.71,292.938 1989.87,281.26 2010.03,270.071 2030.19,259.111 2050.35,247.737 2070.51,235.542 
  2090.67,221.751 2110.83,205.215 2130.99,189.242 2151.15,173.669 2171.31,160.177 2191.47,147.201 2211.63,135.547 2231.79,124.254 2251.95,113.006 2272.11,101.32 
  2292.27,88.0053 
  "/>
<polyline clip-path="url(#clip3402)" style="stroke:#008000; stroke-width:8; stroke-opacity:1; fill:none" stroke-dasharray="32, 20" points="
  276.235,1446.71 296.396,1437.38 316.556,1426.54 336.716,1415.45 356.877,1404.9 377.037,1396.69 397.198,1390.41 417.358,1385.52 437.518,1380.64 457.679,1376.11 
  477.839,1371.25 498,1366.49 518.16,1361.01 538.32,1353.61 558.481,1343.54 578.641,1333.54 598.802,1322.69 618.962,1313.45 639.122,1304.25 659.283,1296.66 
  679.443,1290.22 699.604,1284.2 719.764,1277.51 739.924,1269.74 760.085,1260.46 780.245,1248.4 800.406,1234.87 820.566,1219.98 840.726,1205.57 860.887,1193.2 
  881.047,1183.17 901.207,1173.99 921.368,1165.35 941.528,1156.84 961.689,1147.39 981.849,1136.08 1002.01,1122.95 1022.17,1110.02 1042.33,1096.98 1062.49,1083.93 
  1082.65,1072.45 1102.81,1061.52 1122.97,1050.82 1143.13,1039.64 1163.29,1027.85 1183.45,1015.04 1203.61,999.966 1223.77,983.289 1243.93,966.06 1264.09,949.716 
  1284.25,934.707 1304.42,921.432 1324.58,908.772 1344.74,896.417 1364.9,884.56 1385.06,872.649 1405.22,860.712 1425.38,848.018 1445.54,833.968 1465.7,818.763 
  1485.86,803.031 1506.02,787.952 1526.18,773.585 1546.34,760.731 1566.5,748.643 1586.66,738.173 1606.82,728.395 1626.98,718.491 1647.14,708.36 1667.3,697.101 
  1687.46,684.27 1707.62,670.681 1727.78,656.041 1747.94,643.019 1768.1,631.985 1788.26,622.199 1808.43,613.594 1828.59,604.989 1848.75,596.354 1868.91,586.627 
  1889.07,575.235 1909.23,562.291 1929.39,549.873 1949.55,537.844 1969.71,526.714 1989.87,516.958 2010.03,507.656 2030.19,498.548 2050.35,488.99 2070.51,478.578 
  2090.67,466.537 2110.83,451.719 2130.99,437.433 2151.15,423.517 2171.31,411.654 2191.47,400.281 2211.63,390.204 2231.79,380.462 2251.95,370.744 2272.11,360.566 
  2292.27,348.738 
  "/>
<path clip-path="url(#clip3400)" d="
M287.754 312.204 L666.909 312.204 L666.909 130.764 L287.754 130.764  Z
  " fill="#ffffff" fill-rule="evenodd" fill-opacity="1"/>
<polyline clip-path="url(#clip3400)" style="stroke:#000000; stroke-width:4; stroke-opacity:1; fill:none" points="
  287.754,312.204 666.909,312.204 666.909,130.764 287.754,130.764 287.754,312.204 
  "/>
<polyline clip-path="url(#clip3400)" style="stroke:#000000; stroke-width:8; stroke-opacity:1; fill:none" points="
  311.754,191.244 455.754,191.244 
  "/>
<g clip-path="url(#clip3400)">
<text style="fill:#000000; fill-opacity:1; font-family:Arial,Helvetica Neue,Helvetica,sans-serif; font-size:48px; text-anchor:start;" transform="rotate(0, 479.754, 208.744)" x="479.754" y="208.744">BAU</text>
</g>
<polyline clip-path="url(#clip3400)" style="stroke:#008000; stroke-width:8; stroke-opacity:1; fill:none" stroke-dasharray="32, 20" points="
  311.754,251.724 455.754,251.724 
  "/>
<g clip-path="url(#clip3400)">
<text style="fill:#000000; fill-opacity:1; font-family:Arial,Helvetica Neue,Helvetica,sans-serif; font-size:48px; text-anchor:start;" transform="rotate(0, 479.754, 269.224)" x="479.754" y="269.224">Vegan</text>
</g>
</svg>
