<?xml version="1.0" encoding="utf-8"?>
<svg xmlns="http://www.w3.org/2000/svg" xmlns:xlink="http://www.w3.org/1999/xlink" width="600" height="400" viewBox="0 0 2400 1600">
<defs>
  <clipPath id="clip710">
    <rect x="0" y="0" width="2400" height="1600"/>
  </clipPath>
</defs>
<path clip-path="url(#clip710)" d="
M0 1600 L2400 1600 L2400 0 L0 0  Z
  " fill="#ffffff" fill-rule="evenodd" fill-opacity="1"/>
<defs>
  <clipPath id="clip711">
    <rect x="480" y="0" width="1681" height="1600"/>
  </clipPath>
</defs>
<path clip-path="url(#clip710)" d="
M212.413 1486.45 L2352.76 1486.45 L2352.76 47.2441 L212.413 47.2441  Z
  " fill="#ffffff" fill-rule="evenodd" fill-opacity="1"/>
<defs>
  <clipPath id="clip712">
    <rect x="212" y="47" width="2141" height="1440"/>
  </clipPath>
</defs>
<polyline clip-path="url(#clip710)" style="stroke:#000000; stroke-width:4; stroke-opacity:1; fill:none" points="
  212.413,1486.45 2352.76,1486.45 
  "/>
<polyline clip-path="url(#clip710)" style="stroke:#000000; stroke-width:4; stroke-opacity:1; fill:none" points="
  392.94,1486.45 392.94,1469.18 
  "/>
<polyline clip-path="url(#clip710)" style="stroke:#000000; stroke-width:4; stroke-opacity:1; fill:none" points="
  892.74,1486.45 892.74,1469.18 
  "/>
<polyline clip-path="url(#clip710)" style="stroke:#000000; stroke-width:4; stroke-opacity:1; fill:none" points="
  1392.54,1486.45 1392.54,1469.18 
  "/>
<polyline clip-path="url(#clip710)" style="stroke:#000000; stroke-width:4; stroke-opacity:1; fill:none" points="
  1892.34,1486.45 1892.34,1469.18 
  "/>
<path clip-path="url(#clip710)" d="M 0 0 M348.369 1543.18 L364.688 1543.18 L364.688 1547.12 L342.744 1547.12 L342.744 1543.18 Q345.406 1540.43 349.989 1535.8 Q354.596 1531.15 355.776 1529.81 Q358.022 1527.28 358.901 1525.55 Q359.804 1523.79 359.804 1522.1 Q359.804 1519.34 357.86 1517.61 Q355.938 1515.87 352.836 1515.87 Q350.637 1515.87 348.184 1516.63 Q345.753 1517.4 342.975 1518.95 L342.975 1514.23 Q345.799 1513.09 348.253 1512.51 Q350.707 1511.93 352.744 1511.93 Q358.114 1511.93 361.309 1514.62 Q364.503 1517.31 364.503 1521.8 Q364.503 1523.93 363.693 1525.85 Q362.906 1527.74 360.799 1530.34 Q360.221 1531.01 357.119 1534.23 Q354.017 1537.42 348.369 1543.18 Z" fill="#000000" fill-rule="evenodd" fill-opacity="1" /><path clip-path="url(#clip710)" d="M 0 0 M379.758 1515.64 Q376.146 1515.64 374.318 1519.2 Q372.512 1522.75 372.512 1529.87 Q372.512 1536.98 374.318 1540.55 Q376.146 1544.09 379.758 1544.09 Q383.392 1544.09 385.197 1540.55 Q387.026 1536.98 387.026 1529.87 Q387.026 1522.75 385.197 1519.2 Q383.392 1515.64 379.758 1515.64 M379.758 1511.93 Q385.568 1511.93 388.623 1516.54 Q391.702 1521.12 391.702 1529.87 Q391.702 1538.6 388.623 1543.21 Q385.568 1547.79 379.758 1547.79 Q373.947 1547.79 370.869 1543.21 Q367.813 1538.6 367.813 1529.87 Q367.813 1521.12 370.869 1516.54 Q373.947 1511.93 379.758 1511.93 Z" fill="#000000" fill-rule="evenodd" fill-opacity="1" /><path clip-path="url(#clip710)" d="M 0 0 M400.799 1543.18 L417.118 1543.18 L417.118 1547.12 L395.174 1547.12 L395.174 1543.18 Q397.836 1540.43 402.419 1535.8 Q407.026 1531.15 408.206 1529.81 Q410.452 1527.28 411.331 1525.55 Q412.234 1523.79 412.234 1522.1 Q412.234 1519.34 410.29 1517.61 Q408.369 1515.87 405.267 1515.87 Q403.068 1515.87 400.614 1516.63 Q398.183 1517.4 395.406 1518.95 L395.406 1514.23 Q398.23 1513.09 400.683 1512.51 Q403.137 1511.93 405.174 1511.93 Q410.544 1511.93 413.739 1514.62 Q416.933 1517.31 416.933 1521.8 Q416.933 1523.93 416.123 1525.85 Q415.336 1527.74 413.23 1530.34 Q412.651 1531.01 409.549 1534.23 Q406.447 1537.42 400.799 1543.18 Z" fill="#000000" fill-rule="evenodd" fill-opacity="1" /><path clip-path="url(#clip710)" d="M 0 0 M422.234 1512.56 L440.591 1512.56 L440.591 1516.5 L426.517 1516.5 L426.517 1524.97 Q427.535 1524.62 428.554 1524.46 Q429.572 1524.27 430.591 1524.27 Q436.378 1524.27 439.757 1527.44 Q443.137 1530.62 443.137 1536.03 Q443.137 1541.61 439.665 1544.71 Q436.192 1547.79 429.873 1547.79 Q427.697 1547.79 425.429 1547.42 Q423.183 1547.05 420.776 1546.31 L420.776 1541.61 Q422.859 1542.74 425.081 1543.3 Q427.304 1543.86 429.78 1543.86 Q433.785 1543.86 436.123 1541.75 Q438.461 1539.64 438.461 1536.03 Q438.461 1532.42 436.123 1530.31 Q433.785 1528.21 429.78 1528.21 Q427.905 1528.21 426.03 1528.62 Q424.179 1529.04 422.234 1529.92 L422.234 1512.56 Z" fill="#000000" fill-rule="evenodd" fill-opacity="1" /><path clip-path="url(#clip710)" d="M 0 0 M847.37 1543.18 L863.69 1543.18 L863.69 1547.12 L841.745 1547.12 L841.745 1543.18 Q844.407 1540.43 848.991 1535.8 Q853.597 1531.15 854.778 1529.81 Q857.023 1527.28 857.903 1525.55 Q858.805 1523.79 858.805 1522.1 Q858.805 1519.34 856.861 1517.61 Q854.94 1515.87 851.838 1515.87 Q849.639 1515.87 847.185 1516.63 Q844.754 1517.4 841.977 1518.95 L841.977 1514.23 Q844.801 1513.09 847.254 1512.51 Q849.708 1511.93 851.745 1511.93 Q857.115 1511.93 860.31 1514.62 Q863.504 1517.31 863.504 1521.8 Q863.504 1523.93 862.694 1525.85 Q861.907 1527.74 859.801 1530.34 Q859.222 1531.01 856.12 1534.23 Q853.018 1537.42 847.37 1543.18 Z" fill="#000000" fill-rule="evenodd" fill-opacity="1" /><path clip-path="url(#clip710)" d="M 0 0 M878.759 1515.64 Q875.148 1515.64 873.319 1519.2 Q871.514 1522.75 871.514 1529.87 Q871.514 1536.98 873.319 1540.55 Q875.148 1544.09 878.759 1544.09 Q882.393 1544.09 884.199 1540.55 Q886.027 1536.98 886.027 1529.87 Q886.027 1522.75 884.199 1519.2 Q882.393 1515.64 878.759 1515.64 M878.759 1511.93 Q884.569 1511.93 887.625 1516.54 Q890.703 1521.12 890.703 1529.87 Q890.703 1538.6 887.625 1543.21 Q884.569 1547.79 878.759 1547.79 Q872.949 1547.79 869.87 1543.21 Q866.815 1538.6 866.815 1529.87 Q866.815 1521.12 869.87 1516.54 Q872.949 1511.93 878.759 1511.93 Z" fill="#000000" fill-rule="evenodd" fill-opacity="1" /><path clip-path="url(#clip710)" d="M 0 0 M895.819 1512.56 L914.175 1512.56 L914.175 1516.5 L900.101 1516.5 L900.101 1524.97 Q901.12 1524.62 902.138 1524.46 Q903.157 1524.27 904.175 1524.27 Q909.962 1524.27 913.342 1527.44 Q916.722 1530.62 916.722 1536.03 Q916.722 1541.61 913.249 1544.71 Q909.777 1547.79 903.458 1547.79 Q901.282 1547.79 899.013 1547.42 Q896.768 1547.05 894.361 1546.31 L894.361 1541.61 Q896.444 1542.74 898.666 1543.3 Q900.888 1543.86 903.365 1543.86 Q907.37 1543.86 909.708 1541.75 Q912.046 1539.64 912.046 1536.03 Q912.046 1532.42 909.708 1530.31 Q907.37 1528.21 903.365 1528.21 Q901.49 1528.21 899.615 1528.62 Q897.763 1529.04 895.819 1529.92 L895.819 1512.56 Z" fill="#000000" fill-rule="evenodd" fill-opacity="1" /><path clip-path="url(#clip710)" d="M 0 0 M931.791 1515.64 Q928.18 1515.64 926.351 1519.2 Q924.546 1522.75 924.546 1529.87 Q924.546 1536.98 926.351 1540.55 Q928.18 1544.09 931.791 1544.09 Q935.425 1544.09 937.231 1540.55 Q939.059 1536.98 939.059 1529.87 Q939.059 1522.75 937.231 1519.2 Q935.425 1515.64 931.791 1515.64 M931.791 1511.93 Q937.601 1511.93 940.657 1516.54 Q943.735 1521.12 943.735 1529.87 Q943.735 1538.6 940.657 1543.21 Q937.601 1547.79 931.791 1547.79 Q925.981 1547.79 922.902 1543.21 Q919.847 1538.6 919.847 1529.87 Q919.847 1521.12 922.902 1516.54 Q925.981 1511.93 931.791 1511.93 Z" fill="#000000" fill-rule="evenodd" fill-opacity="1" /><path clip-path="url(#clip710)" d="M 0 0 M1347.62 1543.18 L1363.94 1543.18 L1363.94 1547.12 L1342 1547.12 L1342 1543.18 Q1344.66 1540.43 1349.24 1535.8 Q1353.85 1531.15 1355.03 1529.81 Q1357.27 1527.28 1358.15 1525.55 Q1359.06 1523.79 1359.06 1522.1 Q1359.06 1519.34 1357.11 1517.61 Q1355.19 1515.87 1352.09 1515.87 Q1349.89 1515.87 1347.44 1516.63 Q1345.01 1517.4 1342.23 1518.95 L1342.23 1514.23 Q1345.05 1513.09 1347.51 1512.51 Q1349.96 1511.93 1352 1511.93 Q1357.37 1511.93 1360.56 1514.62 Q1363.76 1517.31 1363.76 1521.8 Q1363.76 1523.93 1362.95 1525.85 Q1362.16 1527.74 1360.05 1530.34 Q1359.47 1531.01 1356.37 1534.23 Q1353.27 1537.42 1347.62 1543.18 Z" fill="#000000" fill-rule="evenodd" fill-opacity="1" /><path clip-path="url(#clip710)" d="M 0 0 M1379.01 1515.64 Q1375.4 1515.64 1373.57 1519.2 Q1371.76 1522.75 1371.76 1529.87 Q1371.76 1536.98 1373.57 1540.55 Q1375.4 1544.09 1379.01 1544.09 Q1382.64 1544.09 1384.45 1540.55 Q1386.28 1536.98 1386.28 1529.87 Q1386.28 1522.75 1384.45 1519.2 Q1382.64 1515.64 1379.01 1515.64 M1379.01 1511.93 Q1384.82 1511.93 1387.88 1516.54 Q1390.95 1521.12 1390.95 1529.87 Q1390.95 1538.6 1387.88 1543.21 Q1384.82 1547.79 1379.01 1547.79 Q1373.2 1547.79 1370.12 1543.21 Q1367.07 1538.6 1367.07 1529.87 Q1367.07 1521.12 1370.12 1516.54 Q1373.2 1511.93 1379.01 1511.93 Z" fill="#000000" fill-rule="evenodd" fill-opacity="1" /><path clip-path="url(#clip710)" d="M 0 0 M1394.84 1512.56 L1417.07 1512.56 L1417.07 1514.55 L1404.52 1547.12 L1399.64 1547.12 L1411.44 1516.5 L1394.84 1516.5 L1394.84 1512.56 Z" fill="#000000" fill-rule="evenodd" fill-opacity="1" /><path clip-path="url(#clip710)" d="M 0 0 M1422.18 1512.56 L1440.54 1512.56 L1440.54 1516.5 L1426.46 1516.5 L1426.46 1524.97 Q1427.48 1524.62 1428.5 1524.46 Q1429.52 1524.27 1430.54 1524.27 Q1436.32 1524.27 1439.7 1527.44 Q1443.08 1530.62 1443.08 1536.03 Q1443.08 1541.61 1439.61 1544.71 Q1436.14 1547.79 1429.82 1547.79 Q1427.64 1547.79 1425.38 1547.42 Q1423.13 1547.05 1420.72 1546.31 L1420.72 1541.61 Q1422.81 1542.74 1425.03 1543.3 Q1427.25 1543.86 1429.73 1543.86 Q1433.73 1543.86 1436.07 1541.75 Q1438.41 1539.64 1438.41 1536.03 Q1438.41 1532.42 1436.07 1530.31 Q1433.73 1528.21 1429.73 1528.21 Q1427.85 1528.21 1425.98 1528.62 Q1424.13 1529.04 1422.18 1529.92 L1422.18 1512.56 Z" fill="#000000" fill-rule="evenodd" fill-opacity="1" /><path clip-path="url(#clip710)" d="M 0 0 M1847.09 1543.18 L1863.41 1543.18 L1863.41 1547.12 L1841.46 1547.12 L1841.46 1543.18 Q1844.12 1540.43 1848.71 1535.8 Q1853.31 1531.15 1854.49 1529.81 Q1856.74 1527.28 1857.62 1525.55 Q1858.52 1523.79 1858.52 1522.1 Q1858.52 1519.34 1856.58 1517.61 Q1854.66 1515.87 1851.55 1515.87 Q1849.35 1515.87 1846.9 1516.63 Q1844.47 1517.4 1841.69 1518.95 L1841.69 1514.23 Q1844.52 1513.09 1846.97 1512.51 Q1849.42 1511.93 1851.46 1511.93 Q1856.83 1511.93 1860.03 1514.62 Q1863.22 1517.31 1863.22 1521.8 Q1863.22 1523.93 1862.41 1525.85 Q1861.62 1527.74 1859.52 1530.34 Q1858.94 1531.01 1855.84 1534.23 Q1852.73 1537.42 1847.09 1543.18 Z" fill="#000000" fill-rule="evenodd" fill-opacity="1" /><path clip-path="url(#clip710)" d="M 0 0 M1869.28 1543.18 L1876.92 1543.18 L1876.92 1516.82 L1868.61 1518.49 L1868.61 1514.23 L1876.88 1512.56 L1881.55 1512.56 L1881.55 1543.18 L1889.19 1543.18 L1889.19 1547.12 L1869.28 1547.12 L1869.28 1543.18 Z" fill="#000000" fill-rule="evenodd" fill-opacity="1" /><path clip-path="url(#clip710)" d="M 0 0 M1904.26 1515.64 Q1900.65 1515.64 1898.82 1519.2 Q1897.02 1522.75 1897.02 1529.87 Q1897.02 1536.98 1898.82 1540.55 Q1900.65 1544.09 1904.26 1544.09 Q1907.9 1544.09 1909.7 1540.55 Q1911.53 1536.98 1911.53 1529.87 Q1911.53 1522.75 1909.7 1519.2 Q1907.9 1515.64 1904.26 1515.64 M1904.26 1511.93 Q1910.07 1511.93 1913.13 1516.54 Q1916.21 1521.12 1916.21 1529.87 Q1916.21 1538.6 1913.13 1543.21 Q1910.07 1547.79 1904.26 1547.79 Q1898.45 1547.79 1895.37 1543.21 Q1892.32 1538.6 1892.32 1529.87 Q1892.32 1521.12 1895.37 1516.54 Q1898.45 1511.93 1904.26 1511.93 Z" fill="#000000" fill-rule="evenodd" fill-opacity="1" /><path clip-path="url(#clip710)" d="M 0 0 M1931.28 1515.64 Q1927.66 1515.64 1925.84 1519.2 Q1924.03 1522.75 1924.03 1529.87 Q1924.03 1536.98 1925.84 1540.55 Q1927.66 1544.09 1931.28 1544.09 Q1934.91 1544.09 1936.71 1540.55 Q1938.54 1536.98 1938.54 1529.87 Q1938.54 1522.75 1936.71 1519.2 Q1934.91 1515.64 1931.28 1515.64 M1931.28 1511.93 Q1937.09 1511.93 1940.14 1516.54 Q1943.22 1521.12 1943.22 1529.87 Q1943.22 1538.6 1940.14 1543.21 Q1937.09 1547.79 1931.28 1547.79 Q1925.47 1547.79 1922.39 1543.21 Q1919.33 1538.6 1919.33 1529.87 Q1919.33 1521.12 1922.39 1516.54 Q1925.47 1511.93 1931.28 1511.93 Z" fill="#000000" fill-rule="evenodd" fill-opacity="1" /><polyline clip-path="url(#clip710)" style="stroke:#000000; stroke-width:4; stroke-opacity:1; fill:none" points="
  212.413,1486.45 212.413,47.2441 
  "/>
<polyline clip-path="url(#clip710)" style="stroke:#000000; stroke-width:4; stroke-opacity:1; fill:none" points="
  212.413,1321.35 238.097,1321.35 
  "/>
<polyline clip-path="url(#clip710)" style="stroke:#000000; stroke-width:4; stroke-opacity:1; fill:none" points="
  212.413,1067.4 238.097,1067.4 
  "/>
<polyline clip-path="url(#clip710)" style="stroke:#000000; stroke-width:4; stroke-opacity:1; fill:none" points="
  212.413,813.458 238.097,813.458 
  "/>
<polyline clip-path="url(#clip710)" style="stroke:#000000; stroke-width:4; stroke-opacity:1; fill:none" points="
  212.413,559.512 238.097,559.512 
  "/>
<polyline clip-path="url(#clip710)" style="stroke:#000000; stroke-width:4; stroke-opacity:1; fill:none" points="
  212.413,305.567 238.097,305.567 
  "/>
<polyline clip-path="url(#clip710)" style="stroke:#000000; stroke-width:4; stroke-opacity:1; fill:none" points="
  212.413,51.6216 238.097,51.6216 
  "/>
<path clip-path="url(#clip710)" d="M 0 0 M120.533 1334.69 L128.172 1334.69 L128.172 1308.33 L119.862 1309.99 L119.862 1305.74 L128.126 1304.07 L132.802 1304.07 L132.802 1334.69 L140.441 1334.69 L140.441 1338.63 L120.533 1338.63 L120.533 1334.69 Z" fill="#000000" fill-rule="evenodd" fill-opacity="1" /><path clip-path="url(#clip710)" d="M 0 0 M145.51 1332.75 L150.394 1332.75 L150.394 1338.63 L145.51 1338.63 L145.51 1332.75 Z" fill="#000000" fill-rule="evenodd" fill-opacity="1" /><path clip-path="url(#clip710)" d="M 0 0 M155.51 1304.07 L173.866 1304.07 L173.866 1308 L159.792 1308 L159.792 1316.48 Q160.811 1316.13 161.829 1315.97 Q162.848 1315.78 163.866 1315.78 Q169.653 1315.78 173.033 1318.95 Q176.413 1322.12 176.413 1327.54 Q176.413 1333.12 172.94 1336.22 Q169.468 1339.3 163.149 1339.3 Q160.973 1339.3 158.704 1338.93 Q156.459 1338.56 154.052 1337.82 L154.052 1333.12 Q156.135 1334.25 158.357 1334.81 Q160.579 1335.36 163.056 1335.36 Q167.061 1335.36 169.399 1333.26 Q171.737 1331.15 171.737 1327.54 Q171.737 1323.93 169.399 1321.82 Q167.061 1319.72 163.056 1319.72 Q161.181 1319.72 159.306 1320.13 Q157.454 1320.55 155.51 1321.43 L155.51 1304.07 Z" fill="#000000" fill-rule="evenodd" fill-opacity="1" /><path clip-path="url(#clip710)" d="M 0 0 M123.126 1080.75 L139.445 1080.75 L139.445 1084.68 L117.501 1084.68 L117.501 1080.75 Q120.163 1077.99 124.746 1073.36 Q129.353 1068.71 130.533 1067.37 Q132.779 1064.85 133.658 1063.11 Q134.561 1061.35 134.561 1059.66 Q134.561 1056.91 132.617 1055.17 Q130.695 1053.43 127.593 1053.43 Q125.394 1053.43 122.941 1054.2 Q120.51 1054.96 117.732 1056.51 L117.732 1051.79 Q120.556 1050.66 123.01 1050.08 Q125.464 1049.5 127.501 1049.5 Q132.871 1049.5 136.066 1052.18 Q139.26 1054.87 139.26 1059.36 Q139.26 1061.49 138.45 1063.41 Q137.663 1065.31 135.556 1067.9 Q134.978 1068.57 131.876 1071.79 Q128.774 1074.98 123.126 1080.75 Z" fill="#000000" fill-rule="evenodd" fill-opacity="1" /><path clip-path="url(#clip710)" d="M 0 0 M144.515 1078.8 L149.399 1078.8 L149.399 1084.68 L144.515 1084.68 L144.515 1078.8 Z" fill="#000000" fill-rule="evenodd" fill-opacity="1" /><path clip-path="url(#clip710)" d="M 0 0 M164.468 1053.2 Q160.857 1053.2 159.028 1056.77 Q157.223 1060.31 157.223 1067.44 Q157.223 1074.54 159.028 1078.11 Q160.857 1081.65 164.468 1081.65 Q168.102 1081.65 169.908 1078.11 Q171.737 1074.54 171.737 1067.44 Q171.737 1060.31 169.908 1056.77 Q168.102 1053.2 164.468 1053.2 M164.468 1049.5 Q170.278 1049.5 173.334 1054.1 Q176.413 1058.69 176.413 1067.44 Q176.413 1076.16 173.334 1080.77 Q170.278 1085.35 164.468 1085.35 Q158.658 1085.35 155.579 1080.77 Q152.524 1076.16 152.524 1067.44 Q152.524 1058.69 155.579 1054.1 Q158.658 1049.5 164.468 1049.5 Z" fill="#000000" fill-rule="evenodd" fill-opacity="1" /><path clip-path="url(#clip710)" d="M 0 0 M124.121 826.803 L140.441 826.803 L140.441 830.738 L118.496 830.738 L118.496 826.803 Q121.158 824.048 125.742 819.418 Q130.348 814.766 131.529 813.423 Q133.774 810.9 134.654 809.164 Q135.556 807.404 135.556 805.715 Q135.556 802.96 133.612 801.224 Q131.691 799.488 128.589 799.488 Q126.39 799.488 123.936 800.252 Q121.505 801.016 118.728 802.567 L118.728 797.844 Q121.552 796.71 124.005 796.131 Q126.459 795.553 128.496 795.553 Q133.867 795.553 137.061 798.238 Q140.255 800.923 140.255 805.414 Q140.255 807.543 139.445 809.465 Q138.658 811.363 136.552 813.955 Q135.973 814.627 132.871 817.844 Q129.769 821.039 124.121 826.803 Z" fill="#000000" fill-rule="evenodd" fill-opacity="1" /><path clip-path="url(#clip710)" d="M 0 0 M145.51 824.858 L150.394 824.858 L150.394 830.738 L145.51 830.738 L145.51 824.858 Z" fill="#000000" fill-rule="evenodd" fill-opacity="1" /><path clip-path="url(#clip710)" d="M 0 0 M155.51 796.178 L173.866 796.178 L173.866 800.113 L159.792 800.113 L159.792 808.585 Q160.811 808.238 161.829 808.076 Q162.848 807.891 163.866 807.891 Q169.653 807.891 173.033 811.062 Q176.413 814.233 176.413 819.65 Q176.413 825.228 172.94 828.33 Q169.468 831.409 163.149 831.409 Q160.973 831.409 158.704 831.039 Q156.459 830.668 154.052 829.928 L154.052 825.228 Q156.135 826.363 158.357 826.918 Q160.579 827.474 163.056 827.474 Q167.061 827.474 169.399 825.367 Q171.737 823.261 171.737 819.65 Q171.737 816.039 169.399 813.932 Q167.061 811.826 163.056 811.826 Q161.181 811.826 159.306 812.242 Q157.454 812.659 155.51 813.539 L155.51 796.178 Z" fill="#000000" fill-rule="evenodd" fill-opacity="1" /><path clip-path="url(#clip710)" d="M 0 0 M132.316 558.158 Q135.672 558.876 137.547 561.144 Q139.445 563.413 139.445 566.746 Q139.445 571.862 135.927 574.663 Q132.408 577.464 125.927 577.464 Q123.751 577.464 121.436 577.024 Q119.144 576.607 116.691 575.751 L116.691 571.237 Q118.635 572.371 120.95 572.95 Q123.265 573.528 125.788 573.528 Q130.186 573.528 132.478 571.792 Q134.792 570.056 134.792 566.746 Q134.792 563.691 132.64 561.978 Q130.51 560.241 126.691 560.241 L122.663 560.241 L122.663 556.399 L126.876 556.399 Q130.325 556.399 132.154 555.033 Q133.982 553.644 133.982 551.052 Q133.982 548.39 132.084 546.978 Q130.209 545.542 126.691 545.542 Q124.769 545.542 122.57 545.959 Q120.371 546.376 117.732 547.255 L117.732 543.089 Q120.394 542.348 122.709 541.978 Q125.047 541.607 127.107 541.607 Q132.431 541.607 135.533 544.038 Q138.635 546.445 138.635 550.566 Q138.635 553.436 136.992 555.427 Q135.348 557.394 132.316 558.158 Z" fill="#000000" fill-rule="evenodd" fill-opacity="1" /><path clip-path="url(#clip710)" d="M 0 0 M144.515 570.913 L149.399 570.913 L149.399 576.792 L144.515 576.792 L144.515 570.913 Z" fill="#000000" fill-rule="evenodd" fill-opacity="1" /><path clip-path="url(#clip710)" d="M 0 0 M164.468 545.311 Q160.857 545.311 159.028 548.876 Q157.223 552.417 157.223 559.547 Q157.223 566.653 159.028 570.218 Q160.857 573.76 164.468 573.76 Q168.102 573.76 169.908 570.218 Q171.737 566.653 171.737 559.547 Q171.737 552.417 169.908 548.876 Q168.102 545.311 164.468 545.311 M164.468 541.607 Q170.278 541.607 173.334 546.214 Q176.413 550.797 176.413 559.547 Q176.413 568.274 173.334 572.88 Q170.278 577.464 164.468 577.464 Q158.658 577.464 155.579 572.88 Q152.524 568.274 152.524 559.547 Q152.524 550.797 155.579 546.214 Q158.658 541.607 164.468 541.607 Z" fill="#000000" fill-rule="evenodd" fill-opacity="1" /><path clip-path="url(#clip710)" d="M 0 0 M133.311 304.213 Q136.667 304.93 138.542 307.199 Q140.441 309.467 140.441 312.801 Q140.441 317.916 136.922 320.717 Q133.404 323.518 126.922 323.518 Q124.746 323.518 122.431 323.078 Q120.14 322.662 117.686 321.805 L117.686 317.291 Q119.63 318.426 121.945 319.004 Q124.26 319.583 126.783 319.583 Q131.181 319.583 133.473 317.847 Q135.788 316.111 135.788 312.801 Q135.788 309.745 133.635 308.032 Q131.505 306.296 127.686 306.296 L123.658 306.296 L123.658 302.454 L127.871 302.454 Q131.32 302.454 133.149 301.088 Q134.978 299.699 134.978 297.106 Q134.978 294.444 133.08 293.032 Q131.205 291.597 127.686 291.597 Q125.765 291.597 123.566 292.014 Q121.367 292.43 118.728 293.31 L118.728 289.143 Q121.39 288.403 123.705 288.032 Q126.043 287.662 128.103 287.662 Q133.427 287.662 136.529 290.092 Q139.63 292.5 139.63 296.62 Q139.63 299.491 137.987 301.481 Q136.343 303.449 133.311 304.213 Z" fill="#000000" fill-rule="evenodd" fill-opacity="1" /><path clip-path="url(#clip710)" d="M 0 0 M145.51 316.967 L150.394 316.967 L150.394 322.847 L145.51 322.847 L145.51 316.967 Z" fill="#000000" fill-rule="evenodd" fill-opacity="1" /><path clip-path="url(#clip710)" d="M 0 0 M155.51 288.287 L173.866 288.287 L173.866 292.222 L159.792 292.222 L159.792 300.694 Q160.811 300.347 161.829 300.185 Q162.848 300 163.866 300 Q169.653 300 173.033 303.171 Q176.413 306.342 176.413 311.759 Q176.413 317.338 172.94 320.44 Q169.468 323.518 163.149 323.518 Q160.973 323.518 158.704 323.148 Q156.459 322.777 154.052 322.037 L154.052 317.338 Q156.135 318.472 158.357 319.028 Q160.579 319.583 163.056 319.583 Q167.061 319.583 169.399 317.477 Q171.737 315.37 171.737 311.759 Q171.737 308.148 169.399 306.041 Q167.061 303.935 163.056 303.935 Q161.181 303.935 159.306 304.352 Q157.454 304.768 155.51 305.648 L155.51 288.287 Z" fill="#000000" fill-rule="evenodd" fill-opacity="1" /><path clip-path="url(#clip710)" d="M 0 0 M129.862 38.4156 L118.056 56.8646 L129.862 56.8646 L129.862 38.4156 M128.635 34.3416 L134.515 34.3416 L134.515 56.8646 L139.445 56.8646 L139.445 60.7535 L134.515 60.7535 L134.515 68.9016 L129.862 68.9016 L129.862 60.7535 L114.26 60.7535 L114.26 56.2396 L128.635 34.3416 Z" fill="#000000" fill-rule="evenodd" fill-opacity="1" /><path clip-path="url(#clip710)" d="M 0 0 M144.515 63.022 L149.399 63.022 L149.399 68.9016 L144.515 68.9016 L144.515 63.022 Z" fill="#000000" fill-rule="evenodd" fill-opacity="1" /><path clip-path="url(#clip710)" d="M 0 0 M164.468 37.4203 Q160.857 37.4203 159.028 40.985 Q157.223 44.5267 157.223 51.6563 Q157.223 58.7627 159.028 62.3275 Q160.857 65.8692 164.468 65.8692 Q168.102 65.8692 169.908 62.3275 Q171.737 58.7627 171.737 51.6563 Q171.737 44.5267 169.908 40.985 Q168.102 37.4203 164.468 37.4203 M164.468 33.7166 Q170.278 33.7166 173.334 38.323 Q176.413 42.9063 176.413 51.6563 Q176.413 60.3831 173.334 64.9895 Q170.278 69.5729 164.468 69.5729 Q158.658 69.5729 155.579 64.9895 Q152.524 60.3831 152.524 51.6563 Q152.524 42.9063 155.579 38.323 Q158.658 33.7166 164.468 33.7166 Z" fill="#000000" fill-rule="evenodd" fill-opacity="1" /><path clip-path="url(#clip710)" d="M 0 0 M16.4842 1445.8 L16.4842 1405.6 L21.895 1405.6 L21.895 1422.47 L64.0042 1422.47 L64.0042 1428.93 L21.895 1428.93 L21.895 1445.8 L16.4842 1445.8 Z" fill="#000000" fill-rule="evenodd" fill-opacity="1" /><path clip-path="url(#clip710)" d="M 0 0 M44.7161 1380.04 L47.5806 1380.04 L47.5806 1406.97 Q53.6281 1406.58 56.8109 1403.34 Q59.9619 1400.06 59.9619 1394.23 Q59.9619 1390.86 59.1344 1387.71 Q58.3069 1384.53 56.6518 1381.41 L62.1899 1381.41 Q63.5267 1384.56 64.227 1387.87 Q64.9272 1391.18 64.9272 1394.58 Q64.9272 1403.11 59.9619 1408.11 Q54.9967 1413.08 46.5303 1413.08 Q37.7774 1413.08 32.6531 1408.37 Q27.4968 1403.62 27.4968 1395.6 Q27.4968 1388.41 32.1438 1384.24 Q36.7589 1380.04 44.7161 1380.04 M42.9973 1385.9 Q38.1912 1385.96 35.3266 1388.6 Q32.4621 1391.21 32.4621 1395.54 Q32.4621 1400.44 35.2312 1403.4 Q38.0002 1406.33 43.0292 1406.77 L42.9973 1385.9 Z" fill="#000000" fill-rule="evenodd" fill-opacity="1" /><path clip-path="url(#clip710)" d="M 0 0 M35.1993 1346.14 Q31.2526 1343.95 29.3747 1340.89 Q27.4968 1337.83 27.4968 1333.7 Q27.4968 1328.13 31.4117 1325.1 Q35.2948 1322.08 42.4881 1322.08 L64.0042 1322.08 L64.0042 1327.97 L42.679 1327.97 Q37.5546 1327.97 35.072 1329.78 Q32.5894 1331.6 32.5894 1335.32 Q32.5894 1339.87 35.6131 1342.51 Q38.6368 1345.15 43.8567 1345.15 L64.0042 1345.15 L64.0042 1351.04 L42.679 1351.04 Q37.5228 1351.04 35.072 1352.86 Q32.5894 1354.67 32.5894 1358.46 Q32.5894 1362.95 35.6449 1365.59 Q38.6686 1368.23 43.8567 1368.23 L64.0042 1368.23 L64.0042 1374.12 L28.3562 1374.12 L28.3562 1368.23 L33.8944 1368.23 Q30.616 1366.23 29.0564 1363.42 Q27.4968 1360.62 27.4968 1356.77 Q27.4968 1352.89 29.4702 1350.18 Q31.4436 1347.45 35.1993 1346.14 Z" fill="#000000" fill-rule="evenodd" fill-opacity="1" /><path clip-path="url(#clip710)" d="M 0 0 M58.657 1310.27 L77.5631 1310.27 L77.5631 1316.16 L28.3562 1316.16 L28.3562 1310.27 L33.7671 1310.27 Q30.5842 1308.42 29.0564 1305.62 Q27.4968 1302.79 27.4968 1298.88 Q27.4968 1292.38 32.6531 1288.34 Q37.8093 1284.27 46.212 1284.27 Q54.6147 1284.27 59.771 1288.34 Q64.9272 1292.38 64.9272 1298.88 Q64.9272 1302.79 63.3994 1305.62 Q61.8398 1308.42 58.657 1310.27 M46.212 1290.35 Q39.7508 1290.35 36.0905 1293.02 Q32.3984 1295.66 32.3984 1300.31 Q32.3984 1304.96 36.0905 1307.63 Q39.7508 1310.27 46.212 1310.27 Q52.6732 1310.27 56.3653 1307.63 Q60.0256 1304.96 60.0256 1300.31 Q60.0256 1295.66 56.3653 1293.02 Q52.6732 1290.35 46.212 1290.35 Z" fill="#000000" fill-rule="evenodd" fill-opacity="1" /><path clip-path="url(#clip710)" d="M 0 0 M44.7161 1247.63 L47.5806 1247.63 L47.5806 1274.56 Q53.6281 1274.18 56.8109 1270.93 Q59.9619 1267.65 59.9619 1261.83 Q59.9619 1258.45 59.1344 1255.3 Q58.3069 1252.12 56.6518 1249 L62.1899 1249 Q63.5267 1252.15 64.227 1255.46 Q64.9272 1258.77 64.9272 1262.18 Q64.9272 1270.71 59.9619 1275.7 Q54.9967 1280.67 46.5303 1280.67 Q37.7774 1280.67 32.6531 1275.96 Q27.4968 1271.22 27.4968 1263.2 Q27.4968 1256 32.1438 1251.83 Q36.7589 1247.63 44.7161 1247.63 M42.9973 1253.49 Q38.1912 1253.55 35.3266 1256.19 Q32.4621 1258.8 32.4621 1263.13 Q32.4621 1268.03 35.2312 1270.99 Q38.0002 1273.92 43.0292 1274.37 L42.9973 1253.49 Z" fill="#000000" fill-rule="evenodd" fill-opacity="1" /><path clip-path="url(#clip710)" d="M 0 0 M33.8307 1220.83 Q33.2578 1221.82 33.0032 1223 Q32.7167 1224.14 32.7167 1225.54 Q32.7167 1230.51 35.9632 1233.18 Q39.1779 1235.82 45.2253 1235.82 L64.0042 1235.82 L64.0042 1241.71 L28.3562 1241.71 L28.3562 1235.82 L33.8944 1235.82 Q30.6479 1233.98 29.0883 1231.02 Q27.4968 1228.06 27.4968 1223.82 Q27.4968 1223.22 27.5923 1222.49 Q27.656 1221.76 27.8151 1220.86 L33.8307 1220.83 Z" fill="#000000" fill-rule="evenodd" fill-opacity="1" /><path clip-path="url(#clip710)" d="M 0 0 M46.0847 1198.49 Q46.0847 1205.59 47.7079 1208.32 Q49.3312 1211.06 53.2461 1211.06 Q56.3653 1211.06 58.2114 1209.02 Q60.0256 1206.96 60.0256 1203.42 Q60.0256 1198.55 56.5881 1195.62 Q53.1188 1192.66 47.3897 1192.66 L46.0847 1192.66 L46.0847 1198.49 M43.6657 1186.81 L64.0042 1186.81 L64.0042 1192.66 L58.5933 1192.66 Q61.8398 1194.67 63.3994 1197.66 Q64.9272 1200.65 64.9272 1204.98 Q64.9272 1210.46 61.8716 1213.7 Q58.7843 1216.92 53.6281 1216.92 Q47.6125 1216.92 44.5569 1212.91 Q41.5014 1208.86 41.5014 1200.88 L41.5014 1192.66 L40.9285 1192.66 Q36.8862 1192.66 34.6901 1195.34 Q32.4621 1197.98 32.4621 1202.79 Q32.4621 1205.84 33.1941 1208.74 Q33.9262 1211.63 35.3903 1214.31 L29.9795 1214.31 Q28.7381 1211.09 28.1334 1208.07 Q27.4968 1205.05 27.4968 1202.18 Q27.4968 1194.45 31.5072 1190.63 Q35.5176 1186.81 43.6657 1186.81 Z" fill="#000000" fill-rule="evenodd" fill-opacity="1" /><path clip-path="url(#clip710)" d="M 0 0 M18.2347 1174.87 L28.3562 1174.87 L28.3562 1162.81 L32.9077 1162.81 L32.9077 1174.87 L52.2594 1174.87 Q56.6199 1174.87 57.8613 1173.69 Q59.1026 1172.48 59.1026 1168.82 L59.1026 1162.81 L64.0042 1162.81 L64.0042 1168.82 Q64.0042 1175.6 61.4897 1178.18 Q58.9434 1180.76 52.2594 1180.76 L32.9077 1180.76 L32.9077 1185.06 L28.3562 1185.06 L28.3562 1180.76 L18.2347 1180.76 L18.2347 1174.87 Z" fill="#000000" fill-rule="evenodd" fill-opacity="1" /><path clip-path="url(#clip710)" d="M 0 0 M49.9359 1157.27 L28.3562 1157.27 L28.3562 1151.41 L49.7131 1151.41 Q54.7739 1151.41 57.3202 1149.44 Q59.8346 1147.47 59.8346 1143.52 Q59.8346 1138.78 56.8109 1136.04 Q53.7872 1133.27 48.5673 1133.27 L28.3562 1133.27 L28.3562 1127.42 L64.0042 1127.42 L64.0042 1133.27 L58.5296 1133.27 Q61.7762 1135.4 63.3676 1138.24 Q64.9272 1141.04 64.9272 1144.76 Q64.9272 1150.9 61.1078 1154.09 Q57.2883 1157.27 49.9359 1157.27 M27.4968 1142.53 L27.4968 1142.53 Z" fill="#000000" fill-rule="evenodd" fill-opacity="1" /><path clip-path="url(#clip710)" d="M 0 0 M33.8307 1100.62 Q33.2578 1101.6 33.0032 1102.78 Q32.7167 1103.93 32.7167 1105.33 Q32.7167 1110.29 35.9632 1112.97 Q39.1779 1115.61 45.2253 1115.61 L64.0042 1115.61 L64.0042 1121.5 L28.3562 1121.5 L28.3562 1115.61 L33.8944 1115.61 Q30.6479 1113.76 29.0883 1110.8 Q27.4968 1107.84 27.4968 1103.61 Q27.4968 1103 27.5923 1102.27 Q27.656 1101.54 27.8151 1100.65 L33.8307 1100.62 Z" fill="#000000" fill-rule="evenodd" fill-opacity="1" /><path clip-path="url(#clip710)" d="M 0 0 M44.7161 1065.41 L47.5806 1065.41 L47.5806 1092.34 Q53.6281 1091.96 56.8109 1088.71 Q59.9619 1085.43 59.9619 1079.61 Q59.9619 1076.24 59.1344 1073.08 Q58.3069 1069.9 56.6518 1066.78 L62.1899 1066.78 Q63.5267 1069.93 64.227 1073.24 Q64.9272 1076.55 64.9272 1079.96 Q64.9272 1088.49 59.9619 1093.49 Q54.9967 1098.45 46.5303 1098.45 Q37.7774 1098.45 32.6531 1093.74 Q27.4968 1089 27.4968 1080.98 Q27.4968 1073.78 32.1438 1069.61 Q36.7589 1065.41 44.7161 1065.41 M42.9973 1071.27 Q38.1912 1071.33 35.3266 1073.98 Q32.4621 1076.59 32.4621 1080.91 Q32.4621 1085.82 35.2312 1088.78 Q38.0002 1091.7 43.0292 1092.15 L42.9973 1071.27 Z" fill="#000000" fill-rule="evenodd" fill-opacity="1" /><path clip-path="url(#clip710)" d="M 0 0 M16.4842 1038.3 L16.4842 1031.87 L64.0042 1031.87 L64.0042 1038.3 L16.4842 1038.3 Z" fill="#000000" fill-rule="evenodd" fill-opacity="1" /><path clip-path="url(#clip710)" d="M 0 0 M42.4881 996.091 L64.0042 996.091 L64.0042 1001.95 L42.679 1001.95 Q37.6183 1001.95 35.1038 1003.92 Q32.5894 1005.89 32.5894 1009.84 Q32.5894 1014.58 35.6131 1017.32 Q38.6368 1020.06 43.8567 1020.06 L64.0042 1020.06 L64.0042 1025.95 L28.3562 1025.95 L28.3562 1020.06 L33.8944 1020.06 Q30.6797 1017.96 29.0883 1015.12 Q27.4968 1012.26 27.4968 1008.54 Q27.4968 1002.39 31.3163 999.242 Q35.1038 996.091 42.4881 996.091 Z" fill="#000000" fill-rule="evenodd" fill-opacity="1" /><path clip-path="url(#clip710)" d="M 0 0 M29.7248 964.294 L35.1993 964.294 Q33.8307 966.777 33.1623 969.291 Q32.4621 971.774 32.4621 974.32 Q32.4621 980.018 36.0905 983.169 Q39.6872 986.32 46.212 986.32 Q52.7369 986.32 56.3653 983.169 Q59.9619 980.018 59.9619 974.32 Q59.9619 971.774 59.2935 969.291 Q58.5933 966.777 57.2247 964.294 L62.6355 964.294 Q63.7814 966.745 64.3543 969.387 Q64.9272 971.997 64.9272 974.957 Q64.9272 983.009 59.8664 987.752 Q54.8057 992.494 46.212 992.494 Q37.491 992.494 32.4939 987.72 Q27.4968 982.914 27.4968 974.575 Q27.4968 971.869 28.0697 969.291 Q28.6108 966.713 29.7248 964.294 Z" fill="#000000" fill-rule="evenodd" fill-opacity="1" /><path clip-path="url(#clip710)" d="M 0 0 M33.8307 937.495 Q33.2578 938.481 33.0032 939.659 Q32.7167 940.805 32.7167 942.205 Q32.7167 947.171 35.9632 949.844 Q39.1779 952.486 45.2253 952.486 L64.0042 952.486 L64.0042 958.374 L28.3562 958.374 L28.3562 952.486 L33.8944 952.486 Q30.6479 950.64 29.0883 947.68 Q27.4968 944.72 27.4968 940.487 Q27.4968 939.882 27.5923 939.15 Q27.656 938.418 27.8151 937.526 L33.8307 937.495 Z" fill="#000000" fill-rule="evenodd" fill-opacity="1" /><path clip-path="url(#clip710)" d="M 0 0 M44.7161 902.292 L47.5806 902.292 L47.5806 929.219 Q53.6281 928.837 56.8109 925.591 Q59.9619 922.312 59.9619 916.488 Q59.9619 913.114 59.1344 909.963 Q58.3069 906.78 56.6518 903.661 L62.1899 903.661 Q63.5267 906.812 64.227 910.122 Q64.9272 913.432 64.9272 916.838 Q64.9272 925.368 59.9619 930.365 Q54.9967 935.33 46.5303 935.33 Q37.7774 935.33 32.6531 930.62 Q27.4968 925.877 27.4968 917.856 Q27.4968 910.663 32.1438 906.494 Q36.7589 902.292 44.7161 902.292 M42.9973 908.149 Q38.1912 908.212 35.3266 910.854 Q32.4621 913.464 32.4621 917.793 Q32.4621 922.694 35.2312 925.654 Q38.0002 928.583 43.0292 929.028 L42.9973 908.149 Z" fill="#000000" fill-rule="evenodd" fill-opacity="1" /><path clip-path="url(#clip710)" d="M 0 0 M46.0847 879.949 Q46.0847 887.046 47.7079 889.784 Q49.3312 892.521 53.2461 892.521 Q56.3653 892.521 58.2114 890.484 Q60.0256 888.415 60.0256 884.882 Q60.0256 880.012 56.5881 877.084 Q53.1188 874.124 47.3897 874.124 L46.0847 874.124 L46.0847 879.949 M43.6657 868.268 L64.0042 868.268 L64.0042 874.124 L58.5933 874.124 Q61.8398 876.129 63.3994 879.121 Q64.9272 882.113 64.9272 886.442 Q64.9272 891.916 61.8716 895.163 Q58.7843 898.377 53.6281 898.377 Q47.6125 898.377 44.5569 894.367 Q41.5014 890.325 41.5014 882.336 L41.5014 874.124 L40.9285 874.124 Q36.8862 874.124 34.6901 876.798 Q32.4621 879.439 32.4621 884.246 Q32.4621 887.301 33.1941 890.197 Q33.9262 893.094 35.3903 895.767 L29.9795 895.767 Q28.7381 892.553 28.1334 889.529 Q27.4968 886.505 27.4968 883.641 Q27.4968 875.906 31.5072 872.087 Q35.5176 868.268 43.6657 868.268 Z" fill="#000000" fill-rule="evenodd" fill-opacity="1" /><path clip-path="url(#clip710)" d="M 0 0 M29.4065 839.399 L34.9447 839.399 Q33.6716 841.882 33.035 844.555 Q32.3984 847.229 32.3984 850.094 Q32.3984 854.454 33.7352 856.65 Q35.072 858.815 37.7456 858.815 Q39.7826 858.815 40.9603 857.255 Q42.1061 855.695 43.1565 850.985 L43.6021 848.98 Q44.9389 842.741 47.3897 840.131 Q49.8086 837.489 54.1691 837.489 Q59.1344 837.489 62.0308 841.436 Q64.9272 845.351 64.9272 852.226 Q64.9272 855.091 64.3543 858.21 Q63.8132 861.297 62.6992 864.735 L56.6518 864.735 Q58.3387 861.488 59.198 858.337 Q60.0256 855.186 60.0256 852.099 Q60.0256 847.961 58.6251 845.733 Q57.1929 843.505 54.6147 843.505 Q52.2276 843.505 50.9545 845.128 Q49.6813 846.72 48.5037 852.162 L48.0262 854.199 Q46.8804 859.642 44.5251 862.061 Q42.138 864.48 38.0002 864.48 Q32.9713 864.48 30.2341 860.915 Q27.4968 857.35 27.4968 850.794 Q27.4968 847.547 27.9743 844.683 Q28.4517 841.818 29.4065 839.399 Z" fill="#000000" fill-rule="evenodd" fill-opacity="1" /><path clip-path="url(#clip710)" d="M 0 0 M44.7161 800.855 L47.5806 800.855 L47.5806 827.782 Q53.6281 827.4 56.8109 824.153 Q59.9619 820.875 59.9619 815.05 Q59.9619 811.676 59.1344 808.525 Q58.3069 805.343 56.6518 802.223 L62.1899 802.223 Q63.5267 805.374 64.227 808.685 Q64.9272 811.995 64.9272 815.4 Q64.9272 823.93 59.9619 828.928 Q54.9967 833.893 46.5303 833.893 Q37.7774 833.893 32.6531 829.182 Q27.4968 824.44 27.4968 816.419 Q27.4968 809.226 32.1438 805.056 Q36.7589 800.855 44.7161 800.855 M42.9973 806.711 Q38.1912 806.775 35.3266 809.417 Q32.4621 812.027 32.4621 816.355 Q32.4621 821.257 35.2312 824.217 Q38.0002 827.145 43.0292 827.591 L42.9973 806.711 Z" fill="#000000" fill-rule="evenodd" fill-opacity="1" /><path clip-path="url(#clip710)" d="M 0 0 M14.5426 759.923 Q21.8632 764.188 29.0246 766.257 Q36.186 768.326 43.5384 768.326 Q50.8908 768.326 58.1159 766.257 Q65.3091 764.156 72.5979 759.923 L72.5979 765.016 Q65.1182 769.79 57.8931 772.177 Q50.668 774.533 43.5384 774.533 Q36.4406 774.533 29.2474 772.177 Q22.0542 769.822 14.5426 765.016 L14.5426 759.923 Z" fill="#000000" fill-rule="evenodd" fill-opacity="1" /><path clip-path="url(#clip710)" d="M 0 0 M20.1444 717.941 L26.9239 717.941 Q23.9002 721.188 22.4043 724.88 Q20.9083 728.54 20.9083 732.678 Q20.9083 740.826 25.9054 745.155 Q30.8707 749.484 40.2919 749.484 Q49.6813 749.484 54.6784 745.155 Q59.6436 740.826 59.6436 732.678 Q59.6436 728.54 58.1477 724.88 Q56.6518 721.188 53.6281 717.941 L60.3439 717.941 Q62.6355 721.315 63.7814 725.103 Q64.9272 728.859 64.9272 733.06 Q64.9272 743.85 58.3387 750.056 Q51.7183 756.263 40.2919 756.263 Q28.8336 756.263 22.2451 750.056 Q15.6248 743.85 15.6248 733.06 Q15.6248 728.795 16.7706 725.039 Q17.8846 721.252 20.1444 717.941 Z" fill="#000000" fill-rule="evenodd" fill-opacity="1" /><path clip-path="url(#clip710)" d="M 0 0 M22.818 674.941 L46.4666 683.662 L46.4666 666.188 L22.818 674.941 M16.4842 678.57 L16.4842 671.281 L64.0042 653.17 L64.0042 659.854 L51.8138 664.183 L51.8138 685.604 L64.0042 689.932 L64.0042 696.712 L16.4842 678.57 Z" fill="#000000" fill-rule="evenodd" fill-opacity="1" /><path clip-path="url(#clip710)" d="M 0 0 M46.212 621.437 Q39.7508 621.437 36.0905 624.111 Q32.3984 626.753 32.3984 631.4 Q32.3984 636.047 36.0905 638.72 Q39.7508 641.362 46.212 641.362 Q52.6732 641.362 56.3653 638.72 Q60.0256 636.047 60.0256 631.4 Q60.0256 626.753 56.3653 624.111 Q52.6732 621.437 46.212 621.437 M33.7671 641.362 Q30.5842 639.516 29.0564 636.715 Q27.4968 633.882 27.4968 629.967 Q27.4968 623.474 32.6531 619.432 Q37.8093 615.358 46.212 615.358 Q54.6147 615.358 59.771 619.432 Q64.9272 623.474 64.9272 629.967 Q64.9272 633.882 63.3994 636.715 Q61.8398 639.516 58.657 641.362 L64.0042 641.362 L64.0042 647.25 L14.479 647.25 L14.479 641.362 L33.7671 641.362 Z" fill="#000000" fill-rule="evenodd" fill-opacity="1" /><path clip-path="url(#clip710)" d="M 0 0 M32.4621 595.402 Q32.4621 600.112 36.1542 602.849 Q39.8145 605.587 46.212 605.587 Q52.6095 605.587 56.3017 602.881 Q59.9619 600.144 59.9619 595.402 Q59.9619 590.723 56.2698 587.986 Q52.5777 585.248 46.212 585.248 Q39.8781 585.248 36.186 587.986 Q32.4621 590.723 32.4621 595.402 M27.4968 595.402 Q27.4968 587.763 32.4621 583.402 Q37.4273 579.042 46.212 579.042 Q54.9649 579.042 59.9619 583.402 Q64.9272 587.763 64.9272 595.402 Q64.9272 603.072 59.9619 607.433 Q54.9649 611.761 46.212 611.761 Q37.4273 611.761 32.4621 607.433 Q27.4968 603.072 27.4968 595.402 Z" fill="#000000" fill-rule="evenodd" fill-opacity="1" /><path clip-path="url(#clip710)" d="M 0 0 M28.3562 577.1 L28.3562 570.894 L58.275 559.754 L28.3562 548.614 L28.3562 542.407 L64.0042 555.775 L64.0042 563.732 L28.3562 577.1 Z" fill="#000000" fill-rule="evenodd" fill-opacity="1" /><path clip-path="url(#clip710)" d="M 0 0 M44.7161 505.772 L47.5806 505.772 L47.5806 532.699 Q53.6281 532.317 56.8109 529.071 Q59.9619 525.793 59.9619 519.968 Q59.9619 516.594 59.1344 513.443 Q58.3069 510.26 56.6518 507.141 L62.1899 507.141 Q63.5267 510.292 64.227 513.602 Q64.9272 516.912 64.9272 520.318 Q64.9272 528.848 59.9619 533.845 Q54.9967 538.81 46.5303 538.81 Q37.7774 538.81 32.6531 534.1 Q27.4968 529.357 27.4968 521.337 Q27.4968 514.143 32.1438 509.974 Q36.7589 505.772 44.7161 505.772 M42.9973 511.629 Q38.1912 511.693 35.3266 514.334 Q32.4621 516.944 32.4621 521.273 Q32.4621 526.175 35.2312 529.135 Q38.0002 532.063 43.0292 532.508 L42.9973 511.629 Z" fill="#000000" fill-rule="evenodd" fill-opacity="1" /><path clip-path="url(#clip710)" d="M 0 0 M21.7677 472.225 L39.6235 472.225 L39.6235 464.141 Q39.6235 459.653 37.3 457.202 Q34.9765 454.751 30.6797 454.751 Q26.4147 454.751 24.0912 457.202 Q21.7677 459.653 21.7677 464.141 L21.7677 472.225 M16.4842 478.655 L16.4842 464.141 Q16.4842 456.152 20.1126 452.078 Q23.7092 447.972 30.6797 447.972 Q37.7138 447.972 41.3104 452.078 Q44.907 456.152 44.907 464.141 L44.907 472.225 L64.0042 472.225 L64.0042 478.655 L16.4842 478.655 Z" fill="#000000" fill-rule="evenodd" fill-opacity="1" /><path clip-path="url(#clip710)" d="M 0 0 M33.8307 422.318 Q33.2578 423.305 33.0032 424.482 Q32.7167 425.628 32.7167 427.029 Q32.7167 431.994 35.9632 434.667 Q39.1779 437.309 45.2253 437.309 L64.0042 437.309 L64.0042 443.198 L28.3562 443.198 L28.3562 437.309 L33.8944 437.309 Q30.6479 435.463 29.0883 432.503 Q27.4968 429.543 27.4968 425.31 Q27.4968 424.705 27.5923 423.973 Q27.656 423.241 27.8151 422.35 L33.8307 422.318 Z" fill="#000000" fill-rule="evenodd" fill-opacity="1" /><path clip-path="url(#clip710)" d="M 0 0 M44.7161 387.116 L47.5806 387.116 L47.5806 414.043 Q53.6281 413.661 56.8109 410.414 Q59.9619 407.136 59.9619 401.311 Q59.9619 397.937 59.1344 394.786 Q58.3069 391.603 56.6518 388.484 L62.1899 388.484 Q63.5267 391.635 64.227 394.945 Q64.9272 398.256 64.9272 401.661 Q64.9272 410.191 59.9619 415.188 Q54.9967 420.154 46.5303 420.154 Q37.7774 420.154 32.6531 415.443 Q27.4968 410.701 27.4968 402.68 Q27.4968 395.487 32.1438 391.317 Q36.7589 387.116 44.7161 387.116 M42.9973 392.972 Q38.1912 393.036 35.3266 395.678 Q32.4621 398.287 32.4621 402.616 Q32.4621 407.518 35.2312 410.478 Q38.0002 413.406 43.0292 413.852 L42.9973 392.972 Z" fill="#000000" fill-rule="evenodd" fill-opacity="1" /><path clip-path="url(#clip710)" d="M 0 0 M43.5384 383.933 L43.5384 366.777 L48.7583 366.777 L48.7583 383.933 L43.5384 383.933 Z" fill="#000000" fill-rule="evenodd" fill-opacity="1" /><path clip-path="url(#clip710)" d="M 0 0 M16.4842 360.38 L16.4842 353.95 L64.0042 353.95 L64.0042 360.38 L16.4842 360.38 Z" fill="#000000" fill-rule="evenodd" fill-opacity="1" /><path clip-path="url(#clip710)" d="M 0 0 M42.4881 318.175 L64.0042 318.175 L64.0042 324.032 L42.679 324.032 Q37.6183 324.032 35.1038 326.005 Q32.5894 327.978 32.5894 331.925 Q32.5894 336.667 35.6131 339.405 Q38.6368 342.142 43.8567 342.142 L64.0042 342.142 L64.0042 348.03 L28.3562 348.03 L28.3562 342.142 L33.8944 342.142 Q30.6797 340.041 29.0883 337.209 Q27.4968 334.344 27.4968 330.62 Q27.4968 324.477 31.3163 321.326 Q35.1038 318.175 42.4881 318.175 Z" fill="#000000" fill-rule="evenodd" fill-opacity="1" /><path clip-path="url(#clip710)" d="M 0 0 M33.7671 288.575 L14.479 288.575 L14.479 282.718 L64.0042 282.718 L64.0042 288.575 L58.657 288.575 Q61.8398 290.421 63.3994 293.253 Q64.9272 296.054 64.9272 300.001 Q64.9272 306.462 59.771 310.536 Q54.6147 314.578 46.212 314.578 Q37.8093 314.578 32.6531 310.536 Q27.4968 306.462 27.4968 300.001 Q27.4968 296.054 29.0564 293.253 Q30.5842 290.421 33.7671 288.575 M46.212 308.531 Q52.6732 308.531 56.3653 305.889 Q60.0256 303.216 60.0256 298.569 Q60.0256 293.922 56.3653 291.248 Q52.6732 288.575 46.212 288.575 Q39.7508 288.575 36.0905 291.248 Q32.3984 293.922 32.3984 298.569 Q32.3984 303.216 36.0905 305.889 Q39.7508 308.531 46.212 308.531 Z" fill="#000000" fill-rule="evenodd" fill-opacity="1" /><path clip-path="url(#clip710)" d="M 0 0 M49.9359 277.18 L28.3562 277.18 L28.3562 271.323 L49.7131 271.323 Q54.7739 271.323 57.3202 269.35 Q59.8346 267.377 59.8346 263.43 Q59.8346 258.688 56.8109 255.95 Q53.7872 253.181 48.5673 253.181 L28.3562 253.181 L28.3562 247.325 L64.0042 247.325 L64.0042 253.181 L58.5296 253.181 Q61.7762 255.314 63.3676 258.146 Q64.9272 260.947 64.9272 264.671 Q64.9272 270.814 61.1078 273.997 Q57.2883 277.18 49.9359 277.18 M27.4968 262.443 L27.4968 262.443 Z" fill="#000000" fill-rule="evenodd" fill-opacity="1" /><path clip-path="url(#clip710)" d="M 0 0 M29.4065 218.456 L34.9447 218.456 Q33.6716 220.939 33.035 223.612 Q32.3984 226.286 32.3984 229.151 Q32.3984 233.511 33.7352 235.707 Q35.072 237.872 37.7456 237.872 Q39.7826 237.872 40.9603 236.312 Q42.1061 234.752 43.1565 230.042 L43.6021 228.037 Q44.9389 221.798 47.3897 219.188 Q49.8086 216.547 54.1691 216.547 Q59.1344 216.547 62.0308 220.493 Q64.9272 224.408 64.9272 231.283 Q64.9272 234.148 64.3543 237.267 Q63.8132 240.354 62.6992 243.792 L56.6518 243.792 Q58.3387 240.545 59.198 237.394 Q60.0256 234.243 60.0256 231.156 Q60.0256 227.018 58.6251 224.79 Q57.1929 222.562 54.6147 222.562 Q52.2276 222.562 50.9545 224.185 Q49.6813 225.777 48.5037 231.22 L48.0262 233.257 Q46.8804 238.699 44.5251 241.118 Q42.138 243.537 38.0002 243.537 Q32.9713 243.537 30.2341 239.972 Q27.4968 236.408 27.4968 229.851 Q27.4968 226.604 27.9743 223.74 Q28.4517 220.875 29.4065 218.456 Z" fill="#000000" fill-rule="evenodd" fill-opacity="1" /><path clip-path="url(#clip710)" d="M 0 0 M18.2347 204.611 L28.3562 204.611 L28.3562 192.548 L32.9077 192.548 L32.9077 204.611 L52.2594 204.611 Q56.6199 204.611 57.8613 203.433 Q59.1026 202.224 59.1026 198.563 L59.1026 192.548 L64.0042 192.548 L64.0042 198.563 Q64.0042 205.343 61.4897 207.921 Q58.9434 210.499 52.2594 210.499 L32.9077 210.499 L32.9077 214.796 L28.3562 214.796 L28.3562 210.499 L18.2347 210.499 L18.2347 204.611 Z" fill="#000000" fill-rule="evenodd" fill-opacity="1" /><path clip-path="url(#clip710)" d="M 0 0 M33.8307 165.748 Q33.2578 166.735 33.0032 167.913 Q32.7167 169.058 32.7167 170.459 Q32.7167 175.424 35.9632 178.098 Q39.1779 180.739 45.2253 180.739 L64.0042 180.739 L64.0042 186.628 L28.3562 186.628 L28.3562 180.739 L33.8944 180.739 Q30.6479 178.893 29.0883 175.933 Q27.4968 172.973 27.4968 168.74 Q27.4968 168.135 27.5923 167.403 Q27.656 166.671 27.8151 165.78 L33.8307 165.748 Z" fill="#000000" fill-rule="evenodd" fill-opacity="1" /><path clip-path="url(#clip710)" d="M 0 0 M28.3562 159.605 L28.3562 153.749 L64.0042 153.749 L64.0042 159.605 L28.3562 159.605 M14.479 159.605 L14.479 153.749 L21.895 153.749 L21.895 159.605 L14.479 159.605 Z" fill="#000000" fill-rule="evenodd" fill-opacity="1" /><path clip-path="url(#clip710)" d="M 0 0 M46.0847 131.405 Q46.0847 138.503 47.7079 141.24 Q49.3312 143.978 53.2461 143.978 Q56.3653 143.978 58.2114 141.94 Q60.0256 139.872 60.0256 136.339 Q60.0256 131.469 56.5881 128.541 Q53.1188 125.581 47.3897 125.581 L46.0847 125.581 L46.0847 131.405 M43.6657 119.724 L64.0042 119.724 L64.0042 125.581 L58.5933 125.581 Q61.8398 127.586 63.3994 130.578 Q64.9272 133.57 64.9272 137.898 Q64.9272 143.373 61.8716 146.619 Q58.7843 149.834 53.6281 149.834 Q47.6125 149.834 44.5569 145.824 Q41.5014 141.781 41.5014 133.792 L41.5014 125.581 L40.9285 125.581 Q36.8862 125.581 34.6901 128.254 Q32.4621 130.896 32.4621 135.702 Q32.4621 138.758 33.1941 141.654 Q33.9262 144.55 35.3903 147.224 L29.9795 147.224 Q28.7381 144.009 28.1334 140.986 Q27.4968 137.962 27.4968 135.097 Q27.4968 127.363 31.5072 123.544 Q35.5176 119.724 43.6657 119.724 Z" fill="#000000" fill-rule="evenodd" fill-opacity="1" /><path clip-path="url(#clip710)" d="M 0 0 M14.479 113.581 L14.479 107.725 L64.0042 107.725 L64.0042 113.581 L14.479 113.581 Z" fill="#000000" fill-rule="evenodd" fill-opacity="1" /><path clip-path="url(#clip710)" d="M 0 0 M14.5426 102.505 L14.5426 97.4124 Q22.0542 92.6381 29.2474 90.2828 Q36.4406 87.8956 43.5384 87.8956 Q50.668 87.8956 57.8931 90.2828 Q65.1182 92.6381 72.5979 97.4124 L72.5979 102.505 Q65.3091 98.2717 58.1159 96.2029 Q50.8908 94.1022 43.5384 94.1022 Q36.186 94.1022 29.0246 96.2029 Q21.8632 98.2717 14.5426 102.505 Z" fill="#000000" fill-rule="evenodd" fill-opacity="1" /><polyline clip-path="url(#clip712)" style="stroke:#000000; stroke-width:8; stroke-opacity:1; fill:none" points="
  272.988,1445.72 292.98,1436.83 312.972,1424.93 332.964,1410.41 352.956,1394.86 372.948,1379.35 392.94,1365.86 412.932,1354.13 432.924,1343.73 452.916,1333.38 
  472.908,1323.46 492.9,1313.35 512.892,1303.49 532.884,1293.09 552.876,1280.95 572.868,1266.36 592.86,1252.01 612.852,1236.99 632.844,1223.73 652.836,1210.69 
  672.828,1199.39 692.82,1189.38 712.812,1179.92 732.804,1169.94 752.796,1159 772.788,1146.66 792.78,1131.66 812.772,1115.31 832.764,1097.68 852.756,1080.62 
  872.748,1065.66 892.74,1053.09 912.732,1041.42 932.724,1030.36 952.716,1019.49 972.708,1007.72 992.7,994.165 1012.69,978.849 1032.68,963.773 1052.68,948.626 
  1072.67,933.509 1092.66,919.98 1112.65,907.041 1132.64,894.351 1152.64,881.213 1172.63,867.5 1192.62,852.789 1212.61,835.85 1232.6,817.34 1252.6,798.299 
  1272.59,780.155 1292.58,763.352 1312.57,748.284 1332.56,733.839 1352.56,719.705 1372.55,706.071 1392.54,692.389 1412.53,678.686 1432.52,664.236 1452.52,648.444 
  1472.51,631.509 1492.5,614.056 1512.49,597.248 1532.48,581.135 1552.48,566.507 1572.47,552.615 1592.46,540.303 1612.45,528.648 1632.44,516.838 1652.44,504.772 
  1672.43,491.554 1692.42,476.745 1712.41,461.158 1732.4,444.513 1752.4,429.471 1772.39,416.402 1792.38,404.578 1812.37,393.936 1832.36,383.305 1852.36,372.657 
  1872.35,360.938 1892.34,347.58 1912.33,332.699 1932.32,318.365 1952.32,304.447 1972.31,291.453 1992.3,279.857 2012.29,268.747 2032.28,257.865 2052.28,246.571 
  2072.27,234.463 2092.26,220.77 2112.25,204.352 2132.24,188.493 2152.24,173.03 2172.23,159.634 2192.22,146.751 2212.21,135.18 2232.2,123.967 2252.2,112.799 
  2272.19,101.197 2292.18,87.9763 
  "/>
<polyline clip-path="url(#clip712)" style="stroke:#008000; stroke-width:8; stroke-opacity:1; fill:none" stroke-dasharray="32, 20" points="
  272.988,1445.72 292.98,1437.65 312.972,1427.82 332.964,1416.25 352.956,1404.26 372.948,1392.68 392.94,1383.36 412.932,1375.91 432.924,1369.83 452.916,1363.75 
  472.908,1358.03 492.9,1352.02 512.892,1346.13 532.884,1339.56 552.876,1331.11 572.868,1320.06 592.86,1309.12 612.852,1297.36 632.844,1287.24 652.836,1277.2 
  672.828,1268.79 692.82,1261.55 712.812,1254.75 732.804,1247.33 752.796,1238.85 772.788,1228.9 792.78,1216.21 812.772,1202.09 832.764,1186.63 852.756,1171.66 
  872.748,1158.75 892.74,1148.16 912.732,1138.43 932.724,1129.26 952.716,1120.23 972.708,1110.27 992.7,1098.48 1012.69,1084.9 1032.68,1071.52 1052.68,1058.04 
  1072.67,1044.55 1092.66,1032.63 1112.65,1021.27 1132.64,1010.14 1152.64,998.541 1172.63,986.348 1192.62,973.138 1212.61,957.684 1232.6,940.643 1252.6,923.058 
  1272.59,906.356 1292.58,890.982 1312.57,877.331 1332.56,864.293 1352.56,851.559 1372.55,839.319 1392.54,827.026 1412.53,814.707 1432.52,801.637 1452.52,787.22 
  1472.51,771.658 1492.5,755.572 1512.49,740.131 1532.48,725.394 1552.48,712.153 1572.47,699.664 1592.46,688.773 1612.45,678.56 1632.44,668.211 1652.44,657.627 
  1672.43,645.913 1692.42,632.629 1712.41,618.583 1732.4,603.488 1752.4,589.998 1772.39,578.479 1792.38,568.199 1812.37,559.093 1832.36,549.989 1852.36,540.856 
  1872.35,530.643 1892.34,518.779 1912.33,505.378 1932.32,492.505 1952.32,480.025 1972.31,468.446 1992.3,458.239 2012.29,448.492 2032.28,438.948 2052.28,428.966 
  2072.27,418.144 2092.26,405.714 2112.25,390.535 2132.24,375.893 2152.24,361.625 2172.23,349.403 2192.22,337.675 2212.21,327.239 2232.2,317.143 2252.2,307.076 
  2272.19,296.558 2292.18,284.407 
  "/>
<path clip-path="url(#clip710)" d="
M283.757 276.658 L652.753 276.658 L652.753 95.2176 L283.757 95.2176  Z
  " fill="#ffffff" fill-rule="evenodd" fill-opacity="1"/>
<polyline clip-path="url(#clip710)" style="stroke:#000000; stroke-width:4; stroke-opacity:1; fill:none" points="
  283.757,276.658 652.753,276.658 652.753,95.2176 283.757,95.2176 283.757,276.658 
  "/>
<polyline clip-path="url(#clip710)" style="stroke:#000000; stroke-width:4; stroke-opacity:1; fill:none" points="
  307.539,155.698 450.229,155.698 
  "/>
<path clip-path="url(#clip710)" d="M 0 0 M478.686 156.473 L478.686 169.135 L486.186 169.135 Q489.959 169.135 491.765 167.584 Q493.593 166.01 493.593 162.792 Q493.593 159.552 491.765 158.024 Q489.959 156.473 486.186 156.473 L478.686 156.473 M478.686 142.26 L478.686 152.677 L485.607 152.677 Q489.033 152.677 490.7 151.404 Q492.39 150.107 492.39 147.468 Q492.39 144.853 490.7 143.556 Q489.033 142.26 485.607 142.26 L478.686 142.26 M474.01 138.418 L485.954 138.418 Q491.302 138.418 494.195 140.64 Q497.089 142.862 497.089 146.959 Q497.089 150.13 495.607 152.005 Q494.126 153.88 491.255 154.343 Q494.704 155.084 496.603 157.445 Q498.524 159.783 498.524 163.302 Q498.524 167.931 495.376 170.454 Q492.228 172.978 486.417 172.978 L474.01 172.978 L474.01 138.418 Z" fill="#000000" fill-rule="evenodd" fill-opacity="1" /><path clip-path="url(#clip710)" d="M 0 0 M514.727 143.024 L508.385 160.223 L521.093 160.223 L514.727 143.024 M512.089 138.418 L517.39 138.418 L530.561 172.978 L525.7 172.978 L522.552 164.112 L506.973 164.112 L503.825 172.978 L498.894 172.978 L512.089 138.418 Z" fill="#000000" fill-rule="evenodd" fill-opacity="1" /><path clip-path="url(#clip710)" d="M 0 0 M534.681 138.418 L539.38 138.418 L539.38 159.413 Q539.38 164.968 541.394 167.422 Q543.408 169.853 547.922 169.853 Q552.412 169.853 554.426 167.422 Q556.44 164.968 556.44 159.413 L556.44 138.418 L561.139 138.418 L561.139 159.992 Q561.139 166.751 557.783 170.2 Q554.45 173.649 547.922 173.649 Q541.371 173.649 538.014 170.2 Q534.681 166.751 534.681 159.992 L534.681 138.418 Z" fill="#000000" fill-rule="evenodd" fill-opacity="1" /><polyline clip-path="url(#clip710)" style="stroke:#008000; stroke-width:4; stroke-opacity:1; fill:none" stroke-dasharray="16, 10" points="
  307.539,216.178 450.229,216.178 
  "/>
<path clip-path="url(#clip710)" d="M 0 0 M487.204 233.458 L474.01 198.898 L478.894 198.898 L489.843 227.995 L500.816 198.898 L505.677 198.898 L492.505 233.458 L487.204 233.458 Z" fill="#000000" fill-rule="evenodd" fill-opacity="1" /><path clip-path="url(#clip710)" d="M 0 0 M528.639 219.43 L528.639 221.513 L509.056 221.513 Q509.334 225.911 511.695 228.226 Q514.079 230.518 518.315 230.518 Q520.769 230.518 523.061 229.916 Q525.376 229.314 527.644 228.11 L527.644 232.138 Q525.352 233.11 522.945 233.62 Q520.538 234.129 518.061 234.129 Q511.857 234.129 508.223 230.518 Q504.612 226.907 504.612 220.749 Q504.612 214.384 508.038 210.657 Q511.487 206.907 517.32 206.907 Q522.552 206.907 525.584 210.286 Q528.639 213.643 528.639 219.43 M524.38 218.18 Q524.334 214.685 522.413 212.601 Q520.514 210.518 517.366 210.518 Q513.802 210.518 511.649 212.532 Q509.519 214.546 509.195 218.203 L524.38 218.18 Z" fill="#000000" fill-rule="evenodd" fill-opacity="1" /><path clip-path="url(#clip710)" d="M 0 0 M550.167 220.194 Q550.167 215.564 548.246 213.018 Q546.348 210.472 542.899 210.472 Q539.473 210.472 537.551 213.018 Q535.653 215.564 535.653 220.194 Q535.653 224.8 537.551 227.346 Q539.473 229.893 542.899 229.893 Q546.348 229.893 548.246 227.346 Q550.167 224.8 550.167 220.194 M554.426 230.24 Q554.426 236.86 551.487 240.078 Q548.547 243.319 542.482 243.319 Q540.237 243.319 538.246 242.971 Q536.255 242.647 534.38 241.953 L534.38 237.809 Q536.255 238.828 538.084 239.314 Q539.913 239.8 541.811 239.8 Q546 239.8 548.084 237.601 Q550.167 235.425 550.167 231.004 L550.167 228.897 Q548.848 231.189 546.788 232.323 Q544.727 233.458 541.857 233.458 Q537.088 233.458 534.172 229.823 Q531.255 226.189 531.255 220.194 Q531.255 214.175 534.172 210.541 Q537.088 206.907 541.857 206.907 Q544.727 206.907 546.788 208.041 Q548.848 209.175 550.167 211.467 L550.167 207.532 L554.426 207.532 L554.426 230.24 Z" fill="#000000" fill-rule="evenodd" fill-opacity="1" /><path clip-path="url(#clip710)" d="M 0 0 M570.676 220.425 Q565.514 220.425 563.524 221.606 Q561.533 222.786 561.533 225.634 Q561.533 227.902 563.014 229.245 Q564.519 230.564 567.088 230.564 Q570.63 230.564 572.76 228.064 Q574.912 225.541 574.912 221.374 L574.912 220.425 L570.676 220.425 M579.172 218.666 L579.172 233.458 L574.912 233.458 L574.912 229.522 Q573.454 231.883 571.278 233.018 Q569.102 234.129 565.954 234.129 Q561.973 234.129 559.612 231.907 Q557.274 229.661 557.274 225.911 Q557.274 221.536 560.19 219.314 Q563.13 217.092 568.94 217.092 L574.912 217.092 L574.912 216.675 Q574.912 213.735 572.968 212.138 Q571.047 210.518 567.551 210.518 Q565.329 210.518 563.223 211.05 Q561.116 211.583 559.172 212.647 L559.172 208.712 Q561.51 207.81 563.709 207.37 Q565.908 206.907 567.991 206.907 Q573.616 206.907 576.394 209.823 Q579.172 212.74 579.172 218.666 Z" fill="#000000" fill-rule="evenodd" fill-opacity="1" /><path clip-path="url(#clip710)" d="M 0 0 M605.19 217.809 L605.19 233.458 L600.931 233.458 L600.931 217.948 Q600.931 214.268 599.496 212.439 Q598.06 210.61 595.19 210.61 Q591.741 210.61 589.75 212.81 Q587.76 215.009 587.76 218.805 L587.76 233.458 L583.477 233.458 L583.477 207.532 L587.76 207.532 L587.76 211.56 Q589.287 209.222 591.347 208.064 Q593.431 206.907 596.139 206.907 Q600.607 206.907 602.898 209.685 Q605.19 212.439 605.19 217.809 Z" fill="#000000" fill-rule="evenodd" fill-opacity="1" /></svg>
