<?xml version="1.0" encoding="utf-8"?>
<svg xmlns="http://www.w3.org/2000/svg" xmlns:xlink="http://www.w3.org/1999/xlink" width="600" height="400" viewBox="0 0 2400 1600">
<defs>
  <clipPath id="clip5200">
    <rect x="0" y="0" width="2400" height="1600"/>
  </clipPath>
</defs>
<path clip-path="url(#clip5200)" d="
M0 1600 L2400 1600 L2400 0 L0 0  Z
  " fill="#ffffff" fill-rule="evenodd" fill-opacity="1"/>
<defs>
  <clipPath id="clip5201">
    <rect x="480" y="0" width="1681" height="1600"/>
  </clipPath>
</defs>
<path clip-path="url(#clip5200)" d="
M215.754 1487.47 L2352.76 1487.47 L2352.76 47.2441 L215.754 47.2441  Z
  " fill="#ffffff" fill-rule="evenodd" fill-opacity="1"/>
<defs>
  <clipPath id="clip5202">
    <rect x="215" y="47" width="2138" height="1441"/>
  </clipPath>
</defs>
<polyline clip-path="url(#clip5200)" style="stroke:#000000; stroke-width:4; stroke-opacity:1; fill:none" points="
  215.754,1487.47 2352.76,1487.47 
  "/>
<polyline clip-path="url(#clip5200)" style="stroke:#000000; stroke-width:4; stroke-opacity:1; fill:none" points="
  215.754,1487.47 215.754,47.2441 
  "/>
<polyline clip-path="url(#clip5200)" style="stroke:#000000; stroke-width:4; stroke-opacity:1; fill:none" points="
  377.037,1487.47 377.037,1470.19 
  "/>
<polyline clip-path="url(#clip5200)" style="stroke:#000000; stroke-width:4; stroke-opacity:1; fill:none" points="
  881.047,1487.47 881.047,1470.19 
  "/>
<polyline clip-path="url(#clip5200)" style="stroke:#000000; stroke-width:4; stroke-opacity:1; fill:none" points="
  1385.06,1487.47 1385.06,1470.19 
  "/>
<polyline clip-path="url(#clip5200)" style="stroke:#000000; stroke-width:4; stroke-opacity:1; fill:none" points="
  1889.07,1487.47 1889.07,1470.19 
  "/>
<polyline clip-path="url(#clip5200)" style="stroke:#000000; stroke-width:4; stroke-opacity:1; fill:none" points="
  215.754,1326.36 241.398,1326.36 
  "/>
<polyline clip-path="url(#clip5200)" style="stroke:#000000; stroke-width:4; stroke-opacity:1; fill:none" points="
  215.754,1070.52 241.398,1070.52 
  "/>
<polyline clip-path="url(#clip5200)" style="stroke:#000000; stroke-width:4; stroke-opacity:1; fill:none" points="
  215.754,814.678 241.398,814.678 
  "/>
<polyline clip-path="url(#clip5200)" style="stroke:#000000; stroke-width:4; stroke-opacity:1; fill:none" points="
  215.754,558.838 241.398,558.838 
  "/>
<polyline clip-path="url(#clip5200)" style="stroke:#000000; stroke-width:4; stroke-opacity:1; fill:none" points="
  215.754,302.998 241.398,302.998 
  "/>
<g clip-path="url(#clip5200)">
<text style="fill:#000000; fill-opacity:1; font-family:Arial,Helvetica Neue,Helvetica,sans-serif; font-size:48px; text-anchor:middle;" transform="rotate(0, 377.037, 1541.47)" x="377.037" y="1541.47">2025</text>
</g>
<g clip-path="url(#clip5200)">
<text style="fill:#000000; fill-opacity:1; font-family:Arial,Helvetica Neue,Helvetica,sans-serif; font-size:48px; text-anchor:middle;" transform="rotate(0, 881.047, 1541.47)" x="881.047" y="1541.47">2050</text>
</g>
<g clip-path="url(#clip5200)">
<text style="fill:#000000; fill-opacity:1; font-family:Arial,Helvetica Neue,Helvetica,sans-serif; font-size:48px; text-anchor:middle;" transform="rotate(0, 1385.06, 1541.47)" x="1385.06" y="1541.47">2075</text>
</g>
<g clip-path="url(#clip5200)">
<text style="fill:#000000; fill-opacity:1; font-family:Arial,Helvetica Neue,Helvetica,sans-serif; font-size:48px; text-anchor:middle;" transform="rotate(0, 1889.07, 1541.47)" x="1889.07" y="1541.47">2100</text>
</g>
<g clip-path="url(#clip5200)">
<text style="fill:#000000; fill-opacity:1; font-family:Arial,Helvetica Neue,Helvetica,sans-serif; font-size:48px; text-anchor:end;" transform="rotate(0, 191.754, 1343.86)" x="191.754" y="1343.86">1.5</text>
</g>
<g clip-path="url(#clip5200)">
<text style="fill:#000000; fill-opacity:1; font-family:Arial,Helvetica Neue,Helvetica,sans-serif; font-size:48px; text-anchor:end;" transform="rotate(0, 191.754, 1088.02)" x="191.754" y="1088.02">2.0</text>
</g>
<g clip-path="url(#clip5200)">
<text style="fill:#000000; fill-opacity:1; font-family:Arial,Helvetica Neue,Helvetica,sans-serif; font-size:48px; text-anchor:end;" transform="rotate(0, 191.754, 832.178)" x="191.754" y="832.178">2.5</text>
</g>
<g clip-path="url(#clip5200)">
<text style="fill:#000000; fill-opacity:1; font-family:Arial,Helvetica Neue,Helvetica,sans-serif; font-size:48px; text-anchor:end;" transform="rotate(0, 191.754, 576.338)" x="191.754" y="576.338">3.0</text>
</g>
<g clip-path="url(#clip5200)">
<text style="fill:#000000; fill-opacity:1; font-family:Arial,Helvetica Neue,Helvetica,sans-serif; font-size:48px; text-anchor:end;" transform="rotate(0, 191.754, 320.498)" x="191.754" y="320.498">3.5</text>
</g>
<g clip-path="url(#clip5200)">
<text style="fill:#000000; fill-opacity:1; font-family:Arial,Helvetica Neue,Helvetica,sans-serif; font-size:66px; text-anchor:middle;" transform="rotate(-90, 89.2861, 767.359)" x="89.2861" y="767.359">Temperature Increase (C Above Pre-Industrial)</text>
</g>
<polyline clip-path="url(#clip5202)" style="stroke:#000000; stroke-width:8; stroke-opacity:1; fill:none" points="
  276.235,1445.89 296.396,1433.92 316.556,1419.3 336.716,1403.65 356.877,1388.04 377.037,1374.47 397.198,1362.66 417.358,1352.2 437.518,1341.78 457.679,1331.8 
  477.839,1321.63 498,1311.71 518.16,1301.25 538.32,1289.04 558.481,1274.35 578.641,1259.91 598.802,1244.79 618.962,1231.45 639.122,1218.32 659.283,1206.96 
  679.443,1196.89 699.604,1187.38 719.764,1177.33 739.924,1166.32 760.085,1153.91 780.245,1138.82 800.406,1122.36 820.566,1104.62 840.726,1087.44 860.887,1072.39 
  881.047,1059.74 901.207,1048 921.368,1036.87 941.528,1025.93 961.689,1014.1 981.849,1000.46 1002.01,985.041 1022.17,969.868 1042.33,954.624 1062.49,939.41 
  1082.65,925.796 1102.81,912.776 1122.97,900.006 1143.13,886.785 1163.29,872.985 1183.45,858.179 1203.61,841.127 1223.77,822.493 1243.93,803.324 1264.09,785.058 
  1284.25,768.143 1304.42,752.975 1324.58,738.435 1344.74,724.208 1364.9,710.484 1385.06,696.712 1405.22,682.918 1425.38,668.371 1445.54,652.472 1465.7,635.422 
  1485.86,617.849 1506.02,600.925 1526.18,584.702 1546.34,569.974 1566.5,555.987 1586.66,543.591 1606.82,531.857 1626.98,519.967 1647.14,507.817 1667.3,494.507 
  1687.46,479.593 1707.62,463.894 1727.78,447.131 1747.94,431.981 1768.1,418.819 1788.26,406.91 1808.43,396.193 1828.59,385.486 1848.75,374.761 1868.91,362.958 
  1889.07,349.504 1909.23,334.514 1929.39,320.076 1949.55,306.056 1969.71,292.968 1989.87,281.288 2010.03,270.097 2030.19,259.136 2050.35,247.76 2070.51,235.564 
  2090.67,221.771 2110.83,205.232 2130.99,189.257 2151.15,173.681 2171.31,160.187 2191.47,147.21 2211.63,135.554 2231.79,124.259 2251.95,113.01 2272.11,101.322 
  2292.27,88.0053 
  "/>
<polyline clip-path="url(#clip5202)" style="stroke:#008000; stroke-width:8; stroke-opacity:1; fill:none" stroke-dasharray="32, 20" points="
  276.235,1446.71 296.396,1436.83 316.556,1425.19 336.716,1413.12 356.877,1401.47 377.037,1392.1 397.198,1384.6 417.358,1378.48 437.518,1372.37 457.679,1366.62 
  477.839,1360.57 498,1354.64 518.16,1348.04 538.32,1339.53 558.481,1328.41 578.641,1317.4 598.802,1305.56 618.962,1295.37 639.122,1285.26 659.283,1276.8 
  679.443,1269.51 699.604,1262.67 719.764,1255.2 739.924,1246.67 760.085,1236.65 780.245,1223.88 800.406,1209.66 820.566,1194.09 840.726,1179.02 860.887,1166.02 
  881.047,1155.36 901.207,1145.57 921.368,1136.34 941.528,1127.25 961.689,1117.22 981.849,1105.35 1002.01,1091.67 1022.17,1078.2 1042.33,1064.63 1062.49,1051.05 
  1082.65,1039.05 1102.81,1027.61 1122.97,1016.41 1143.13,1004.73 1163.29,992.448 1183.45,979.147 1203.61,963.584 1223.77,946.424 1243.93,928.714 1264.09,911.893 
  1284.25,896.411 1304.42,882.663 1324.58,869.534 1344.74,856.711 1364.9,844.385 1385.06,832.006 1405.22,819.6 1425.38,806.437 1445.54,791.918 1465.7,776.244 
  1485.86,760.042 1506.02,744.491 1526.18,729.648 1546.34,716.312 1566.5,703.733 1586.66,692.764 1606.82,682.477 1626.98,672.054 1647.14,661.393 1667.3,649.593 
  1687.46,636.212 1707.62,622.062 1727.78,606.855 1747.94,593.265 1768.1,581.66 1788.26,571.304 1808.43,562.13 1828.59,552.958 1848.75,543.757 1868.91,533.467 
  1889.07,521.514 1909.23,508.012 1929.39,495.043 1949.55,482.469 1969.71,470.802 1989.87,460.519 2010.03,450.698 2030.19,441.081 2050.35,431.023 2070.51,420.12 
  2090.67,407.596 2110.83,392.302 2130.99,377.55 2151.15,363.174 2171.31,350.86 2191.47,339.042 2211.63,328.528 2231.79,318.355 2251.95,308.211 2272.11,297.614 
  2292.27,285.371 
  "/>
<path clip-path="url(#clip5200)" d="
M287.754 312.204 L666.909 312.204 L666.909 130.764 L287.754 130.764  Z
  " fill="#ffffff" fill-rule="evenodd" fill-opacity="1"/>
<polyline clip-path="url(#clip5200)" style="stroke:#000000; stroke-width:4; stroke-opacity:1; fill:none" points="
  287.754,312.204 666.909,312.204 666.909,130.764 287.754,130.764 287.754,312.204 
  "/>
<polyline clip-path="url(#clip5200)" style="stroke:#000000; stroke-width:8; stroke-opacity:1; fill:none" points="
  311.754,191.244 455.754,191.244 
  "/>
<g clip-path="url(#clip5200)">
<text style="fill:#000000; fill-opacity:1; font-family:Arial,Helvetica Neue,Helvetica,sans-serif; font-size:48px; text-anchor:start;" transform="rotate(0, 479.754, 208.744)" x="479.754" y="208.744">BAU</text>
</g>
<polyline clip-path="url(#clip5200)" style="stroke:#008000; stroke-width:8; stroke-opacity:1; fill:none" stroke-dasharray="32, 20" points="
  311.754,251.724 455.754,251.724 
  "/>
<g clip-path="url(#clip5200)">
<text style="fill:#000000; fill-opacity:1; font-family:Arial,Helvetica Neue,Helvetica,sans-serif; font-size:48px; text-anchor:start;" transform="rotate(0, 479.754, 269.224)" x="479.754" y="269.224">Vegan</text>
</g>
</svg>
