<?xml version="1.0" encoding="utf-8"?>
<svg xmlns="http://www.w3.org/2000/svg" xmlns:xlink="http://www.w3.org/1999/xlink" width="600" height="400" viewBox="0 0 2400 1600">
<defs>
  <clipPath id="clip9900">
    <rect x="0" y="0" width="2400" height="1600"/>
  </clipPath>
</defs>
<path clip-path="url(#clip9900)" d="
M0 1600 L2400 1600 L2400 0 L0 0  Z
  " fill="#ffffff" fill-rule="evenodd" fill-opacity="1"/>
<defs>
  <clipPath id="clip9901">
    <rect x="480" y="0" width="1681" height="1600"/>
  </clipPath>
</defs>
<path clip-path="url(#clip9900)" d="
M215.754 1487.47 L2352.76 1487.47 L2352.76 47.2441 L215.754 47.2441  Z
  " fill="#ffffff" fill-rule="evenodd" fill-opacity="1"/>
<defs>
  <clipPath id="clip9902">
    <rect x="215" y="47" width="2138" height="1441"/>
  </clipPath>
</defs>
<polyline clip-path="url(#clip9900)" style="stroke:#000000; stroke-width:4; stroke-opacity:1; fill:none" points="
  215.754,1487.47 2352.76,1487.47 
  "/>
<polyline clip-path="url(#clip9900)" style="stroke:#000000; stroke-width:4; stroke-opacity:1; fill:none" points="
  215.754,1487.47 215.754,47.2441 
  "/>
<polyline clip-path="url(#clip9900)" style="stroke:#000000; stroke-width:4; stroke-opacity:1; fill:none" points="
  396,1487.47 396,1470.19 
  "/>
<polyline clip-path="url(#clip9900)" style="stroke:#000000; stroke-width:4; stroke-opacity:1; fill:none" points="
  895.02,1487.47 895.02,1470.19 
  "/>
<polyline clip-path="url(#clip9900)" style="stroke:#000000; stroke-width:4; stroke-opacity:1; fill:none" points="
  1394.04,1487.47 1394.04,1470.19 
  "/>
<polyline clip-path="url(#clip9900)" style="stroke:#000000; stroke-width:4; stroke-opacity:1; fill:none" points="
  1893.06,1487.47 1893.06,1470.19 
  "/>
<polyline clip-path="url(#clip9900)" style="stroke:#000000; stroke-width:4; stroke-opacity:1; fill:none" points="
  215.754,1487.47 241.398,1487.47 
  "/>
<polyline clip-path="url(#clip9900)" style="stroke:#000000; stroke-width:4; stroke-opacity:1; fill:none" points="
  215.754,1225.61 241.398,1225.61 
  "/>
<polyline clip-path="url(#clip9900)" style="stroke:#000000; stroke-width:4; stroke-opacity:1; fill:none" points="
  215.754,963.754 241.398,963.754 
  "/>
<polyline clip-path="url(#clip9900)" style="stroke:#000000; stroke-width:4; stroke-opacity:1; fill:none" points="
  215.754,701.894 241.398,701.894 
  "/>
<polyline clip-path="url(#clip9900)" style="stroke:#000000; stroke-width:4; stroke-opacity:1; fill:none" points="
  215.754,440.034 241.398,440.034 
  "/>
<polyline clip-path="url(#clip9900)" style="stroke:#000000; stroke-width:4; stroke-opacity:1; fill:none" points="
  215.754,178.174 241.398,178.174 
  "/>
<g clip-path="url(#clip9900)">
<text style="fill:#000000; fill-opacity:1; font-family:Arial,Helvetica Neue,Helvetica,sans-serif; font-size:48px; text-anchor:middle;" transform="rotate(0, 396, 1541.47)" x="396" y="1541.47">2025</text>
</g>
<g clip-path="url(#clip9900)">
<text style="fill:#000000; fill-opacity:1; font-family:Arial,Helvetica Neue,Helvetica,sans-serif; font-size:48px; text-anchor:middle;" transform="rotate(0, 895.02, 1541.47)" x="895.02" y="1541.47">2050</text>
</g>
<g clip-path="url(#clip9900)">
<text style="fill:#000000; fill-opacity:1; font-family:Arial,Helvetica Neue,Helvetica,sans-serif; font-size:48px; text-anchor:middle;" transform="rotate(0, 1394.04, 1541.47)" x="1394.04" y="1541.47">2075</text>
</g>
<g clip-path="url(#clip9900)">
<text style="fill:#000000; fill-opacity:1; font-family:Arial,Helvetica Neue,Helvetica,sans-serif; font-size:48px; text-anchor:middle;" transform="rotate(0, 1893.06, 1541.47)" x="1893.06" y="1541.47">2100</text>
</g>
<g clip-path="url(#clip9900)">
<text style="fill:#000000; fill-opacity:1; font-family:Arial,Helvetica Neue,Helvetica,sans-serif; font-size:48px; text-anchor:end;" transform="rotate(0, 191.754, 1504.97)" x="191.754" y="1504.97">0.0</text>
</g>
<g clip-path="url(#clip9900)">
<text style="fill:#000000; fill-opacity:1; font-family:Arial,Helvetica Neue,Helvetica,sans-serif; font-size:48px; text-anchor:end;" transform="rotate(0, 191.754, 1243.11)" x="191.754" y="1243.11">0.5</text>
</g>
<g clip-path="url(#clip9900)">
<text style="fill:#000000; fill-opacity:1; font-family:Arial,Helvetica Neue,Helvetica,sans-serif; font-size:48px; text-anchor:end;" transform="rotate(0, 191.754, 981.254)" x="191.754" y="981.254">1.0</text>
</g>
<g clip-path="url(#clip9900)">
<text style="fill:#000000; fill-opacity:1; font-family:Arial,Helvetica Neue,Helvetica,sans-serif; font-size:48px; text-anchor:end;" transform="rotate(0, 191.754, 719.394)" x="191.754" y="719.394">1.5</text>
</g>
<g clip-path="url(#clip9900)">
<text style="fill:#000000; fill-opacity:1; font-family:Arial,Helvetica Neue,Helvetica,sans-serif; font-size:48px; text-anchor:end;" transform="rotate(0, 191.754, 457.534)" x="191.754" y="457.534">2.0</text>
</g>
<g clip-path="url(#clip9900)">
<text style="fill:#000000; fill-opacity:1; font-family:Arial,Helvetica Neue,Helvetica,sans-serif; font-size:48px; text-anchor:end;" transform="rotate(0, 191.754, 195.674)" x="191.754" y="195.674">2.5</text>
</g>
<g clip-path="url(#clip9900)">
<text style="fill:#000000; fill-opacity:1; font-family:Arial,Helvetica Neue,Helvetica,sans-serif; font-size:66px; text-anchor:middle;" transform="rotate(-90, 89.2861, 767.359)" x="89.2861" y="767.359">Temperature Change (1e-15 C)</text>
</g>
<polyline clip-path="url(#clip9902)" style="stroke:#008000; stroke-width:8; stroke-opacity:1; fill:none" points="
  276.235,1487.47 296.196,1201.75 316.157,765.662 336.118,469.038 356.078,276.04 376.039,159.575 396,99.1563 415.961,79.2985 435.922,88.313 455.882,117.402 
  475.843,159.973 495.804,211.115 515.765,267.201 535.725,325.581 555.686,384.345 575.647,442.137 595.608,498.032 615.569,551.419 635.529,601.925 655.49,649.348 
  675.451,693.611 695.412,734.731 715.373,772.787 735.333,807.897 755.294,840.207 775.255,869.887 795.216,897.106 815.177,922.043 835.137,944.873 855.098,965.76 
  875.059,984.867 895.02,1002.35 914.98,1018.34 934.941,1032.98 954.902,1046.38 974.863,1058.66 994.824,1069.92 1014.78,1080.26 1034.75,1089.75 1054.71,1098.49 
  1074.67,1106.55 1094.63,1113.98 1114.59,1120.85 1134.55,1127.2 1154.51,1133.1 1174.47,1138.57 1194.43,1143.67 1214.39,1148.42 1234.35,1152.86 1254.31,1157.01 
  1274.27,1160.91 1294.24,1164.58 1314.2,1168.03 1334.16,1171.29 1354.12,1174.37 1374.08,1177.3 1394.04,1180.08 1414,1182.74 1433.96,1185.27 1453.92,1187.69 
  1473.88,1190.01 1493.84,1192.23 1513.8,1194.38 1533.76,1196.44 1553.73,1198.43 1573.69,1200.35 1593.65,1202.2 1613.61,1204 1633.57,1205.75 1653.53,1207.44 
  1673.49,1209.09 1693.45,1210.69 1713.41,1212.25 1733.37,1213.77 1753.33,1215.25 1773.29,1216.71 1793.26,1218.15 1813.22,1219.56 1833.18,1220.96 1853.14,1222.33 
  1873.1,1223.68 1893.06,1225.02 1913.02,1226.34 1932.98,1227.63 1952.94,1228.91 1972.9,1230.18 1992.86,1231.44 2012.82,1232.69 2032.78,1233.92 2052.75,1235.14 
  2072.71,1236.35 2092.67,1237.54 2112.63,1238.73 2132.59,1239.91 2152.55,1241.08 2172.51,1242.25 2192.47,1243.4 2212.43,1244.54 2232.39,1245.68 2252.35,1246.82 
  2272.31,1247.94 2292.27,1249.07 
  "/>
<polyline clip-path="url(#clip9902)" style="stroke:#000000; stroke-width:8; stroke-opacity:1; fill:none" stroke-dasharray="32, 20" points="
  276.235,1487.47 296.196,1111.83 316.157,859.081 336.118,687.84 356.078,572.284 376.039,495.022 396,444.243 415.961,411.87 435.922,392.325 455.882,381.725 
  475.843,377.352 495.804,377.288 515.765,380.182 535.725,385.074 555.686,391.281 575.647,398.316 595.608,405.834 615.569,413.592 635.529,421.422 655.49,429.207 
  675.451,436.861 695.412,444.336 715.373,451.597 735.333,458.62 755.294,465.398 775.255,471.927 795.216,478.203 815.177,484.234 835.137,490.027 855.098,495.595 
  875.059,500.943 895.02,506.084 914.98,511.023 934.941,515.767 954.902,520.328 974.863,524.712 994.824,528.927 1014.78,532.982 1034.75,536.888 1054.71,540.656 
  1074.67,544.293 1094.63,547.806 1114.59,551.198 1134.55,554.473 1154.51,557.636 1174.47,560.698 1194.43,563.658 1214.39,566.524 1234.35,569.301 1254.31,571.991 
  1274.27,574.602 1294.24,577.135 1314.2,579.595 1334.16,581.981 1354.12,584.299 1374.08,586.553 1394.04,588.743 1414,590.869 1433.96,592.935 1453.92,594.942 
  1473.88,596.892 1493.84,598.792 1513.8,600.64 1533.76,602.447 1553.73,604.21 1573.69,605.931 1593.65,607.61 1613.61,609.252 1633.57,610.852 1653.53,612.415 
  1673.49,613.931 1693.45,615.407 1713.41,616.845 1733.37,618.256 1753.33,619.638 1773.29,620.993 1793.26,622.326 1813.22,623.634 1833.18,624.915 1853.14,626.174 
  1873.1,627.406 1893.06,628.614 1913.02,629.804 1932.98,630.975 1952.94,632.127 1972.9,633.264 1992.86,634.388 2012.82,635.492 2032.78,636.58 2052.75,637.661 
  2072.71,638.723 2092.67,639.771 2112.63,640.805 2132.59,641.83 2152.55,642.847 2172.51,643.859 2192.47,644.865 2212.43,645.867 2232.39,646.871 2252.35,647.871 
  2272.31,648.868 2292.27,649.86 
  "/>
<polyline clip-path="url(#clip9902)" style="stroke:#ffa500; stroke-width:8; stroke-opacity:1; fill:none" stroke-dasharray="32, 16, 4, 16" points="
  276.235,1487.47 296.196,1218.27 316.157,1037.14 336.118,914.419 356.078,831.608 376.039,776.238 396,739.848 415.961,716.647 435.922,702.642 455.882,695.046 
  475.843,691.911 495.804,691.865 515.765,693.939 535.725,697.443 555.686,701.892 575.647,706.934 595.608,712.323 615.569,717.885 635.529,723.499 655.49,729.08 
  675.451,734.567 695.412,739.924 715.373,745.128 735.333,750.159 755.294,755.014 775.255,759.691 795.216,764.188 815.177,768.511 835.137,772.663 855.098,776.651 
  875.059,780.48 895.02,784.161 914.98,787.698 934.941,791.094 954.902,794.361 974.863,797.5 994.824,800.519 1014.78,803.425 1034.75,806.225 1054.71,808.924 
  1074.67,811.532 1094.63,814.049 1114.59,816.479 1134.55,818.825 1154.51,821.091 1174.47,823.285 1194.43,825.406 1214.39,827.46 1234.35,829.451 1254.31,831.379 
  1274.27,833.253 1294.24,835.071 1314.2,836.837 1334.16,838.551 1354.12,840.215 1374.08,841.832 1394.04,843.402 1414,844.923 1433.96,846.403 1453.92,847.84 
  1473.88,849.234 1493.84,850.593 1513.8,851.915 1533.76,853.211 1553.73,854.475 1573.69,855.709 1593.65,856.91 1613.61,858.084 1633.57,859.233 1653.53,860.357 
  1673.49,861.444 1693.45,862.499 1713.41,863.527 1733.37,864.532 1753.33,865.519 1773.29,866.489 1793.26,867.446 1813.22,868.387 1833.18,869.309 1853.14,870.216 
  1873.1,871.106 1893.06,871.976 1913.02,872.828 1932.98,873.667 1952.94,874.493 1972.9,875.31 1992.86,876.12 2012.82,876.916 2032.78,877.701 2052.75,878.475 
  2072.71,879.234 2092.67,879.986 2112.63,880.727 2132.59,881.466 2152.55,882.199 2172.51,882.933 2192.47,883.658 2212.43,884.374 2232.39,885.089 2252.35,885.801 
  2272.31,886.514 2292.27,887.219 
  "/>
<path clip-path="url(#clip9900)" d="
M1409.43 372.684 L2280.76 372.684 L2280.76 130.764 L1409.43 130.764  Z
  " fill="#ffffff" fill-rule="evenodd" fill-opacity="1"/>
<polyline clip-path="url(#clip9900)" style="stroke:#000000; stroke-width:4; stroke-opacity:1; fill:none" points="
  1409.43,372.684 2280.76,372.684 2280.76,130.764 1409.43,130.764 1409.43,372.684 
  "/>
<polyline clip-path="url(#clip9900)" style="stroke:#008000; stroke-width:8; stroke-opacity:1; fill:none" points="
  1433.43,191.244 1577.43,191.244 
  "/>
<g clip-path="url(#clip9900)">
<text style="fill:#000000; fill-opacity:1; font-family:Arial,Helvetica Neue,Helvetica,sans-serif; font-size:48px; text-anchor:start;" transform="rotate(0, 1601.43, 208.744)" x="1601.43" y="208.744">Diet</text>
</g>
<polyline clip-path="url(#clip9900)" style="stroke:#000000; stroke-width:8; stroke-opacity:1; fill:none" stroke-dasharray="32, 20" points="
  1433.43,251.724 1577.43,251.724 
  "/>
<g clip-path="url(#clip9900)">
<text style="fill:#000000; fill-opacity:1; font-family:Arial,Helvetica Neue,Helvetica,sans-serif; font-size:48px; text-anchor:start;" transform="rotate(0, 1601.43, 269.224)" x="1601.43" y="269.224">Passenger Vehicle</text>
</g>
<polyline clip-path="url(#clip9900)" style="stroke:#ffa500; stroke-width:8; stroke-opacity:1; fill:none" stroke-dasharray="32, 16, 4, 16" points="
  1433.43,312.204 1577.43,312.204 
  "/>
<g clip-path="url(#clip9900)">
<text style="fill:#000000; fill-opacity:1; font-family:Arial,Helvetica Neue,Helvetica,sans-serif; font-size:48px; text-anchor:start;" transform="rotate(0, 1601.43, 329.704)" x="1601.43" y="329.704">Household Energy (Per Cap.)</text>
</g>
</svg>
