<?xml version="1.0" encoding="utf-8"?>
<svg xmlns="http://www.w3.org/2000/svg" xmlns:xlink="http://www.w3.org/1999/xlink" width="600" height="400" viewBox="0 0 2400 1600">
<defs>
  <clipPath id="clip7200">
    <rect x="0" y="0" width="2400" height="1600"/>
  </clipPath>
</defs>
<path clip-path="url(#clip7200)" d="
M0 1600 L2400 1600 L2400 0 L0 0  Z
  " fill="#ffffff" fill-rule="evenodd" fill-opacity="1"/>
<defs>
  <clipPath id="clip7201">
    <rect x="480" y="0" width="1681" height="1600"/>
  </clipPath>
</defs>
<path clip-path="url(#clip7200)" d="
M215.754 1487.47 L2352.76 1487.47 L2352.76 47.2441 L215.754 47.2441  Z
  " fill="#ffffff" fill-rule="evenodd" fill-opacity="1"/>
<defs>
  <clipPath id="clip7202">
    <rect x="215" y="47" width="2138" height="1441"/>
  </clipPath>
</defs>
<polyline clip-path="url(#clip7200)" style="stroke:#000000; stroke-width:4; stroke-opacity:1; fill:none" points="
  215.754,1487.47 2352.76,1487.47 
  "/>
<polyline clip-path="url(#clip7200)" style="stroke:#000000; stroke-width:4; stroke-opacity:1; fill:none" points="
  215.754,1487.47 215.754,47.2441 
  "/>
<polyline clip-path="url(#clip7200)" style="stroke:#000000; stroke-width:4; stroke-opacity:1; fill:none" points="
  377.037,1487.47 377.037,1470.19 
  "/>
<polyline clip-path="url(#clip7200)" style="stroke:#000000; stroke-width:4; stroke-opacity:1; fill:none" points="
  881.047,1487.47 881.047,1470.19 
  "/>
<polyline clip-path="url(#clip7200)" style="stroke:#000000; stroke-width:4; stroke-opacity:1; fill:none" points="
  1385.06,1487.47 1385.06,1470.19 
  "/>
<polyline clip-path="url(#clip7200)" style="stroke:#000000; stroke-width:4; stroke-opacity:1; fill:none" points="
  1889.07,1487.47 1889.07,1470.19 
  "/>
<polyline clip-path="url(#clip7200)" style="stroke:#000000; stroke-width:4; stroke-opacity:1; fill:none" points="
  215.754,1326.33 241.398,1326.33 
  "/>
<polyline clip-path="url(#clip7200)" style="stroke:#000000; stroke-width:4; stroke-opacity:1; fill:none" points="
  215.754,1070.5 241.398,1070.5 
  "/>
<polyline clip-path="url(#clip7200)" style="stroke:#000000; stroke-width:4; stroke-opacity:1; fill:none" points="
  215.754,814.664 241.398,814.664 
  "/>
<polyline clip-path="url(#clip7200)" style="stroke:#000000; stroke-width:4; stroke-opacity:1; fill:none" points="
  215.754,558.829 241.398,558.829 
  "/>
<polyline clip-path="url(#clip7200)" style="stroke:#000000; stroke-width:4; stroke-opacity:1; fill:none" points="
  215.754,302.994 241.398,302.994 
  "/>
<g clip-path="url(#clip7200)">
<text style="fill:#000000; fill-opacity:1; font-family:Arial,Helvetica Neue,Helvetica,sans-serif; font-size:48px; text-anchor:middle;" transform="rotate(0, 377.037, 1541.47)" x="377.037" y="1541.47">2025</text>
</g>
<g clip-path="url(#clip7200)">
<text style="fill:#000000; fill-opacity:1; font-family:Arial,Helvetica Neue,Helvetica,sans-serif; font-size:48px; text-anchor:middle;" transform="rotate(0, 881.047, 1541.47)" x="881.047" y="1541.47">2050</text>
</g>
<g clip-path="url(#clip7200)">
<text style="fill:#000000; fill-opacity:1; font-family:Arial,Helvetica Neue,Helvetica,sans-serif; font-size:48px; text-anchor:middle;" transform="rotate(0, 1385.06, 1541.47)" x="1385.06" y="1541.47">2075</text>
</g>
<g clip-path="url(#clip7200)">
<text style="fill:#000000; fill-opacity:1; font-family:Arial,Helvetica Neue,Helvetica,sans-serif; font-size:48px; text-anchor:middle;" transform="rotate(0, 1889.07, 1541.47)" x="1889.07" y="1541.47">2100</text>
</g>
<g clip-path="url(#clip7200)">
<text style="fill:#000000; fill-opacity:1; font-family:Arial,Helvetica Neue,Helvetica,sans-serif; font-size:48px; text-anchor:end;" transform="rotate(0, 191.754, 1343.83)" x="191.754" y="1343.83">1.5</text>
</g>
<g clip-path="url(#clip7200)">
<text style="fill:#000000; fill-opacity:1; font-family:Arial,Helvetica Neue,Helvetica,sans-serif; font-size:48px; text-anchor:end;" transform="rotate(0, 191.754, 1088)" x="191.754" y="1088">2.0</text>
</g>
<g clip-path="url(#clip7200)">
<text style="fill:#000000; fill-opacity:1; font-family:Arial,Helvetica Neue,Helvetica,sans-serif; font-size:48px; text-anchor:end;" transform="rotate(0, 191.754, 832.164)" x="191.754" y="832.164">2.5</text>
</g>
<g clip-path="url(#clip7200)">
<text style="fill:#000000; fill-opacity:1; font-family:Arial,Helvetica Neue,Helvetica,sans-serif; font-size:48px; text-anchor:end;" transform="rotate(0, 191.754, 576.329)" x="191.754" y="576.329">3.0</text>
</g>
<g clip-path="url(#clip7200)">
<text style="fill:#000000; fill-opacity:1; font-family:Arial,Helvetica Neue,Helvetica,sans-serif; font-size:48px; text-anchor:end;" transform="rotate(0, 191.754, 320.494)" x="191.754" y="320.494">3.5</text>
</g>
<g clip-path="url(#clip7200)">
<text style="fill:#000000; fill-opacity:1; font-family:Arial,Helvetica Neue,Helvetica,sans-serif; font-size:66px; text-anchor:middle;" transform="rotate(-90, 89.2861, 767.359)" x="89.2861" y="767.359">Temperature Increase (C Above Pre-Industrial)</text>
</g>
<polyline clip-path="url(#clip7202)" style="stroke:#000000; stroke-width:8; stroke-opacity:1; fill:none" points="
  276.235,1445.87 296.396,1433.9 316.556,1419.28 336.716,1403.63 356.877,1388.02 377.037,1374.44 397.198,1362.63 417.358,1352.17 437.518,1341.76 457.679,1331.78 
  477.839,1321.61 498,1311.69 518.16,1301.23 538.32,1289.01 558.481,1274.32 578.641,1259.88 598.802,1244.77 618.962,1231.43 639.122,1218.3 659.283,1206.94 
  679.443,1196.87 699.604,1187.35 719.764,1177.31 739.924,1166.3 760.085,1153.89 780.245,1138.8 800.406,1122.34 820.566,1104.6 840.726,1087.42 860.887,1072.37 
  881.047,1059.72 901.207,1047.98 921.368,1036.86 941.528,1025.92 961.689,1014.08 981.849,1000.44 1002.01,985.024 1022.17,969.852 1042.33,954.608 1062.49,939.394 
  1082.65,925.78 1102.81,912.76 1122.97,899.991 1143.13,886.77 1163.29,872.97 1183.45,858.164 1203.61,841.113 1223.77,822.479 1243.93,803.311 1264.09,785.045 
  1284.25,768.13 1304.42,752.963 1324.58,738.423 1344.74,724.196 1364.9,710.472 1385.06,696.701 1405.22,682.907 1425.38,668.361 1445.54,652.462 1465.7,635.412 
  1485.86,617.839 1506.02,600.915 1526.18,584.693 1546.34,569.965 1566.5,555.978 1586.66,543.582 1606.82,531.849 1626.98,519.958 1647.14,507.809 1667.3,494.499 
  1687.46,479.586 1707.62,463.887 1727.78,447.124 1747.94,431.974 1768.1,418.812 1788.26,406.904 1808.43,396.187 1828.59,385.48 1848.75,374.756 1868.91,362.953 
  1889.07,349.499 1909.23,334.509 1929.39,320.072 1949.55,306.052 1969.71,292.964 1989.87,281.285 2010.03,270.094 2030.19,259.133 2050.35,247.757 2070.51,235.561 
  2090.67,221.768 2110.83,205.23 2130.99,189.255 2151.15,173.68 2171.31,160.186 2191.47,147.209 2211.63,135.554 2231.79,124.258 2251.95,113.009 2272.11,101.322 
  2292.27,88.0053 
  "/>
<polyline clip-path="url(#clip7202)" style="stroke:#008000; stroke-width:8; stroke-opacity:1; fill:none" stroke-dasharray="32, 20" points="
  276.235,1446.71 296.396,1436.9 316.556,1425.37 336.716,1413.45 356.877,1401.99 377.037,1392.84 397.198,1385.59 417.358,1379.76 437.518,1373.96 457.679,1368.55 
  477.839,1362.87 498,1357.33 518.16,1351.14 538.32,1343.08 558.481,1332.42 578.641,1321.89 598.802,1310.56 618.962,1300.89 639.122,1291.33 659.283,1283.42 
  679.443,1276.72 699.604,1270.47 719.764,1263.61 739.924,1255.72 760.085,1246.34 780.245,1234.23 800.406,1220.68 820.566,1205.8 840.726,1191.43 860.887,1179.15 
  881.047,1169.22 901.207,1160.17 921.368,1151.7 941.528,1143.38 961.689,1134.13 981.849,1123.05 1002.01,1110.18 1022.17,1097.52 1042.33,1084.77 1062.49,1072.04 
  1082.65,1060.88 1102.81,1050.31 1122.97,1039.97 1143.13,1029.17 1163.29,1017.78 1183.45,1005.38 1203.61,990.736 1223.77,974.501 1243.93,957.727 1264.09,941.854 
  1284.25,927.328 1304.42,914.549 1324.58,902.399 1344.74,890.567 1364.9,879.245 1385.06,867.882 1405.22,856.506 1425.38,844.385 1445.54,830.921 1465.7,816.315 
  1485.86,801.194 1506.02,786.738 1526.18,773.009 1546.34,760.807 1566.5,749.385 1586.66,739.598 1606.82,730.518 1626.98,721.33 1647.14,711.932 1667.3,701.425 
  1687.46,689.366 1707.62,676.566 1727.78,662.735 1747.94,650.54 1768.1,640.35 1788.26,631.425 1808.43,623.698 1828.59,615.988 1848.75,608.263 1868.91,599.463 
  1889.07,589.014 1909.23,577.027 1929.39,565.58 1949.55,554.534 1969.71,544.398 1989.87,535.646 2010.03,527.357 2030.19,519.271 2050.35,510.744 2070.51,501.37 
  2090.67,490.374 2110.83,476.607 2130.99,463.379 2151.15,450.526 2171.31,439.734 2191.47,429.429 2211.63,420.404 2231.79,411.692 2251.95,402.972 2272.11,393.759 
  2292.27,382.859 
  "/>
<path clip-path="url(#clip7200)" d="
M287.754 312.204 L666.909 312.204 L666.909 130.764 L287.754 130.764  Z
  " fill="#ffffff" fill-rule="evenodd" fill-opacity="1"/>
<polyline clip-path="url(#clip7200)" style="stroke:#000000; stroke-width:4; stroke-opacity:1; fill:none" points="
  287.754,312.204 666.909,312.204 666.909,130.764 287.754,130.764 287.754,312.204 
  "/>
<polyline clip-path="url(#clip7200)" style="stroke:#000000; stroke-width:8; stroke-opacity:1; fill:none" points="
  311.754,191.244 455.754,191.244 
  "/>
<g clip-path="url(#clip7200)">
<text style="fill:#000000; fill-opacity:1; font-family:Arial,Helvetica Neue,Helvetica,sans-serif; font-size:48px; text-anchor:start;" transform="rotate(0, 479.754, 208.744)" x="479.754" y="208.744">BAU</text>
</g>
<polyline clip-path="url(#clip7200)" style="stroke:#008000; stroke-width:8; stroke-opacity:1; fill:none" stroke-dasharray="32, 20" points="
  311.754,251.724 455.754,251.724 
  "/>
<g clip-path="url(#clip7200)">
<text style="fill:#000000; fill-opacity:1; font-family:Arial,Helvetica Neue,Helvetica,sans-serif; font-size:48px; text-anchor:start;" transform="rotate(0, 479.754, 269.224)" x="479.754" y="269.224">Vegan</text>
</g>
</svg>
