<?xml version="1.0" encoding="utf-8"?>
<svg xmlns="http://www.w3.org/2000/svg" xmlns:xlink="http://www.w3.org/1999/xlink" width="600" height="400" viewBox="0 0 2400 1600">
<defs>
  <clipPath id="clip4000">
    <rect x="0" y="0" width="2400" height="1600"/>
  </clipPath>
</defs>
<path clip-path="url(#clip4000)" d="
M0 1600 L2400 1600 L2400 0 L0 0  Z
  " fill="#ffffff" fill-rule="evenodd" fill-opacity="1"/>
<defs>
  <clipPath id="clip4001">
    <rect x="480" y="0" width="1681" height="1600"/>
  </clipPath>
</defs>
<path clip-path="url(#clip4000)" d="
M215.754 1451.89 L2352.76 1451.89 L2352.76 47.2441 L215.754 47.2441  Z
  " fill="#ffffff" fill-rule="evenodd" fill-opacity="1"/>
<defs>
  <clipPath id="clip4002">
    <rect x="215" y="47" width="2138" height="1406"/>
  </clipPath>
</defs>
<polyline clip-path="url(#clip4000)" style="stroke:#000000; stroke-width:4; stroke-opacity:1; fill:none" points="
  215.754,1451.89 2352.76,1451.89 
  "/>
<polyline clip-path="url(#clip4000)" style="stroke:#000000; stroke-width:4; stroke-opacity:1; fill:none" points="
  215.754,1451.89 215.754,47.2441 
  "/>
<polyline clip-path="url(#clip4000)" style="stroke:#000000; stroke-width:4; stroke-opacity:1; fill:none" points="
  407.547,1451.89 407.547,1435.03 
  "/>
<polyline clip-path="url(#clip4000)" style="stroke:#000000; stroke-width:4; stroke-opacity:1; fill:none" points="
  602.371,1451.89 602.371,1435.03 
  "/>
<polyline clip-path="url(#clip4000)" style="stroke:#000000; stroke-width:4; stroke-opacity:1; fill:none" points="
  797.195,1451.89 797.195,1435.03 
  "/>
<polyline clip-path="url(#clip4000)" style="stroke:#000000; stroke-width:4; stroke-opacity:1; fill:none" points="
  992.019,1451.89 992.019,1435.03 
  "/>
<polyline clip-path="url(#clip4000)" style="stroke:#000000; stroke-width:4; stroke-opacity:1; fill:none" points="
  1186.84,1451.89 1186.84,1435.03 
  "/>
<polyline clip-path="url(#clip4000)" style="stroke:#000000; stroke-width:4; stroke-opacity:1; fill:none" points="
  1381.67,1451.89 1381.67,1435.03 
  "/>
<polyline clip-path="url(#clip4000)" style="stroke:#000000; stroke-width:4; stroke-opacity:1; fill:none" points="
  1576.49,1451.89 1576.49,1435.03 
  "/>
<polyline clip-path="url(#clip4000)" style="stroke:#000000; stroke-width:4; stroke-opacity:1; fill:none" points="
  1771.32,1451.89 1771.32,1435.03 
  "/>
<polyline clip-path="url(#clip4000)" style="stroke:#000000; stroke-width:4; stroke-opacity:1; fill:none" points="
  1966.14,1451.89 1966.14,1435.03 
  "/>
<polyline clip-path="url(#clip4000)" style="stroke:#000000; stroke-width:4; stroke-opacity:1; fill:none" points="
  2160.96,1451.89 2160.96,1435.03 
  "/>
<polyline clip-path="url(#clip4000)" style="stroke:#000000; stroke-width:4; stroke-opacity:1; fill:none" points="
  215.754,1412.13 241.398,1412.13 
  "/>
<polyline clip-path="url(#clip4000)" style="stroke:#000000; stroke-width:4; stroke-opacity:1; fill:none" points="
  215.754,1039.13 241.398,1039.13 
  "/>
<polyline clip-path="url(#clip4000)" style="stroke:#000000; stroke-width:4; stroke-opacity:1; fill:none" points="
  215.754,666.134 241.398,666.134 
  "/>
<polyline clip-path="url(#clip4000)" style="stroke:#000000; stroke-width:4; stroke-opacity:1; fill:none" points="
  215.754,293.134 241.398,293.134 
  "/>
<g clip-path="url(#clip4000)">
<text style="fill:#000000; fill-opacity:1; font-family:Arial,Helvetica Neue,Helvetica,sans-serif; font-size:48px; text-anchor:middle;" transform="rotate(0, 407.547, 1505.89)" x="407.547" y="1505.89">Africa</text>
</g>
<g clip-path="url(#clip4000)">
<text style="fill:#000000; fill-opacity:1; font-family:Arial,Helvetica Neue,Helvetica,sans-serif; font-size:48px; text-anchor:middle;" transform="rotate(0, 602.371, 1505.89)" x="602.371" y="1505.89">East</text>
</g>
<g clip-path="url(#clip4000)">
<text style="fill:#000000; fill-opacity:1; font-family:Arial,Helvetica Neue,Helvetica,sans-serif; font-size:48px; text-anchor:middle;" transform="rotate(0, 602.371, 1557.73)" x="602.371" y="1557.73">Asia</text>
</g>
<g clip-path="url(#clip4000)">
<text style="fill:#000000; fill-opacity:1; font-family:Arial,Helvetica Neue,Helvetica,sans-serif; font-size:48px; text-anchor:middle;" transform="rotate(0, 797.195, 1505.89)" x="797.195" y="1505.89">East</text>
</g>
<g clip-path="url(#clip4000)">
<text style="fill:#000000; fill-opacity:1; font-family:Arial,Helvetica Neue,Helvetica,sans-serif; font-size:48px; text-anchor:middle;" transform="rotate(0, 797.195, 1557.73)" x="797.195" y="1557.73">Europe</text>
</g>
<g clip-path="url(#clip4000)">
<text style="fill:#000000; fill-opacity:1; font-family:Arial,Helvetica Neue,Helvetica,sans-serif; font-size:48px; text-anchor:middle;" transform="rotate(0, 992.019, 1505.89)" x="992.019" y="1505.89">Lat</text>
</g>
<g clip-path="url(#clip4000)">
<text style="fill:#000000; fill-opacity:1; font-family:Arial,Helvetica Neue,Helvetica,sans-serif; font-size:48px; text-anchor:middle;" transform="rotate(0, 992.019, 1557.73)" x="992.019" y="1557.73">Am.</text>
</g>
<g clip-path="url(#clip4000)">
<text style="fill:#000000; fill-opacity:1; font-family:Arial,Helvetica Neue,Helvetica,sans-serif; font-size:48px; text-anchor:middle;" transform="rotate(0, 1186.84, 1505.89)" x="1186.84" y="1505.89">Mid</text>
</g>
<g clip-path="url(#clip4000)">
<text style="fill:#000000; fill-opacity:1; font-family:Arial,Helvetica Neue,Helvetica,sans-serif; font-size:48px; text-anchor:middle;" transform="rotate(0, 1186.84, 1557.73)" x="1186.84" y="1557.73">East</text>
</g>
<g clip-path="url(#clip4000)">
<text style="fill:#000000; fill-opacity:1; font-family:Arial,Helvetica Neue,Helvetica,sans-serif; font-size:48px; text-anchor:middle;" transform="rotate(0, 1381.67, 1505.89)" x="1381.67" y="1505.89">North</text>
</g>
<g clip-path="url(#clip4000)">
<text style="fill:#000000; fill-opacity:1; font-family:Arial,Helvetica Neue,Helvetica,sans-serif; font-size:48px; text-anchor:middle;" transform="rotate(0, 1381.67, 1557.73)" x="1381.67" y="1557.73">Am.</text>
</g>
<g clip-path="url(#clip4000)">
<text style="fill:#000000; fill-opacity:1; font-family:Arial,Helvetica Neue,Helvetica,sans-serif; font-size:48px; text-anchor:middle;" transform="rotate(0, 1576.49, 1505.89)" x="1576.49" y="1505.89">Oceania</text>
</g>
<g clip-path="url(#clip4000)">
<text style="fill:#000000; fill-opacity:1; font-family:Arial,Helvetica Neue,Helvetica,sans-serif; font-size:48px; text-anchor:middle;" transform="rotate(0, 1771.32, 1505.89)" x="1771.32" y="1505.89">Russia</text>
</g>
<g clip-path="url(#clip4000)">
<text style="fill:#000000; fill-opacity:1; font-family:Arial,Helvetica Neue,Helvetica,sans-serif; font-size:48px; text-anchor:middle;" transform="rotate(0, 1966.14, 1505.89)" x="1966.14" y="1505.89">South</text>
</g>
<g clip-path="url(#clip4000)">
<text style="fill:#000000; fill-opacity:1; font-family:Arial,Helvetica Neue,Helvetica,sans-serif; font-size:48px; text-anchor:middle;" transform="rotate(0, 1966.14, 1557.73)" x="1966.14" y="1557.73">Asia</text>
</g>
<g clip-path="url(#clip4000)">
<text style="fill:#000000; fill-opacity:1; font-family:Arial,Helvetica Neue,Helvetica,sans-serif; font-size:48px; text-anchor:middle;" transform="rotate(0, 2160.96, 1505.89)" x="2160.96" y="1505.89">West</text>
</g>
<g clip-path="url(#clip4000)">
<text style="fill:#000000; fill-opacity:1; font-family:Arial,Helvetica Neue,Helvetica,sans-serif; font-size:48px; text-anchor:middle;" transform="rotate(0, 2160.96, 1557.73)" x="2160.96" y="1557.73">Europe</text>
</g>
<g clip-path="url(#clip4000)">
<text style="fill:#000000; fill-opacity:1; font-family:Arial,Helvetica Neue,Helvetica,sans-serif; font-size:48px; text-anchor:end;" transform="rotate(0, 191.754, 1429.63)" x="191.754" y="1429.63">0.0</text>
</g>
<g clip-path="url(#clip4000)">
<text style="fill:#000000; fill-opacity:1; font-family:Arial,Helvetica Neue,Helvetica,sans-serif; font-size:48px; text-anchor:end;" transform="rotate(0, 191.754, 1056.63)" x="191.754" y="1056.63">0.1</text>
</g>
<g clip-path="url(#clip4000)">
<text style="fill:#000000; fill-opacity:1; font-family:Arial,Helvetica Neue,Helvetica,sans-serif; font-size:48px; text-anchor:end;" transform="rotate(0, 191.754, 683.634)" x="191.754" y="683.634">0.2</text>
</g>
<g clip-path="url(#clip4000)">
<text style="fill:#000000; fill-opacity:1; font-family:Arial,Helvetica Neue,Helvetica,sans-serif; font-size:48px; text-anchor:end;" transform="rotate(0, 191.754, 310.634)" x="191.754" y="310.634">0.3</text>
</g>
<g clip-path="url(#clip4000)">
<text style="fill:#000000; fill-opacity:1; font-family:Arial,Helvetica Neue,Helvetica,sans-serif; font-size:66px; text-anchor:middle;" transform="rotate(-90, 89.2861, 749.566)" x="89.2861" y="749.566">Cost per 20 g protein serving ($)</text>
</g>
<path clip-path="url(#clip4002)" d="
M329.617 229.102 L329.617 1412.13 L355.594 1412.13 L355.594 229.102 L329.617 229.102 L329.617 229.102  Z
  " fill="#000000" fill-rule="evenodd" fill-opacity="1"/>
<polyline clip-path="url(#clip4002)" style="stroke:#000000; stroke-width:4; stroke-opacity:1; fill:none" points="
  329.617,229.102 329.617,1412.13 355.594,1412.13 355.594,229.102 329.617,229.102 
  "/>
<path clip-path="url(#clip4002)" d="
M524.441 446.767 L524.441 1412.13 L550.418 1412.13 L550.418 446.767 L524.441 446.767 L524.441 446.767  Z
  " fill="#000000" fill-rule="evenodd" fill-opacity="1"/>
<polyline clip-path="url(#clip4002)" style="stroke:#000000; stroke-width:4; stroke-opacity:1; fill:none" points="
  524.441,446.767 524.441,1412.13 550.418,1412.13 550.418,446.767 524.441,446.767 
  "/>
<path clip-path="url(#clip4002)" d="
M719.265 1162.78 L719.265 1412.13 L745.242 1412.13 L745.242 1162.78 L719.265 1162.78 L719.265 1162.78  Z
  " fill="#000000" fill-rule="evenodd" fill-opacity="1"/>
<polyline clip-path="url(#clip4002)" style="stroke:#000000; stroke-width:4; stroke-opacity:1; fill:none" points="
  719.265,1162.78 719.265,1412.13 745.242,1412.13 745.242,1162.78 719.265,1162.78 
  "/>
<path clip-path="url(#clip4002)" d="
M914.089 439.432 L914.089 1412.13 L940.066 1412.13 L940.066 439.432 L914.089 439.432 L914.089 439.432  Z
  " fill="#000000" fill-rule="evenodd" fill-opacity="1"/>
<polyline clip-path="url(#clip4002)" style="stroke:#000000; stroke-width:4; stroke-opacity:1; fill:none" points="
  914.089,439.432 914.089,1412.13 940.066,1412.13 940.066,439.432 914.089,439.432 
  "/>
<path clip-path="url(#clip4002)" d="
M1108.91 641.139 L1108.91 1412.13 L1134.89 1412.13 L1134.89 641.139 L1108.91 641.139 L1108.91 641.139  Z
  " fill="#000000" fill-rule="evenodd" fill-opacity="1"/>
<polyline clip-path="url(#clip4002)" style="stroke:#000000; stroke-width:4; stroke-opacity:1; fill:none" points="
  1108.91,641.139 1108.91,1412.13 1134.89,1412.13 1134.89,641.139 1108.91,641.139 
  "/>
<path clip-path="url(#clip4002)" d="
M1303.74 1006.19 L1303.74 1412.13 L1329.71 1412.13 L1329.71 1006.19 L1303.74 1006.19 L1303.74 1006.19  Z
  " fill="#000000" fill-rule="evenodd" fill-opacity="1"/>
<polyline clip-path="url(#clip4002)" style="stroke:#000000; stroke-width:4; stroke-opacity:1; fill:none" points="
  1303.74,1006.19 1303.74,1412.13 1329.71,1412.13 1329.71,1006.19 1303.74,1006.19 
  "/>
<path clip-path="url(#clip4002)" d="
M1498.56 874.943 L1498.56 1412.13 L1524.54 1412.13 L1524.54 874.943 L1498.56 874.943 L1498.56 874.943  Z
  " fill="#000000" fill-rule="evenodd" fill-opacity="1"/>
<polyline clip-path="url(#clip4002)" style="stroke:#000000; stroke-width:4; stroke-opacity:1; fill:none" points="
  1498.56,874.943 1498.56,1412.13 1524.54,1412.13 1524.54,874.943 1498.56,874.943 
  "/>
<path clip-path="url(#clip4002)" d="
M1693.39 1173.87 L1693.39 1412.13 L1719.36 1412.13 L1719.36 1173.87 L1693.39 1173.87 L1693.39 1173.87  Z
  " fill="#000000" fill-rule="evenodd" fill-opacity="1"/>
<polyline clip-path="url(#clip4002)" style="stroke:#000000; stroke-width:4; stroke-opacity:1; fill:none" points="
  1693.39,1173.87 1693.39,1412.13 1719.36,1412.13 1719.36,1173.87 1693.39,1173.87 
  "/>
<path clip-path="url(#clip4002)" d="
M1888.21 86.9982 L1888.21 1412.13 L1914.19 1412.13 L1914.19 86.9982 L1888.21 86.9982 L1888.21 86.9982  Z
  " fill="#000000" fill-rule="evenodd" fill-opacity="1"/>
<polyline clip-path="url(#clip4002)" style="stroke:#000000; stroke-width:4; stroke-opacity:1; fill:none" points="
  1888.21,86.9982 1888.21,1412.13 1914.19,1412.13 1914.19,86.9982 1888.21,86.9982 
  "/>
<path clip-path="url(#clip4002)" d="
M2083.03 1086.92 L2083.03 1412.13 L2109.01 1412.13 L2109.01 1086.92 L2083.03 1086.92 L2083.03 1086.92  Z
  " fill="#000000" fill-rule="evenodd" fill-opacity="1"/>
<polyline clip-path="url(#clip4002)" style="stroke:#000000; stroke-width:4; stroke-opacity:1; fill:none" points="
  2083.03,1086.92 2083.03,1412.13 2109.01,1412.13 2109.01,1086.92 2083.03,1086.92 
  "/>
<path clip-path="url(#clip4002)" d="
M355.594 882.439 L355.594 1412.13 L381.57 1412.13 L381.57 882.439 L355.594 882.439 L355.594 882.439  Z
  " fill="#0000ff" fill-rule="evenodd" fill-opacity="1"/>
<polyline clip-path="url(#clip4002)" style="stroke:#000000; stroke-width:4; stroke-opacity:1; fill:none" points="
  355.594,882.439 355.594,1412.13 381.57,1412.13 381.57,882.439 355.594,882.439 
  "/>
<path clip-path="url(#clip4002)" d="
M550.418 1162.79 L550.418 1412.13 L576.394 1412.13 L576.394 1162.79 L550.418 1162.79 L550.418 1162.79  Z
  " fill="#0000ff" fill-rule="evenodd" fill-opacity="1"/>
<polyline clip-path="url(#clip4002)" style="stroke:#000000; stroke-width:4; stroke-opacity:1; fill:none" points="
  550.418,1162.79 550.418,1412.13 576.394,1412.13 576.394,1162.79 550.418,1162.79 
  "/>
<path clip-path="url(#clip4002)" d="
M745.242 1235.44 L745.242 1412.13 L771.218 1412.13 L771.218 1235.44 L745.242 1235.44 L745.242 1235.44  Z
  " fill="#0000ff" fill-rule="evenodd" fill-opacity="1"/>
<polyline clip-path="url(#clip4002)" style="stroke:#000000; stroke-width:4; stroke-opacity:1; fill:none" points="
  745.242,1235.44 745.242,1412.13 771.218,1412.13 771.218,1235.44 745.242,1235.44 
  "/>
<path clip-path="url(#clip4002)" d="
M940.066 994.961 L940.066 1412.13 L966.042 1412.13 L966.042 994.961 L940.066 994.961 L940.066 994.961  Z
  " fill="#0000ff" fill-rule="evenodd" fill-opacity="1"/>
<polyline clip-path="url(#clip4002)" style="stroke:#000000; stroke-width:4; stroke-opacity:1; fill:none" points="
  940.066,994.961 940.066,1412.13 966.042,1412.13 966.042,994.961 940.066,994.961 
  "/>
<path clip-path="url(#clip4002)" d="
M1134.89 939.748 L1134.89 1412.13 L1160.87 1412.13 L1160.87 939.748 L1134.89 939.748 L1134.89 939.748  Z
  " fill="#0000ff" fill-rule="evenodd" fill-opacity="1"/>
<polyline clip-path="url(#clip4002)" style="stroke:#000000; stroke-width:4; stroke-opacity:1; fill:none" points="
  1134.89,939.748 1134.89,1412.13 1160.87,1412.13 1160.87,939.748 1134.89,939.748 
  "/>
<path clip-path="url(#clip4002)" d="
M1329.71 1267.47 L1329.71 1412.13 L1355.69 1412.13 L1355.69 1267.47 L1329.71 1267.47 L1329.71 1267.47  Z
  " fill="#0000ff" fill-rule="evenodd" fill-opacity="1"/>
<polyline clip-path="url(#clip4002)" style="stroke:#000000; stroke-width:4; stroke-opacity:1; fill:none" points="
  1329.71,1267.47 1329.71,1412.13 1355.69,1412.13 1355.69,1267.47 1329.71,1267.47 
  "/>
<path clip-path="url(#clip4002)" d="
M1524.54 1087.1 L1524.54 1412.13 L1550.51 1412.13 L1550.51 1087.1 L1524.54 1087.1 L1524.54 1087.1  Z
  " fill="#0000ff" fill-rule="evenodd" fill-opacity="1"/>
<polyline clip-path="url(#clip4002)" style="stroke:#000000; stroke-width:4; stroke-opacity:1; fill:none" points="
  1524.54,1087.1 1524.54,1412.13 1550.51,1412.13 1550.51,1087.1 1524.54,1087.1 
  "/>
<path clip-path="url(#clip4002)" d="
M1719.36 1283.57 L1719.36 1412.13 L1745.34 1412.13 L1745.34 1283.57 L1719.36 1283.57 L1719.36 1283.57  Z
  " fill="#0000ff" fill-rule="evenodd" fill-opacity="1"/>
<polyline clip-path="url(#clip4002)" style="stroke:#000000; stroke-width:4; stroke-opacity:1; fill:none" points="
  1719.36,1283.57 1719.36,1412.13 1745.34,1412.13 1745.34,1283.57 1719.36,1283.57 
  "/>
<path clip-path="url(#clip4002)" d="
M1914.19 1040.93 L1914.19 1412.13 L1940.16 1412.13 L1940.16 1040.93 L1914.19 1040.93 L1914.19 1040.93  Z
  " fill="#0000ff" fill-rule="evenodd" fill-opacity="1"/>
<polyline clip-path="url(#clip4002)" style="stroke:#000000; stroke-width:4; stroke-opacity:1; fill:none" points="
  1914.19,1040.93 1914.19,1412.13 1940.16,1412.13 1940.16,1040.93 1914.19,1040.93 
  "/>
<path clip-path="url(#clip4002)" d="
M2109.01 1289.47 L2109.01 1412.13 L2134.99 1412.13 L2134.99 1289.47 L2109.01 1289.47 L2109.01 1289.47  Z
  " fill="#0000ff" fill-rule="evenodd" fill-opacity="1"/>
<polyline clip-path="url(#clip4002)" style="stroke:#000000; stroke-width:4; stroke-opacity:1; fill:none" points="
  2109.01,1289.47 2109.01,1412.13 2134.99,1412.13 2134.99,1289.47 2109.01,1289.47 
  "/>
<path clip-path="url(#clip4002)" d="
M381.57 1361.88 L381.57 1412.13 L407.547 1412.13 L407.547 1361.88 L381.57 1361.88 L381.57 1361.88  Z
  " fill="#ffff00" fill-rule="evenodd" fill-opacity="1"/>
<polyline clip-path="url(#clip4002)" style="stroke:#000000; stroke-width:4; stroke-opacity:1; fill:none" points="
  381.57,1361.88 381.57,1412.13 407.547,1412.13 407.547,1361.88 381.57,1361.88 
  "/>
<path clip-path="url(#clip4002)" d="
M576.394 1345.1 L576.394 1412.13 L602.371 1412.13 L602.371 1345.1 L576.394 1345.1 L576.394 1345.1  Z
  " fill="#ffff00" fill-rule="evenodd" fill-opacity="1"/>
<polyline clip-path="url(#clip4002)" style="stroke:#000000; stroke-width:4; stroke-opacity:1; fill:none" points="
  576.394,1345.1 576.394,1412.13 602.371,1412.13 602.371,1345.1 576.394,1345.1 
  "/>
<path clip-path="url(#clip4002)" d="
M771.218 1379.7 L771.218 1412.13 L797.195 1412.13 L797.195 1379.7 L771.218 1379.7 L771.218 1379.7  Z
  " fill="#ffff00" fill-rule="evenodd" fill-opacity="1"/>
<polyline clip-path="url(#clip4002)" style="stroke:#000000; stroke-width:4; stroke-opacity:1; fill:none" points="
  771.218,1379.7 771.218,1412.13 797.195,1412.13 797.195,1379.7 771.218,1379.7 
  "/>
<path clip-path="url(#clip4002)" d="
M966.042 1362.81 L966.042 1412.13 L992.019 1412.13 L992.019 1362.81 L966.042 1362.81 L966.042 1362.81  Z
  " fill="#ffff00" fill-rule="evenodd" fill-opacity="1"/>
<polyline clip-path="url(#clip4002)" style="stroke:#000000; stroke-width:4; stroke-opacity:1; fill:none" points="
  966.042,1362.81 966.042,1412.13 992.019,1412.13 992.019,1362.81 966.042,1362.81 
  "/>
<path clip-path="url(#clip4002)" d="
M1160.87 1372.11 L1160.87 1412.13 L1186.84 1412.13 L1186.84 1372.11 L1160.87 1372.11 L1160.87 1372.11  Z
  " fill="#ffff00" fill-rule="evenodd" fill-opacity="1"/>
<polyline clip-path="url(#clip4002)" style="stroke:#000000; stroke-width:4; stroke-opacity:1; fill:none" points="
  1160.87,1372.11 1160.87,1412.13 1186.84,1412.13 1186.84,1372.11 1160.87,1372.11 
  "/>
<path clip-path="url(#clip4002)" d="
M1355.69 1379.09 L1355.69 1412.13 L1381.67 1412.13 L1381.67 1379.09 L1355.69 1379.09 L1355.69 1379.09  Z
  " fill="#ffff00" fill-rule="evenodd" fill-opacity="1"/>
<polyline clip-path="url(#clip4002)" style="stroke:#000000; stroke-width:4; stroke-opacity:1; fill:none" points="
  1355.69,1379.09 1355.69,1412.13 1381.67,1412.13 1381.67,1379.09 1355.69,1379.09 
  "/>
<path clip-path="url(#clip4002)" d="
M1550.51 1377.68 L1550.51 1412.13 L1576.49 1412.13 L1576.49 1377.68 L1550.51 1377.68 L1550.51 1377.68  Z
  " fill="#ffff00" fill-rule="evenodd" fill-opacity="1"/>
<polyline clip-path="url(#clip4002)" style="stroke:#000000; stroke-width:4; stroke-opacity:1; fill:none" points="
  1550.51,1377.68 1550.51,1412.13 1576.49,1412.13 1576.49,1377.68 1550.51,1377.68 
  "/>
<path clip-path="url(#clip4002)" d="
M1745.34 1392.65 L1745.34 1412.13 L1771.32 1412.13 L1771.32 1392.65 L1745.34 1392.65 L1745.34 1392.65  Z
  " fill="#ffff00" fill-rule="evenodd" fill-opacity="1"/>
<polyline clip-path="url(#clip4002)" style="stroke:#000000; stroke-width:4; stroke-opacity:1; fill:none" points="
  1745.34,1392.65 1745.34,1412.13 1771.32,1412.13 1771.32,1392.65 1745.34,1392.65 
  "/>
<path clip-path="url(#clip4002)" d="
M1940.16 1365.4 L1940.16 1412.13 L1966.14 1412.13 L1966.14 1365.4 L1940.16 1365.4 L1940.16 1365.4  Z
  " fill="#ffff00" fill-rule="evenodd" fill-opacity="1"/>
<polyline clip-path="url(#clip4002)" style="stroke:#000000; stroke-width:4; stroke-opacity:1; fill:none" points="
  1940.16,1365.4 1940.16,1412.13 1966.14,1412.13 1966.14,1365.4 1940.16,1365.4 
  "/>
<path clip-path="url(#clip4002)" d="
M2134.99 1377.93 L2134.99 1412.13 L2160.96 1412.13 L2160.96 1377.93 L2134.99 1377.93 L2134.99 1377.93  Z
  " fill="#ffff00" fill-rule="evenodd" fill-opacity="1"/>
<polyline clip-path="url(#clip4002)" style="stroke:#000000; stroke-width:4; stroke-opacity:1; fill:none" points="
  2134.99,1377.93 2134.99,1412.13 2160.96,1412.13 2160.96,1377.93 2134.99,1377.93 
  "/>
<path clip-path="url(#clip4002)" d="
M407.547 1274.09 L407.547 1412.13 L433.523 1412.13 L433.523 1274.09 L407.547 1274.09 L407.547 1274.09  Z
  " fill="#ffc0cb" fill-rule="evenodd" fill-opacity="1"/>
<polyline clip-path="url(#clip4002)" style="stroke:#000000; stroke-width:4; stroke-opacity:1; fill:none" points="
  407.547,1274.09 407.547,1412.13 433.523,1412.13 433.523,1274.09 407.547,1274.09 
  "/>
<path clip-path="url(#clip4002)" d="
M602.371 1274.69 L602.371 1412.13 L628.347 1412.13 L628.347 1274.69 L602.371 1274.69 L602.371 1274.69  Z
  " fill="#ffc0cb" fill-rule="evenodd" fill-opacity="1"/>
<polyline clip-path="url(#clip4002)" style="stroke:#000000; stroke-width:4; stroke-opacity:1; fill:none" points="
  602.371,1274.69 602.371,1412.13 628.347,1412.13 628.347,1274.69 602.371,1274.69 
  "/>
<path clip-path="url(#clip4002)" d="
M797.195 1334.43 L797.195 1412.13 L823.171 1412.13 L823.171 1334.43 L797.195 1334.43 L797.195 1334.43  Z
  " fill="#ffc0cb" fill-rule="evenodd" fill-opacity="1"/>
<polyline clip-path="url(#clip4002)" style="stroke:#000000; stroke-width:4; stroke-opacity:1; fill:none" points="
  797.195,1334.43 797.195,1412.13 823.171,1412.13 823.171,1334.43 797.195,1334.43 
  "/>
<path clip-path="url(#clip4002)" d="
M992.019 1300.1 L992.019 1412.13 L1018 1412.13 L1018 1300.1 L992.019 1300.1 L992.019 1300.1  Z
  " fill="#ffc0cb" fill-rule="evenodd" fill-opacity="1"/>
<polyline clip-path="url(#clip4002)" style="stroke:#000000; stroke-width:4; stroke-opacity:1; fill:none" points="
  992.019,1300.1 992.019,1412.13 1018,1412.13 1018,1300.1 992.019,1300.1 
  "/>
<path clip-path="url(#clip4002)" d="
M1186.84 1281.27 L1186.84 1412.13 L1212.82 1412.13 L1212.82 1281.27 L1186.84 1281.27 L1186.84 1281.27  Z
  " fill="#ffc0cb" fill-rule="evenodd" fill-opacity="1"/>
<polyline clip-path="url(#clip4002)" style="stroke:#000000; stroke-width:4; stroke-opacity:1; fill:none" points="
  1186.84,1281.27 1186.84,1412.13 1212.82,1412.13 1212.82,1281.27 1186.84,1281.27 
  "/>
<path clip-path="url(#clip4002)" d="
M1381.67 1331.78 L1381.67 1412.13 L1407.64 1412.13 L1407.64 1331.78 L1381.67 1331.78 L1381.67 1331.78  Z
  " fill="#ffc0cb" fill-rule="evenodd" fill-opacity="1"/>
<polyline clip-path="url(#clip4002)" style="stroke:#000000; stroke-width:4; stroke-opacity:1; fill:none" points="
  1381.67,1331.78 1381.67,1412.13 1407.64,1412.13 1407.64,1331.78 1381.67,1331.78 
  "/>
<path clip-path="url(#clip4002)" d="
M1576.49 1206.42 L1576.49 1412.13 L1602.47 1412.13 L1602.47 1206.42 L1576.49 1206.42 L1576.49 1206.42  Z
  " fill="#ffc0cb" fill-rule="evenodd" fill-opacity="1"/>
<polyline clip-path="url(#clip4002)" style="stroke:#000000; stroke-width:4; stroke-opacity:1; fill:none" points="
  1576.49,1206.42 1576.49,1412.13 1602.47,1412.13 1602.47,1206.42 1576.49,1206.42 
  "/>
<path clip-path="url(#clip4002)" d="
M1771.32 1344.51 L1771.32 1412.13 L1797.29 1412.13 L1797.29 1344.51 L1771.32 1344.51 L1771.32 1344.51  Z
  " fill="#ffc0cb" fill-rule="evenodd" fill-opacity="1"/>
<polyline clip-path="url(#clip4002)" style="stroke:#000000; stroke-width:4; stroke-opacity:1; fill:none" points="
  1771.32,1344.51 1771.32,1412.13 1797.29,1412.13 1797.29,1344.51 1771.32,1344.51 
  "/>
<path clip-path="url(#clip4002)" d="
M1966.14 1348.06 L1966.14 1412.13 L1992.12 1412.13 L1992.12 1348.06 L1966.14 1348.06 L1966.14 1348.06  Z
  " fill="#ffc0cb" fill-rule="evenodd" fill-opacity="1"/>
<polyline clip-path="url(#clip4002)" style="stroke:#000000; stroke-width:4; stroke-opacity:1; fill:none" points="
  1966.14,1348.06 1966.14,1412.13 1992.12,1412.13 1992.12,1348.06 1966.14,1348.06 
  "/>
<path clip-path="url(#clip4002)" d="
M2160.96 1313.85 L2160.96 1412.13 L2186.94 1412.13 L2186.94 1313.85 L2160.96 1313.85 L2160.96 1313.85  Z
  " fill="#ffc0cb" fill-rule="evenodd" fill-opacity="1"/>
<polyline clip-path="url(#clip4002)" style="stroke:#000000; stroke-width:4; stroke-opacity:1; fill:none" points="
  2160.96,1313.85 2160.96,1412.13 2186.94,1412.13 2186.94,1313.85 2160.96,1313.85 
  "/>
<path clip-path="url(#clip4002)" d="
M433.523 1348.48 L433.523 1412.13 L459.5 1412.13 L459.5 1348.48 L433.523 1348.48 L433.523 1348.48  Z
  " fill="#ff0000" fill-rule="evenodd" fill-opacity="1"/>
<polyline clip-path="url(#clip4002)" style="stroke:#000000; stroke-width:4; stroke-opacity:1; fill:none" points="
  433.523,1348.48 433.523,1412.13 459.5,1412.13 459.5,1348.48 433.523,1348.48 
  "/>
<path clip-path="url(#clip4002)" d="
M628.347 1328.1 L628.347 1412.13 L654.324 1412.13 L654.324 1328.1 L628.347 1328.1 L628.347 1328.1  Z
  " fill="#ff0000" fill-rule="evenodd" fill-opacity="1"/>
<polyline clip-path="url(#clip4002)" style="stroke:#000000; stroke-width:4; stroke-opacity:1; fill:none" points="
  628.347,1328.1 628.347,1412.13 654.324,1412.13 654.324,1328.1 628.347,1328.1 
  "/>
<path clip-path="url(#clip4002)" d="
M823.171 1379.5 L823.171 1412.13 L849.148 1412.13 L849.148 1379.5 L823.171 1379.5 L823.171 1379.5  Z
  " fill="#ff0000" fill-rule="evenodd" fill-opacity="1"/>
<polyline clip-path="url(#clip4002)" style="stroke:#000000; stroke-width:4; stroke-opacity:1; fill:none" points="
  823.171,1379.5 823.171,1412.13 849.148,1412.13 849.148,1379.5 823.171,1379.5 
  "/>
<path clip-path="url(#clip4002)" d="
M1018 1363.89 L1018 1412.13 L1043.97 1412.13 L1043.97 1363.89 L1018 1363.89 L1018 1363.89  Z
  " fill="#ff0000" fill-rule="evenodd" fill-opacity="1"/>
<polyline clip-path="url(#clip4002)" style="stroke:#000000; stroke-width:4; stroke-opacity:1; fill:none" points="
  1018,1363.89 1018,1412.13 1043.97,1412.13 1043.97,1363.89 1018,1363.89 
  "/>
<path clip-path="url(#clip4002)" d="
M1212.82 1354.48 L1212.82 1412.13 L1238.8 1412.13 L1238.8 1354.48 L1212.82 1354.48 L1212.82 1354.48  Z
  " fill="#ff0000" fill-rule="evenodd" fill-opacity="1"/>
<polyline clip-path="url(#clip4002)" style="stroke:#000000; stroke-width:4; stroke-opacity:1; fill:none" points="
  1212.82,1354.48 1212.82,1412.13 1238.8,1412.13 1238.8,1354.48 1212.82,1354.48 
  "/>
<path clip-path="url(#clip4002)" d="
M1407.64 1378.95 L1407.64 1412.13 L1433.62 1412.13 L1433.62 1378.95 L1407.64 1378.95 L1407.64 1378.95  Z
  " fill="#ff0000" fill-rule="evenodd" fill-opacity="1"/>
<polyline clip-path="url(#clip4002)" style="stroke:#000000; stroke-width:4; stroke-opacity:1; fill:none" points="
  1407.64,1378.95 1407.64,1412.13 1433.62,1412.13 1433.62,1378.95 1407.64,1378.95 
  "/>
<path clip-path="url(#clip4002)" d="
M1602.47 1360.27 L1602.47 1412.13 L1628.44 1412.13 L1628.44 1360.27 L1602.47 1360.27 L1602.47 1360.27  Z
  " fill="#ff0000" fill-rule="evenodd" fill-opacity="1"/>
<polyline clip-path="url(#clip4002)" style="stroke:#000000; stroke-width:4; stroke-opacity:1; fill:none" points="
  1602.47,1360.27 1602.47,1412.13 1628.44,1412.13 1628.44,1360.27 1602.47,1360.27 
  "/>
<path clip-path="url(#clip4002)" d="
M1797.29 1382.54 L1797.29 1412.13 L1823.27 1412.13 L1823.27 1382.54 L1797.29 1382.54 L1797.29 1382.54  Z
  " fill="#ff0000" fill-rule="evenodd" fill-opacity="1"/>
<polyline clip-path="url(#clip4002)" style="stroke:#000000; stroke-width:4; stroke-opacity:1; fill:none" points="
  1797.29,1382.54 1797.29,1412.13 1823.27,1412.13 1823.27,1382.54 1797.29,1382.54 
  "/>
<path clip-path="url(#clip4002)" d="
M1992.12 1225.28 L1992.12 1412.13 L2018.09 1412.13 L2018.09 1225.28 L1992.12 1225.28 L1992.12 1225.28  Z
  " fill="#ff0000" fill-rule="evenodd" fill-opacity="1"/>
<polyline clip-path="url(#clip4002)" style="stroke:#000000; stroke-width:4; stroke-opacity:1; fill:none" points="
  1992.12,1225.28 1992.12,1412.13 2018.09,1412.13 2018.09,1225.28 1992.12,1225.28 
  "/>
<path clip-path="url(#clip4002)" d="
M2186.94 1367.55 L2186.94 1412.13 L2212.92 1412.13 L2212.92 1367.55 L2186.94 1367.55 L2186.94 1367.55  Z
  " fill="#ff0000" fill-rule="evenodd" fill-opacity="1"/>
<polyline clip-path="url(#clip4002)" style="stroke:#000000; stroke-width:4; stroke-opacity:1; fill:none" points="
  2186.94,1367.55 2186.94,1412.13 2212.92,1412.13 2212.92,1367.55 2186.94,1367.55 
  "/>
<path clip-path="url(#clip4002)" d="
M459.5 693.625 L459.5 1412.13 L485.476 1412.13 L485.476 693.625 L459.5 693.625 L459.5 693.625  Z
  " fill="#a52a2a" fill-rule="evenodd" fill-opacity="1"/>
<polyline clip-path="url(#clip4002)" style="stroke:#000000; stroke-width:4; stroke-opacity:1; fill:none" points="
  459.5,693.625 459.5,1412.13 485.476,1412.13 485.476,693.625 459.5,693.625 
  "/>
<path clip-path="url(#clip4002)" d="
M654.324 930.577 L654.324 1412.13 L680.3 1412.13 L680.3 930.577 L654.324 930.577 L654.324 930.577  Z
  " fill="#a52a2a" fill-rule="evenodd" fill-opacity="1"/>
<polyline clip-path="url(#clip4002)" style="stroke:#000000; stroke-width:4; stroke-opacity:1; fill:none" points="
  654.324,930.577 654.324,1412.13 680.3,1412.13 680.3,930.577 654.324,930.577 
  "/>
<path clip-path="url(#clip4002)" d="
M849.148 1216.69 L849.148 1412.13 L875.124 1412.13 L875.124 1216.69 L849.148 1216.69 L849.148 1216.69  Z
  " fill="#a52a2a" fill-rule="evenodd" fill-opacity="1"/>
<polyline clip-path="url(#clip4002)" style="stroke:#000000; stroke-width:4; stroke-opacity:1; fill:none" points="
  849.148,1216.69 849.148,1412.13 875.124,1412.13 875.124,1216.69 849.148,1216.69 
  "/>
<path clip-path="url(#clip4002)" d="
M1043.97 807.839 L1043.97 1412.13 L1069.95 1412.13 L1069.95 807.839 L1043.97 807.839 L1043.97 807.839  Z
  " fill="#a52a2a" fill-rule="evenodd" fill-opacity="1"/>
<polyline clip-path="url(#clip4002)" style="stroke:#000000; stroke-width:4; stroke-opacity:1; fill:none" points="
  1043.97,807.839 1043.97,1412.13 1069.95,1412.13 1069.95,807.839 1043.97,807.839 
  "/>
<path clip-path="url(#clip4002)" d="
M1238.8 675.441 L1238.8 1412.13 L1264.77 1412.13 L1264.77 675.441 L1238.8 675.441 L1238.8 675.441  Z
  " fill="#a52a2a" fill-rule="evenodd" fill-opacity="1"/>
<polyline clip-path="url(#clip4002)" style="stroke:#000000; stroke-width:4; stroke-opacity:1; fill:none" points="
  1238.8,675.441 1238.8,1412.13 1264.77,1412.13 1264.77,675.441 1238.8,675.441 
  "/>
<path clip-path="url(#clip4002)" d="
M1433.62 928.419 L1433.62 1412.13 L1459.6 1412.13 L1459.6 928.419 L1433.62 928.419 L1433.62 928.419  Z
  " fill="#a52a2a" fill-rule="evenodd" fill-opacity="1"/>
<polyline clip-path="url(#clip4002)" style="stroke:#000000; stroke-width:4; stroke-opacity:1; fill:none" points="
  1433.62,928.419 1433.62,1412.13 1459.6,1412.13 1459.6,928.419 1433.62,928.419 
  "/>
<path clip-path="url(#clip4002)" d="
M1628.44 1085.51 L1628.44 1412.13 L1654.42 1412.13 L1654.42 1085.51 L1628.44 1085.51 L1628.44 1085.51  Z
  " fill="#a52a2a" fill-rule="evenodd" fill-opacity="1"/>
<polyline clip-path="url(#clip4002)" style="stroke:#000000; stroke-width:4; stroke-opacity:1; fill:none" points="
  1628.44,1085.51 1628.44,1412.13 1654.42,1412.13 1654.42,1085.51 1628.44,1085.51 
  "/>
<path clip-path="url(#clip4002)" d="
M1823.27 985.031 L1823.27 1412.13 L1849.24 1412.13 L1849.24 985.031 L1823.27 985.031 L1823.27 985.031  Z
  " fill="#a52a2a" fill-rule="evenodd" fill-opacity="1"/>
<polyline clip-path="url(#clip4002)" style="stroke:#000000; stroke-width:4; stroke-opacity:1; fill:none" points="
  1823.27,985.031 1823.27,1412.13 1849.24,1412.13 1849.24,985.031 1823.27,985.031 
  "/>
<path clip-path="url(#clip4002)" d="
M2018.09 692.736 L2018.09 1412.13 L2044.07 1412.13 L2044.07 692.736 L2018.09 692.736 L2018.09 692.736  Z
  " fill="#a52a2a" fill-rule="evenodd" fill-opacity="1"/>
<polyline clip-path="url(#clip4002)" style="stroke:#000000; stroke-width:4; stroke-opacity:1; fill:none" points="
  2018.09,692.736 2018.09,1412.13 2044.07,1412.13 2044.07,692.736 2018.09,692.736 
  "/>
<path clip-path="url(#clip4002)" d="
M2212.92 1129.92 L2212.92 1412.13 L2238.89 1412.13 L2238.89 1129.92 L2212.92 1129.92 L2212.92 1129.92  Z
  " fill="#a52a2a" fill-rule="evenodd" fill-opacity="1"/>
<polyline clip-path="url(#clip4002)" style="stroke:#000000; stroke-width:4; stroke-opacity:1; fill:none" points="
  2212.92,1129.92 2212.92,1412.13 2238.89,1412.13 2238.89,1129.92 2212.92,1129.92 
  "/>
<path clip-path="url(#clip4000)" d="
M1848.09 463.404 L2280.76 463.404 L2280.76 145.884 L1848.09 145.884  Z
  " fill="#000000" fill-rule="evenodd" fill-opacity="0"/>
<polyline clip-path="url(#clip4000)" style="stroke:#000000; stroke-width:4; stroke-opacity:0; fill:none" points="
  1848.09,463.404 2280.76,463.404 2280.76,145.884 1848.09,145.884 1848.09,463.404 
  "/>
<path clip-path="url(#clip4000)" d="
M1872.09 209.388 L2016.09 209.388 L2016.09 173.1 L1872.09 173.1 L1872.09 209.388  Z
  " fill="#000000" fill-rule="evenodd" fill-opacity="1"/>
<polyline clip-path="url(#clip4000)" style="stroke:#000000; stroke-width:4; stroke-opacity:1; fill:none" points="
  1872.09,209.388 2016.09,209.388 2016.09,173.1 1872.09,173.1 1872.09,209.388 
  "/>
<g clip-path="url(#clip4000)">
<text style="fill:#000000; fill-opacity:1; font-family:Arial,Helvetica Neue,Helvetica,sans-serif; font-size:36px; text-anchor:start;" transform="rotate(0, 2040.09, 204.244)" x="2040.09" y="204.244">Beef</text>
</g>
<path clip-path="url(#clip4000)" d="
M1872.09 254.748 L2016.09 254.748 L2016.09 218.46 L1872.09 218.46 L1872.09 254.748  Z
  " fill="#0000ff" fill-rule="evenodd" fill-opacity="1"/>
<polyline clip-path="url(#clip4000)" style="stroke:#000000; stroke-width:4; stroke-opacity:1; fill:none" points="
  1872.09,254.748 2016.09,254.748 2016.09,218.46 1872.09,218.46 1872.09,254.748 
  "/>
<g clip-path="url(#clip4000)">
<text style="fill:#000000; fill-opacity:1; font-family:Arial,Helvetica Neue,Helvetica,sans-serif; font-size:36px; text-anchor:start;" transform="rotate(0, 2040.09, 249.604)" x="2040.09" y="249.604">Dairy</text>
</g>
<path clip-path="url(#clip4000)" d="
M1872.09 300.108 L2016.09 300.108 L2016.09 263.82 L1872.09 263.82 L1872.09 300.108  Z
  " fill="#ffff00" fill-rule="evenodd" fill-opacity="1"/>
<polyline clip-path="url(#clip4000)" style="stroke:#000000; stroke-width:4; stroke-opacity:1; fill:none" points="
  1872.09,300.108 2016.09,300.108 2016.09,263.82 1872.09,263.82 1872.09,300.108 
  "/>
<g clip-path="url(#clip4000)">
<text style="fill:#000000; fill-opacity:1; font-family:Arial,Helvetica Neue,Helvetica,sans-serif; font-size:36px; text-anchor:start;" transform="rotate(0, 2040.09, 294.964)" x="2040.09" y="294.964">Eggs</text>
</g>
<path clip-path="url(#clip4000)" d="
M1872.09 345.468 L2016.09 345.468 L2016.09 309.18 L1872.09 309.18 L1872.09 345.468  Z
  " fill="#ffc0cb" fill-rule="evenodd" fill-opacity="1"/>
<polyline clip-path="url(#clip4000)" style="stroke:#000000; stroke-width:4; stroke-opacity:1; fill:none" points="
  1872.09,345.468 2016.09,345.468 2016.09,309.18 1872.09,309.18 1872.09,345.468 
  "/>
<g clip-path="url(#clip4000)">
<text style="fill:#000000; fill-opacity:1; font-family:Arial,Helvetica Neue,Helvetica,sans-serif; font-size:36px; text-anchor:start;" transform="rotate(0, 2040.09, 340.324)" x="2040.09" y="340.324">Pork</text>
</g>
<path clip-path="url(#clip4000)" d="
M1872.09 390.828 L2016.09 390.828 L2016.09 354.54 L1872.09 354.54 L1872.09 390.828  Z
  " fill="#ff0000" fill-rule="evenodd" fill-opacity="1"/>
<polyline clip-path="url(#clip4000)" style="stroke:#000000; stroke-width:4; stroke-opacity:1; fill:none" points="
  1872.09,390.828 2016.09,390.828 2016.09,354.54 1872.09,354.54 1872.09,390.828 
  "/>
<g clip-path="url(#clip4000)">
<text style="fill:#000000; fill-opacity:1; font-family:Arial,Helvetica Neue,Helvetica,sans-serif; font-size:36px; text-anchor:start;" transform="rotate(0, 2040.09, 385.684)" x="2040.09" y="385.684">Poultry</text>
</g>
<path clip-path="url(#clip4000)" d="
M1872.09 436.188 L2016.09 436.188 L2016.09 399.9 L1872.09 399.9 L1872.09 436.188  Z
  " fill="#a52a2a" fill-rule="evenodd" fill-opacity="1"/>
<polyline clip-path="url(#clip4000)" style="stroke:#000000; stroke-width:4; stroke-opacity:1; fill:none" points="
  1872.09,436.188 2016.09,436.188 2016.09,399.9 1872.09,399.9 1872.09,436.188 
  "/>
<g clip-path="url(#clip4000)">
<text style="fill:#000000; fill-opacity:1; font-family:Arial,Helvetica Neue,Helvetica,sans-serif; font-size:36px; text-anchor:start;" transform="rotate(0, 2040.09, 431.044)" x="2040.09" y="431.044">Sheep/Goat</text>
</g>
</svg>
