<?xml version="1.0" encoding="utf-8"?>
<svg xmlns="http://www.w3.org/2000/svg" xmlns:xlink="http://www.w3.org/1999/xlink" width="600" height="400" viewBox="0 0 2400 1600">
<defs>
  <clipPath id="clip6700">
    <rect x="0" y="0" width="2400" height="1600"/>
  </clipPath>
</defs>
<path clip-path="url(#clip6700)" d="
M0 1600 L2400 1600 L2400 0 L0 0  Z
  " fill="#ffffff" fill-rule="evenodd" fill-opacity="1"/>
<defs>
  <clipPath id="clip6701">
    <rect x="480" y="0" width="1681" height="1600"/>
  </clipPath>
</defs>
<path clip-path="url(#clip6700)" d="
M242.516 1451.89 L2352.76 1451.89 L2352.76 47.2441 L242.516 47.2441  Z
  " fill="#ffffff" fill-rule="evenodd" fill-opacity="1"/>
<defs>
  <clipPath id="clip6702">
    <rect x="242" y="47" width="2111" height="1406"/>
  </clipPath>
</defs>
<polyline clip-path="url(#clip6700)" style="stroke:#000000; stroke-width:4; stroke-opacity:1; fill:none" points="
  242.516,1451.89 2352.76,1451.89 
  "/>
<polyline clip-path="url(#clip6700)" style="stroke:#000000; stroke-width:4; stroke-opacity:1; fill:none" points="
  242.516,1451.89 242.516,47.2441 
  "/>
<polyline clip-path="url(#clip6700)" style="stroke:#000000; stroke-width:4; stroke-opacity:1; fill:none" points="
  431.907,1451.89 431.907,1435.03 
  "/>
<polyline clip-path="url(#clip6700)" style="stroke:#000000; stroke-width:4; stroke-opacity:1; fill:none" points="
  624.291,1451.89 624.291,1435.03 
  "/>
<polyline clip-path="url(#clip6700)" style="stroke:#000000; stroke-width:4; stroke-opacity:1; fill:none" points="
  816.676,1451.89 816.676,1435.03 
  "/>
<polyline clip-path="url(#clip6700)" style="stroke:#000000; stroke-width:4; stroke-opacity:1; fill:none" points="
  1009.06,1451.89 1009.06,1435.03 
  "/>
<polyline clip-path="url(#clip6700)" style="stroke:#000000; stroke-width:4; stroke-opacity:1; fill:none" points="
  1201.44,1451.89 1201.44,1435.03 
  "/>
<polyline clip-path="url(#clip6700)" style="stroke:#000000; stroke-width:4; stroke-opacity:1; fill:none" points="
  1393.83,1451.89 1393.83,1435.03 
  "/>
<polyline clip-path="url(#clip6700)" style="stroke:#000000; stroke-width:4; stroke-opacity:1; fill:none" points="
  1586.21,1451.89 1586.21,1435.03 
  "/>
<polyline clip-path="url(#clip6700)" style="stroke:#000000; stroke-width:4; stroke-opacity:1; fill:none" points="
  1778.6,1451.89 1778.6,1435.03 
  "/>
<polyline clip-path="url(#clip6700)" style="stroke:#000000; stroke-width:4; stroke-opacity:1; fill:none" points="
  1970.98,1451.89 1970.98,1435.03 
  "/>
<polyline clip-path="url(#clip6700)" style="stroke:#000000; stroke-width:4; stroke-opacity:1; fill:none" points="
  2163.37,1451.89 2163.37,1435.03 
  "/>
<polyline clip-path="url(#clip6700)" style="stroke:#000000; stroke-width:4; stroke-opacity:1; fill:none" points="
  242.516,1412.13 267.839,1412.13 
  "/>
<polyline clip-path="url(#clip6700)" style="stroke:#000000; stroke-width:4; stroke-opacity:1; fill:none" points="
  242.516,1176.1 267.839,1176.1 
  "/>
<polyline clip-path="url(#clip6700)" style="stroke:#000000; stroke-width:4; stroke-opacity:1; fill:none" points="
  242.516,940.069 267.839,940.069 
  "/>
<polyline clip-path="url(#clip6700)" style="stroke:#000000; stroke-width:4; stroke-opacity:1; fill:none" points="
  242.516,704.036 267.839,704.036 
  "/>
<polyline clip-path="url(#clip6700)" style="stroke:#000000; stroke-width:4; stroke-opacity:1; fill:none" points="
  242.516,468.003 267.839,468.003 
  "/>
<polyline clip-path="url(#clip6700)" style="stroke:#000000; stroke-width:4; stroke-opacity:1; fill:none" points="
  242.516,231.971 267.839,231.971 
  "/>
<g clip-path="url(#clip6700)">
<text style="fill:#000000; fill-opacity:1; font-family:Arial,Helvetica Neue,Helvetica,sans-serif; font-size:48px; text-anchor:middle;" transform="rotate(0, 431.907, 1505.89)" x="431.907" y="1505.89">Africa</text>
</g>
<g clip-path="url(#clip6700)">
<text style="fill:#000000; fill-opacity:1; font-family:Arial,Helvetica Neue,Helvetica,sans-serif; font-size:48px; text-anchor:middle;" transform="rotate(0, 624.291, 1505.89)" x="624.291" y="1505.89">East</text>
</g>
<g clip-path="url(#clip6700)">
<text style="fill:#000000; fill-opacity:1; font-family:Arial,Helvetica Neue,Helvetica,sans-serif; font-size:48px; text-anchor:middle;" transform="rotate(0, 624.291, 1557.73)" x="624.291" y="1557.73">Asia</text>
</g>
<g clip-path="url(#clip6700)">
<text style="fill:#000000; fill-opacity:1; font-family:Arial,Helvetica Neue,Helvetica,sans-serif; font-size:48px; text-anchor:middle;" transform="rotate(0, 816.676, 1505.89)" x="816.676" y="1505.89">East</text>
</g>
<g clip-path="url(#clip6700)">
<text style="fill:#000000; fill-opacity:1; font-family:Arial,Helvetica Neue,Helvetica,sans-serif; font-size:48px; text-anchor:middle;" transform="rotate(0, 816.676, 1557.73)" x="816.676" y="1557.73">Europe</text>
</g>
<g clip-path="url(#clip6700)">
<text style="fill:#000000; fill-opacity:1; font-family:Arial,Helvetica Neue,Helvetica,sans-serif; font-size:48px; text-anchor:middle;" transform="rotate(0, 1009.06, 1505.89)" x="1009.06" y="1505.89">Lat</text>
</g>
<g clip-path="url(#clip6700)">
<text style="fill:#000000; fill-opacity:1; font-family:Arial,Helvetica Neue,Helvetica,sans-serif; font-size:48px; text-anchor:middle;" transform="rotate(0, 1009.06, 1557.73)" x="1009.06" y="1557.73">Am.</text>
</g>
<g clip-path="url(#clip6700)">
<text style="fill:#000000; fill-opacity:1; font-family:Arial,Helvetica Neue,Helvetica,sans-serif; font-size:48px; text-anchor:middle;" transform="rotate(0, 1201.44, 1505.89)" x="1201.44" y="1505.89">Mid</text>
</g>
<g clip-path="url(#clip6700)">
<text style="fill:#000000; fill-opacity:1; font-family:Arial,Helvetica Neue,Helvetica,sans-serif; font-size:48px; text-anchor:middle;" transform="rotate(0, 1201.44, 1557.73)" x="1201.44" y="1557.73">East</text>
</g>
<g clip-path="url(#clip6700)">
<text style="fill:#000000; fill-opacity:1; font-family:Arial,Helvetica Neue,Helvetica,sans-serif; font-size:48px; text-anchor:middle;" transform="rotate(0, 1393.83, 1505.89)" x="1393.83" y="1505.89">North</text>
</g>
<g clip-path="url(#clip6700)">
<text style="fill:#000000; fill-opacity:1; font-family:Arial,Helvetica Neue,Helvetica,sans-serif; font-size:48px; text-anchor:middle;" transform="rotate(0, 1393.83, 1557.73)" x="1393.83" y="1557.73">Am.</text>
</g>
<g clip-path="url(#clip6700)">
<text style="fill:#000000; fill-opacity:1; font-family:Arial,Helvetica Neue,Helvetica,sans-serif; font-size:48px; text-anchor:middle;" transform="rotate(0, 1586.21, 1505.89)" x="1586.21" y="1505.89">Oceania</text>
</g>
<g clip-path="url(#clip6700)">
<text style="fill:#000000; fill-opacity:1; font-family:Arial,Helvetica Neue,Helvetica,sans-serif; font-size:48px; text-anchor:middle;" transform="rotate(0, 1778.6, 1505.89)" x="1778.6" y="1505.89">Russia</text>
</g>
<g clip-path="url(#clip6700)">
<text style="fill:#000000; fill-opacity:1; font-family:Arial,Helvetica Neue,Helvetica,sans-serif; font-size:48px; text-anchor:middle;" transform="rotate(0, 1970.98, 1505.89)" x="1970.98" y="1505.89">South</text>
</g>
<g clip-path="url(#clip6700)">
<text style="fill:#000000; fill-opacity:1; font-family:Arial,Helvetica Neue,Helvetica,sans-serif; font-size:48px; text-anchor:middle;" transform="rotate(0, 1970.98, 1557.73)" x="1970.98" y="1557.73">Asia</text>
</g>
<g clip-path="url(#clip6700)">
<text style="fill:#000000; fill-opacity:1; font-family:Arial,Helvetica Neue,Helvetica,sans-serif; font-size:48px; text-anchor:middle;" transform="rotate(0, 2163.37, 1505.89)" x="2163.37" y="1505.89">West</text>
</g>
<g clip-path="url(#clip6700)">
<text style="fill:#000000; fill-opacity:1; font-family:Arial,Helvetica Neue,Helvetica,sans-serif; font-size:48px; text-anchor:middle;" transform="rotate(0, 2163.37, 1557.73)" x="2163.37" y="1557.73">Europe</text>
</g>
<g clip-path="url(#clip6700)">
<text style="fill:#000000; fill-opacity:1; font-family:Arial,Helvetica Neue,Helvetica,sans-serif; font-size:48px; text-anchor:end;" transform="rotate(0, 218.516, 1429.63)" x="218.516" y="1429.63">0.00</text>
</g>
<g clip-path="url(#clip6700)">
<text style="fill:#000000; fill-opacity:1; font-family:Arial,Helvetica Neue,Helvetica,sans-serif; font-size:48px; text-anchor:end;" transform="rotate(0, 218.516, 1193.6)" x="218.516" y="1193.6">0.05</text>
</g>
<g clip-path="url(#clip6700)">
<text style="fill:#000000; fill-opacity:1; font-family:Arial,Helvetica Neue,Helvetica,sans-serif; font-size:48px; text-anchor:end;" transform="rotate(0, 218.516, 957.569)" x="218.516" y="957.569">0.10</text>
</g>
<g clip-path="url(#clip6700)">
<text style="fill:#000000; fill-opacity:1; font-family:Arial,Helvetica Neue,Helvetica,sans-serif; font-size:48px; text-anchor:end;" transform="rotate(0, 218.516, 721.536)" x="218.516" y="721.536">0.15</text>
</g>
<g clip-path="url(#clip6700)">
<text style="fill:#000000; fill-opacity:1; font-family:Arial,Helvetica Neue,Helvetica,sans-serif; font-size:48px; text-anchor:end;" transform="rotate(0, 218.516, 485.503)" x="218.516" y="485.503">0.20</text>
</g>
<g clip-path="url(#clip6700)">
<text style="fill:#000000; fill-opacity:1; font-family:Arial,Helvetica Neue,Helvetica,sans-serif; font-size:48px; text-anchor:end;" transform="rotate(0, 218.516, 249.471)" x="218.516" y="249.471">0.25</text>
</g>
<g clip-path="url(#clip6700)">
<text style="fill:#000000; fill-opacity:1; font-family:Arial,Helvetica Neue,Helvetica,sans-serif; font-size:66px; text-anchor:middle;" transform="rotate(-90, 89.2861, 749.566)" x="89.2861" y="749.566">Cost per 20 g protein serving ($)</text>
</g>
<path clip-path="url(#clip6702)" d="
M354.953 211.952 L354.953 1412.13 L380.605 1412.13 L380.605 211.952 L354.953 211.952 L354.953 211.952  Z
  " fill="#000000" fill-rule="evenodd" fill-opacity="1"/>
<polyline clip-path="url(#clip6702)" style="stroke:#000000; stroke-width:4; stroke-opacity:1; fill:none" points="
  354.953,211.952 354.953,1412.13 380.605,1412.13 380.605,211.952 354.953,211.952 
  "/>
<path clip-path="url(#clip6702)" d="
M547.338 433.062 L547.338 1412.13 L572.989 1412.13 L572.989 433.062 L547.338 433.062 L547.338 433.062  Z
  " fill="#000000" fill-rule="evenodd" fill-opacity="1"/>
<polyline clip-path="url(#clip6702)" style="stroke:#000000; stroke-width:4; stroke-opacity:1; fill:none" points="
  547.338,433.062 547.338,1412.13 572.989,1412.13 572.989,433.062 547.338,433.062 
  "/>
<path clip-path="url(#clip6702)" d="
M739.722 1148.97 L739.722 1412.13 L765.373 1412.13 L765.373 1148.97 L739.722 1148.97 L739.722 1148.97  Z
  " fill="#000000" fill-rule="evenodd" fill-opacity="1"/>
<polyline clip-path="url(#clip6702)" style="stroke:#000000; stroke-width:4; stroke-opacity:1; fill:none" points="
  739.722,1148.97 739.722,1412.13 765.373,1412.13 765.373,1148.97 739.722,1148.97 
  "/>
<path clip-path="url(#clip6702)" d="
M932.106 390.375 L932.106 1412.13 L957.757 1412.13 L957.757 390.375 L932.106 390.375 L932.106 390.375  Z
  " fill="#000000" fill-rule="evenodd" fill-opacity="1"/>
<polyline clip-path="url(#clip6702)" style="stroke:#000000; stroke-width:4; stroke-opacity:1; fill:none" points="
  932.106,390.375 932.106,1412.13 957.757,1412.13 957.757,390.375 932.106,390.375 
  "/>
<path clip-path="url(#clip6702)" d="
M1124.49 582.056 L1124.49 1412.13 L1150.14 1412.13 L1150.14 582.056 L1124.49 582.056 L1124.49 582.056  Z
  " fill="#000000" fill-rule="evenodd" fill-opacity="1"/>
<polyline clip-path="url(#clip6702)" style="stroke:#000000; stroke-width:4; stroke-opacity:1; fill:none" points="
  1124.49,582.056 1124.49,1412.13 1150.14,1412.13 1150.14,582.056 1124.49,582.056 
  "/>
<path clip-path="url(#clip6702)" d="
M1316.87 999.208 L1316.87 1412.13 L1342.53 1412.13 L1342.53 999.208 L1316.87 999.208 L1316.87 999.208  Z
  " fill="#000000" fill-rule="evenodd" fill-opacity="1"/>
<polyline clip-path="url(#clip6702)" style="stroke:#000000; stroke-width:4; stroke-opacity:1; fill:none" points="
  1316.87,999.208 1316.87,1412.13 1342.53,1412.13 1342.53,999.208 1316.87,999.208 
  "/>
<path clip-path="url(#clip6702)" d="
M1509.26 857.259 L1509.26 1412.13 L1534.91 1412.13 L1534.91 857.259 L1509.26 857.259 L1509.26 857.259  Z
  " fill="#000000" fill-rule="evenodd" fill-opacity="1"/>
<polyline clip-path="url(#clip6702)" style="stroke:#000000; stroke-width:4; stroke-opacity:1; fill:none" points="
  1509.26,857.259 1509.26,1412.13 1534.91,1412.13 1534.91,857.259 1509.26,857.259 
  "/>
<path clip-path="url(#clip6702)" d="
M1701.64 1164.76 L1701.64 1412.13 L1727.29 1412.13 L1727.29 1164.76 L1701.64 1164.76 L1701.64 1164.76  Z
  " fill="#000000" fill-rule="evenodd" fill-opacity="1"/>
<polyline clip-path="url(#clip6702)" style="stroke:#000000; stroke-width:4; stroke-opacity:1; fill:none" points="
  1701.64,1164.76 1701.64,1412.13 1727.29,1412.13 1727.29,1164.76 1701.64,1164.76 
  "/>
<path clip-path="url(#clip6702)" d="
M1894.03 86.9982 L1894.03 1412.13 L1919.68 1412.13 L1919.68 86.9982 L1894.03 86.9982 L1894.03 86.9982  Z
  " fill="#000000" fill-rule="evenodd" fill-opacity="1"/>
<polyline clip-path="url(#clip6702)" style="stroke:#000000; stroke-width:4; stroke-opacity:1; fill:none" points="
  1894.03,86.9982 1894.03,1412.13 1919.68,1412.13 1919.68,86.9982 1894.03,86.9982 
  "/>
<path clip-path="url(#clip6702)" d="
M2086.41 1077.14 L2086.41 1412.13 L2112.06 1412.13 L2112.06 1077.14 L2086.41 1077.14 L2086.41 1077.14  Z
  " fill="#000000" fill-rule="evenodd" fill-opacity="1"/>
<polyline clip-path="url(#clip6702)" style="stroke:#000000; stroke-width:4; stroke-opacity:1; fill:none" points="
  2086.41,1077.14 2086.41,1412.13 2112.06,1412.13 2112.06,1077.14 2086.41,1077.14 
  "/>
<path clip-path="url(#clip6702)" d="
M380.605 879.662 L380.605 1412.13 L406.256 1412.13 L406.256 879.662 L380.605 879.662 L380.605 879.662  Z
  " fill="#0000ff" fill-rule="evenodd" fill-opacity="1"/>
<polyline clip-path="url(#clip6702)" style="stroke:#000000; stroke-width:4; stroke-opacity:1; fill:none" points="
  380.605,879.662 380.605,1412.13 406.256,1412.13 406.256,879.662 380.605,879.662 
  "/>
<path clip-path="url(#clip6702)" d="
M572.989 1156.65 L572.989 1412.13 L598.64 1412.13 L598.64 1156.65 L572.989 1156.65 L572.989 1156.65  Z
  " fill="#0000ff" fill-rule="evenodd" fill-opacity="1"/>
<polyline clip-path="url(#clip6702)" style="stroke:#000000; stroke-width:4; stroke-opacity:1; fill:none" points="
  572.989,1156.65 572.989,1412.13 598.64,1412.13 598.64,1156.65 572.989,1156.65 
  "/>
<path clip-path="url(#clip6702)" d="
M765.373 1285.87 L765.373 1412.13 L791.024 1412.13 L791.024 1285.87 L765.373 1285.87 L765.373 1285.87  Z
  " fill="#0000ff" fill-rule="evenodd" fill-opacity="1"/>
<polyline clip-path="url(#clip6702)" style="stroke:#000000; stroke-width:4; stroke-opacity:1; fill:none" points="
  765.373,1285.87 765.373,1412.13 791.024,1412.13 791.024,1285.87 765.373,1285.87 
  "/>
<path clip-path="url(#clip6702)" d="
M957.757 962.885 L957.757 1412.13 L983.409 1412.13 L983.409 962.885 L957.757 962.885 L957.757 962.885  Z
  " fill="#0000ff" fill-rule="evenodd" fill-opacity="1"/>
<polyline clip-path="url(#clip6702)" style="stroke:#000000; stroke-width:4; stroke-opacity:1; fill:none" points="
  957.757,962.885 957.757,1412.13 983.409,1412.13 983.409,962.885 957.757,962.885 
  "/>
<path clip-path="url(#clip6702)" d="
M1150.14 900.299 L1150.14 1412.13 L1175.79 1412.13 L1175.79 900.299 L1150.14 900.299 L1150.14 900.299  Z
  " fill="#0000ff" fill-rule="evenodd" fill-opacity="1"/>
<polyline clip-path="url(#clip6702)" style="stroke:#000000; stroke-width:4; stroke-opacity:1; fill:none" points="
  1150.14,900.299 1150.14,1412.13 1175.79,1412.13 1175.79,900.299 1150.14,900.299 
  "/>
<path clip-path="url(#clip6702)" d="
M1342.53 1267.32 L1342.53 1412.13 L1368.18 1412.13 L1368.18 1267.32 L1342.53 1267.32 L1342.53 1267.32  Z
  " fill="#0000ff" fill-rule="evenodd" fill-opacity="1"/>
<polyline clip-path="url(#clip6702)" style="stroke:#000000; stroke-width:4; stroke-opacity:1; fill:none" points="
  1342.53,1267.32 1342.53,1412.13 1368.18,1412.13 1368.18,1267.32 1342.53,1267.32 
  "/>
<path clip-path="url(#clip6702)" d="
M1534.91 1264.21 L1534.91 1412.13 L1560.56 1412.13 L1560.56 1264.21 L1534.91 1264.21 L1534.91 1264.21  Z
  " fill="#0000ff" fill-rule="evenodd" fill-opacity="1"/>
<polyline clip-path="url(#clip6702)" style="stroke:#000000; stroke-width:4; stroke-opacity:1; fill:none" points="
  1534.91,1264.21 1534.91,1412.13 1560.56,1412.13 1560.56,1264.21 1534.91,1264.21 
  "/>
<path clip-path="url(#clip6702)" d="
M1727.29 1282.07 L1727.29 1412.13 L1752.95 1412.13 L1752.95 1282.07 L1727.29 1282.07 L1727.29 1282.07  Z
  " fill="#0000ff" fill-rule="evenodd" fill-opacity="1"/>
<polyline clip-path="url(#clip6702)" style="stroke:#000000; stroke-width:4; stroke-opacity:1; fill:none" points="
  1727.29,1282.07 1727.29,1412.13 1752.95,1412.13 1752.95,1282.07 1727.29,1282.07 
  "/>
<path clip-path="url(#clip6702)" d="
M1919.68 1038.58 L1919.68 1412.13 L1945.33 1412.13 L1945.33 1038.58 L1919.68 1038.58 L1919.68 1038.58  Z
  " fill="#0000ff" fill-rule="evenodd" fill-opacity="1"/>
<polyline clip-path="url(#clip6702)" style="stroke:#000000; stroke-width:4; stroke-opacity:1; fill:none" points="
  1919.68,1038.58 1919.68,1412.13 1945.33,1412.13 1945.33,1038.58 1919.68,1038.58 
  "/>
<path clip-path="url(#clip6702)" d="
M2112.06 1286.34 L2112.06 1412.13 L2137.71 1412.13 L2137.71 1286.34 L2112.06 1286.34 L2112.06 1286.34  Z
  " fill="#0000ff" fill-rule="evenodd" fill-opacity="1"/>
<polyline clip-path="url(#clip6702)" style="stroke:#000000; stroke-width:4; stroke-opacity:1; fill:none" points="
  2112.06,1286.34 2112.06,1412.13 2137.71,1412.13 2137.71,1286.34 2112.06,1286.34 
  "/>
<path clip-path="url(#clip6702)" d="
M406.256 1352.03 L406.256 1412.13 L431.907 1412.13 L431.907 1352.03 L406.256 1352.03 L406.256 1352.03  Z
  " fill="#ffff00" fill-rule="evenodd" fill-opacity="1"/>
<polyline clip-path="url(#clip6702)" style="stroke:#000000; stroke-width:4; stroke-opacity:1; fill:none" points="
  406.256,1352.03 406.256,1412.13 431.907,1412.13 431.907,1352.03 406.256,1352.03 
  "/>
<path clip-path="url(#clip6702)" d="
M598.64 1329.1 L598.64 1412.13 L624.291 1412.13 L624.291 1329.1 L598.64 1329.1 L598.64 1329.1  Z
  " fill="#ffff00" fill-rule="evenodd" fill-opacity="1"/>
<polyline clip-path="url(#clip6702)" style="stroke:#000000; stroke-width:4; stroke-opacity:1; fill:none" points="
  598.64,1329.1 598.64,1412.13 624.291,1412.13 624.291,1329.1 598.64,1329.1 
  "/>
<path clip-path="url(#clip6702)" d="
M791.024 1371.77 L791.024 1412.13 L816.676 1412.13 L816.676 1371.77 L791.024 1371.77 L791.024 1371.77  Z
  " fill="#ffff00" fill-rule="evenodd" fill-opacity="1"/>
<polyline clip-path="url(#clip6702)" style="stroke:#000000; stroke-width:4; stroke-opacity:1; fill:none" points="
  791.024,1371.77 791.024,1412.13 816.676,1412.13 816.676,1371.77 791.024,1371.77 
  "/>
<path clip-path="url(#clip6702)" d="
M983.409 1354.17 L983.409 1412.13 L1009.06 1412.13 L1009.06 1354.17 L983.409 1354.17 L983.409 1354.17  Z
  " fill="#ffff00" fill-rule="evenodd" fill-opacity="1"/>
<polyline clip-path="url(#clip6702)" style="stroke:#000000; stroke-width:4; stroke-opacity:1; fill:none" points="
  983.409,1354.17 983.409,1412.13 1009.06,1412.13 1009.06,1354.17 983.409,1354.17 
  "/>
<path clip-path="url(#clip6702)" d="
M1175.79 1363.06 L1175.79 1412.13 L1201.44 1412.13 L1201.44 1363.06 L1175.79 1363.06 L1175.79 1363.06  Z
  " fill="#ffff00" fill-rule="evenodd" fill-opacity="1"/>
<polyline clip-path="url(#clip6702)" style="stroke:#000000; stroke-width:4; stroke-opacity:1; fill:none" points="
  1175.79,1363.06 1175.79,1412.13 1201.44,1412.13 1201.44,1363.06 1175.79,1363.06 
  "/>
<path clip-path="url(#clip6702)" d="
M1368.18 1373.71 L1368.18 1412.13 L1393.83 1412.13 L1393.83 1373.71 L1368.18 1373.71 L1368.18 1373.71  Z
  " fill="#ffff00" fill-rule="evenodd" fill-opacity="1"/>
<polyline clip-path="url(#clip6702)" style="stroke:#000000; stroke-width:4; stroke-opacity:1; fill:none" points="
  1368.18,1373.71 1368.18,1412.13 1393.83,1412.13 1393.83,1373.71 1368.18,1373.71 
  "/>
<path clip-path="url(#clip6702)" d="
M1560.56 1371.63 L1560.56 1412.13 L1586.21 1412.13 L1586.21 1371.63 L1560.56 1371.63 L1560.56 1371.63  Z
  " fill="#ffff00" fill-rule="evenodd" fill-opacity="1"/>
<polyline clip-path="url(#clip6702)" style="stroke:#000000; stroke-width:4; stroke-opacity:1; fill:none" points="
  1560.56,1371.63 1560.56,1412.13 1586.21,1412.13 1586.21,1371.63 1560.56,1371.63 
  "/>
<path clip-path="url(#clip6702)" d="
M1752.95 1387.3 L1752.95 1412.13 L1778.6 1412.13 L1778.6 1387.3 L1752.95 1387.3 L1752.95 1387.3  Z
  " fill="#ffff00" fill-rule="evenodd" fill-opacity="1"/>
<polyline clip-path="url(#clip6702)" style="stroke:#000000; stroke-width:4; stroke-opacity:1; fill:none" points="
  1752.95,1387.3 1752.95,1412.13 1778.6,1412.13 1778.6,1387.3 1752.95,1387.3 
  "/>
<path clip-path="url(#clip6702)" d="
M1945.33 1356.1 L1945.33 1412.13 L1970.98 1412.13 L1970.98 1356.1 L1945.33 1356.1 L1945.33 1356.1  Z
  " fill="#ffff00" fill-rule="evenodd" fill-opacity="1"/>
<polyline clip-path="url(#clip6702)" style="stroke:#000000; stroke-width:4; stroke-opacity:1; fill:none" points="
  1945.33,1356.1 1945.33,1412.13 1970.98,1412.13 1970.98,1356.1 1945.33,1356.1 
  "/>
<path clip-path="url(#clip6702)" d="
M2137.71 1370 L2137.71 1412.13 L2163.37 1412.13 L2163.37 1370 L2137.71 1370 L2137.71 1370  Z
  " fill="#ffff00" fill-rule="evenodd" fill-opacity="1"/>
<polyline clip-path="url(#clip6702)" style="stroke:#000000; stroke-width:4; stroke-opacity:1; fill:none" points="
  2137.71,1370 2137.71,1412.13 2163.37,1412.13 2163.37,1370 2137.71,1370 
  "/>
<path clip-path="url(#clip6702)" d="
M431.907 1268.85 L431.907 1412.13 L457.558 1412.13 L457.558 1268.85 L431.907 1268.85 L431.907 1268.85  Z
  " fill="#ffc0cb" fill-rule="evenodd" fill-opacity="1"/>
<polyline clip-path="url(#clip6702)" style="stroke:#000000; stroke-width:4; stroke-opacity:1; fill:none" points="
  431.907,1268.85 431.907,1412.13 457.558,1412.13 457.558,1268.85 431.907,1268.85 
  "/>
<path clip-path="url(#clip6702)" d="
M624.291 1264.03 L624.291 1412.13 L649.943 1412.13 L649.943 1264.03 L624.291 1264.03 L624.291 1264.03  Z
  " fill="#ffc0cb" fill-rule="evenodd" fill-opacity="1"/>
<polyline clip-path="url(#clip6702)" style="stroke:#000000; stroke-width:4; stroke-opacity:1; fill:none" points="
  624.291,1264.03 624.291,1412.13 649.943,1412.13 649.943,1264.03 624.291,1264.03 
  "/>
<path clip-path="url(#clip6702)" d="
M816.676 1320.15 L816.676 1412.13 L842.327 1412.13 L842.327 1320.15 L816.676 1320.15 L816.676 1320.15  Z
  " fill="#ffc0cb" fill-rule="evenodd" fill-opacity="1"/>
<polyline clip-path="url(#clip6702)" style="stroke:#000000; stroke-width:4; stroke-opacity:1; fill:none" points="
  816.676,1320.15 816.676,1412.13 842.327,1412.13 842.327,1320.15 816.676,1320.15 
  "/>
<path clip-path="url(#clip6702)" d="
M1009.06 1286.34 L1009.06 1412.13 L1034.71 1412.13 L1034.71 1286.34 L1009.06 1286.34 L1009.06 1286.34  Z
  " fill="#ffc0cb" fill-rule="evenodd" fill-opacity="1"/>
<polyline clip-path="url(#clip6702)" style="stroke:#000000; stroke-width:4; stroke-opacity:1; fill:none" points="
  1009.06,1286.34 1009.06,1412.13 1034.71,1412.13 1034.71,1286.34 1009.06,1286.34 
  "/>
<path clip-path="url(#clip6702)" d="
M1201.44 1262.19 L1201.44 1412.13 L1227.1 1412.13 L1227.1 1262.19 L1201.44 1262.19 L1201.44 1262.19  Z
  " fill="#ffc0cb" fill-rule="evenodd" fill-opacity="1"/>
<polyline clip-path="url(#clip6702)" style="stroke:#000000; stroke-width:4; stroke-opacity:1; fill:none" points="
  1201.44,1262.19 1201.44,1412.13 1227.1,1412.13 1227.1,1262.19 1201.44,1262.19 
  "/>
<path clip-path="url(#clip6702)" d="
M1393.83 1326.33 L1393.83 1412.13 L1419.48 1412.13 L1419.48 1326.33 L1393.83 1326.33 L1393.83 1326.33  Z
  " fill="#ffc0cb" fill-rule="evenodd" fill-opacity="1"/>
<polyline clip-path="url(#clip6702)" style="stroke:#000000; stroke-width:4; stroke-opacity:1; fill:none" points="
  1393.83,1326.33 1393.83,1412.13 1419.48,1412.13 1419.48,1326.33 1393.83,1326.33 
  "/>
<path clip-path="url(#clip6702)" d="
M1586.21 1208.26 L1586.21 1412.13 L1611.86 1412.13 L1611.86 1208.26 L1586.21 1208.26 L1586.21 1208.26  Z
  " fill="#ffc0cb" fill-rule="evenodd" fill-opacity="1"/>
<polyline clip-path="url(#clip6702)" style="stroke:#000000; stroke-width:4; stroke-opacity:1; fill:none" points="
  1586.21,1208.26 1586.21,1412.13 1611.86,1412.13 1611.86,1208.26 1586.21,1208.26 
  "/>
<path clip-path="url(#clip6702)" d="
M1778.6 1333.87 L1778.6 1412.13 L1804.25 1412.13 L1804.25 1333.87 L1778.6 1333.87 L1778.6 1333.87  Z
  " fill="#ffc0cb" fill-rule="evenodd" fill-opacity="1"/>
<polyline clip-path="url(#clip6702)" style="stroke:#000000; stroke-width:4; stroke-opacity:1; fill:none" points="
  1778.6,1333.87 1778.6,1412.13 1804.25,1412.13 1804.25,1333.87 1778.6,1333.87 
  "/>
<path clip-path="url(#clip6702)" d="
M1970.98 1218.41 L1970.98 1412.13 L1996.63 1412.13 L1996.63 1218.41 L1970.98 1218.41 L1970.98 1218.41  Z
  " fill="#ffc0cb" fill-rule="evenodd" fill-opacity="1"/>
<polyline clip-path="url(#clip6702)" style="stroke:#000000; stroke-width:4; stroke-opacity:1; fill:none" points="
  1970.98,1218.41 1970.98,1412.13 1996.63,1412.13 1996.63,1218.41 1970.98,1218.41 
  "/>
<path clip-path="url(#clip6702)" d="
M2163.37 1302.33 L2163.37 1412.13 L2189.02 1412.13 L2189.02 1302.33 L2163.37 1302.33 L2163.37 1302.33  Z
  " fill="#ffc0cb" fill-rule="evenodd" fill-opacity="1"/>
<polyline clip-path="url(#clip6702)" style="stroke:#000000; stroke-width:4; stroke-opacity:1; fill:none" points="
  2163.37,1302.33 2163.37,1412.13 2189.02,1412.13 2189.02,1302.33 2163.37,1302.33 
  "/>
<path clip-path="url(#clip6702)" d="
M457.558 1334.55 L457.558 1412.13 L483.21 1412.13 L483.21 1334.55 L457.558 1334.55 L457.558 1334.55  Z
  " fill="#ff0000" fill-rule="evenodd" fill-opacity="1"/>
<polyline clip-path="url(#clip6702)" style="stroke:#000000; stroke-width:4; stroke-opacity:1; fill:none" points="
  457.558,1334.55 457.558,1412.13 483.21,1412.13 483.21,1334.55 457.558,1334.55 
  "/>
<path clip-path="url(#clip6702)" d="
M649.943 1308.15 L649.943 1412.13 L675.594 1412.13 L675.594 1308.15 L649.943 1308.15 L649.943 1308.15  Z
  " fill="#ff0000" fill-rule="evenodd" fill-opacity="1"/>
<polyline clip-path="url(#clip6702)" style="stroke:#000000; stroke-width:4; stroke-opacity:1; fill:none" points="
  649.943,1308.15 649.943,1412.13 675.594,1412.13 675.594,1308.15 649.943,1308.15 
  "/>
<path clip-path="url(#clip6702)" d="
M842.327 1371.28 L842.327 1412.13 L867.978 1412.13 L867.978 1371.28 L842.327 1371.28 L842.327 1371.28  Z
  " fill="#ff0000" fill-rule="evenodd" fill-opacity="1"/>
<polyline clip-path="url(#clip6702)" style="stroke:#000000; stroke-width:4; stroke-opacity:1; fill:none" points="
  842.327,1371.28 842.327,1412.13 867.978,1412.13 867.978,1371.28 842.327,1371.28 
  "/>
<path clip-path="url(#clip6702)" d="
M1034.71 1352.64 L1034.71 1412.13 L1060.36 1412.13 L1060.36 1352.64 L1034.71 1352.64 L1034.71 1352.64  Z
  " fill="#ff0000" fill-rule="evenodd" fill-opacity="1"/>
<polyline clip-path="url(#clip6702)" style="stroke:#000000; stroke-width:4; stroke-opacity:1; fill:none" points="
  1034.71,1352.64 1034.71,1412.13 1060.36,1412.13 1060.36,1352.64 1034.71,1352.64 
  "/>
<path clip-path="url(#clip6702)" d="
M1227.1 1338.79 L1227.1 1412.13 L1252.75 1412.13 L1252.75 1338.79 L1227.1 1338.79 L1227.1 1338.79  Z
  " fill="#ff0000" fill-rule="evenodd" fill-opacity="1"/>
<polyline clip-path="url(#clip6702)" style="stroke:#000000; stroke-width:4; stroke-opacity:1; fill:none" points="
  1227.1,1338.79 1227.1,1412.13 1252.75,1412.13 1252.75,1338.79 1227.1,1338.79 
  "/>
<path clip-path="url(#clip6702)" d="
M1419.48 1371.05 L1419.48 1412.13 L1445.13 1412.13 L1445.13 1371.05 L1419.48 1371.05 L1419.48 1371.05  Z
  " fill="#ff0000" fill-rule="evenodd" fill-opacity="1"/>
<polyline clip-path="url(#clip6702)" style="stroke:#000000; stroke-width:4; stroke-opacity:1; fill:none" points="
  1419.48,1371.05 1419.48,1412.13 1445.13,1412.13 1445.13,1371.05 1419.48,1371.05 
  "/>
<path clip-path="url(#clip6702)" d="
M1611.86 1348.25 L1611.86 1412.13 L1637.51 1412.13 L1637.51 1348.25 L1611.86 1348.25 L1611.86 1348.25  Z
  " fill="#ff0000" fill-rule="evenodd" fill-opacity="1"/>
<polyline clip-path="url(#clip6702)" style="stroke:#000000; stroke-width:4; stroke-opacity:1; fill:none" points="
  1611.86,1348.25 1611.86,1412.13 1637.51,1412.13 1637.51,1348.25 1611.86,1348.25 
  "/>
<path clip-path="url(#clip6702)" d="
M1804.25 1374.94 L1804.25 1412.13 L1829.9 1412.13 L1829.9 1374.94 L1804.25 1374.94 L1804.25 1374.94  Z
  " fill="#ff0000" fill-rule="evenodd" fill-opacity="1"/>
<polyline clip-path="url(#clip6702)" style="stroke:#000000; stroke-width:4; stroke-opacity:1; fill:none" points="
  1804.25,1374.94 1804.25,1412.13 1829.9,1412.13 1829.9,1374.94 1804.25,1374.94 
  "/>
<path clip-path="url(#clip6702)" d="
M1996.63 1332.72 L1996.63 1412.13 L2022.28 1412.13 L2022.28 1332.72 L1996.63 1332.72 L1996.63 1332.72  Z
  " fill="#ff0000" fill-rule="evenodd" fill-opacity="1"/>
<polyline clip-path="url(#clip6702)" style="stroke:#000000; stroke-width:4; stroke-opacity:1; fill:none" points="
  1996.63,1332.72 1996.63,1412.13 2022.28,1412.13 2022.28,1332.72 1996.63,1332.72 
  "/>
<path clip-path="url(#clip6702)" d="
M2189.02 1357.63 L2189.02 1412.13 L2214.67 1412.13 L2214.67 1357.63 L2189.02 1357.63 L2189.02 1357.63  Z
  " fill="#ff0000" fill-rule="evenodd" fill-opacity="1"/>
<polyline clip-path="url(#clip6702)" style="stroke:#000000; stroke-width:4; stroke-opacity:1; fill:none" points="
  2189.02,1357.63 2189.02,1412.13 2214.67,1412.13 2214.67,1357.63 2189.02,1357.63 
  "/>
<path clip-path="url(#clip6702)" d="
M483.21 693.24 L483.21 1412.13 L508.861 1412.13 L508.861 693.24 L483.21 693.24 L483.21 693.24  Z
  " fill="#a52a2a" fill-rule="evenodd" fill-opacity="1"/>
<polyline clip-path="url(#clip6702)" style="stroke:#000000; stroke-width:4; stroke-opacity:1; fill:none" points="
  483.21,693.24 483.21,1412.13 508.861,1412.13 508.861,693.24 483.21,693.24 
  "/>
<path clip-path="url(#clip6702)" d="
M675.594 925.201 L675.594 1412.13 L701.245 1412.13 L701.245 925.201 L675.594 925.201 L675.594 925.201  Z
  " fill="#a52a2a" fill-rule="evenodd" fill-opacity="1"/>
<polyline clip-path="url(#clip6702)" style="stroke:#000000; stroke-width:4; stroke-opacity:1; fill:none" points="
  675.594,925.201 675.594,1412.13 701.245,1412.13 701.245,925.201 675.594,925.201 
  "/>
<path clip-path="url(#clip6702)" d="
M867.978 1210.51 L867.978 1412.13 L893.629 1412.13 L893.629 1210.51 L867.978 1210.51 L867.978 1210.51  Z
  " fill="#a52a2a" fill-rule="evenodd" fill-opacity="1"/>
<polyline clip-path="url(#clip6702)" style="stroke:#000000; stroke-width:4; stroke-opacity:1; fill:none" points="
  867.978,1210.51 867.978,1412.13 893.629,1412.13 893.629,1210.51 867.978,1210.51 
  "/>
<path clip-path="url(#clip6702)" d="
M1060.36 813.441 L1060.36 1412.13 L1086.01 1412.13 L1086.01 813.441 L1060.36 813.441 L1060.36 813.441  Z
  " fill="#a52a2a" fill-rule="evenodd" fill-opacity="1"/>
<polyline clip-path="url(#clip6702)" style="stroke:#000000; stroke-width:4; stroke-opacity:1; fill:none" points="
  1060.36,813.441 1060.36,1412.13 1086.01,1412.13 1086.01,813.441 1060.36,813.441 
  "/>
<path clip-path="url(#clip6702)" d="
M1252.75 617.684 L1252.75 1412.13 L1278.4 1412.13 L1278.4 617.684 L1252.75 617.684 L1252.75 617.684  Z
  " fill="#a52a2a" fill-rule="evenodd" fill-opacity="1"/>
<polyline clip-path="url(#clip6702)" style="stroke:#000000; stroke-width:4; stroke-opacity:1; fill:none" points="
  1252.75,617.684 1252.75,1412.13 1278.4,1412.13 1278.4,617.684 1252.75,617.684 
  "/>
<path clip-path="url(#clip6702)" d="
M1445.13 915.853 L1445.13 1412.13 L1470.78 1412.13 L1470.78 915.853 L1445.13 915.853 L1445.13 915.853  Z
  " fill="#a52a2a" fill-rule="evenodd" fill-opacity="1"/>
<polyline clip-path="url(#clip6702)" style="stroke:#000000; stroke-width:4; stroke-opacity:1; fill:none" points="
  1445.13,915.853 1445.13,1412.13 1470.78,1412.13 1470.78,915.853 1445.13,915.853 
  "/>
<path clip-path="url(#clip6702)" d="
M1637.51 1081.78 L1637.51 1412.13 L1663.17 1412.13 L1663.17 1081.78 L1637.51 1081.78 L1637.51 1081.78  Z
  " fill="#a52a2a" fill-rule="evenodd" fill-opacity="1"/>
<polyline clip-path="url(#clip6702)" style="stroke:#000000; stroke-width:4; stroke-opacity:1; fill:none" points="
  1637.51,1081.78 1637.51,1412.13 1663.17,1412.13 1663.17,1081.78 1637.51,1081.78 
  "/>
<path clip-path="url(#clip6702)" d="
M1829.9 981.187 L1829.9 1412.13 L1855.55 1412.13 L1855.55 981.187 L1829.9 981.187 L1829.9 981.187  Z
  " fill="#a52a2a" fill-rule="evenodd" fill-opacity="1"/>
<polyline clip-path="url(#clip6702)" style="stroke:#000000; stroke-width:4; stroke-opacity:1; fill:none" points="
  1829.9,981.187 1829.9,1412.13 1855.55,1412.13 1855.55,981.187 1829.9,981.187 
  "/>
<path clip-path="url(#clip6702)" d="
M2022.28 693.977 L2022.28 1412.13 L2047.93 1412.13 L2047.93 693.977 L2022.28 693.977 L2022.28 693.977  Z
  " fill="#a52a2a" fill-rule="evenodd" fill-opacity="1"/>
<polyline clip-path="url(#clip6702)" style="stroke:#000000; stroke-width:4; stroke-opacity:1; fill:none" points="
  2022.28,693.977 2022.28,1412.13 2047.93,1412.13 2047.93,693.977 2022.28,693.977 
  "/>
<path clip-path="url(#clip6702)" d="
M2214.67 1126.49 L2214.67 1412.13 L2240.32 1412.13 L2240.32 1126.49 L2214.67 1126.49 L2214.67 1126.49  Z
  " fill="#a52a2a" fill-rule="evenodd" fill-opacity="1"/>
<polyline clip-path="url(#clip6702)" style="stroke:#000000; stroke-width:4; stroke-opacity:1; fill:none" points="
  2214.67,1126.49 2214.67,1412.13 2240.32,1412.13 2240.32,1126.49 2214.67,1126.49 
  "/>
<path clip-path="url(#clip6700)" d="
M1949.73 459.868 L2382.4 459.868 L2382.4 142.348 L1949.73 142.348  Z
  " fill="#000000" fill-rule="evenodd" fill-opacity="0"/>
<polyline clip-path="url(#clip6700)" style="stroke:#000000; stroke-width:4; stroke-opacity:0; fill:none" points="
  1949.73,459.868 2382.4,459.868 2382.4,142.348 1949.73,142.348 1949.73,459.868 
  "/>
<path clip-path="url(#clip6700)" d="
M1973.73 205.852 L2117.73 205.852 L2117.73 169.564 L1973.73 169.564 L1973.73 205.852  Z
  " fill="#000000" fill-rule="evenodd" fill-opacity="1"/>
<polyline clip-path="url(#clip6700)" style="stroke:#000000; stroke-width:4; stroke-opacity:1; fill:none" points="
  1973.73,205.852 2117.73,205.852 2117.73,169.564 1973.73,169.564 1973.73,205.852 
  "/>
<g clip-path="url(#clip6700)">
<text style="fill:#000000; fill-opacity:1; font-family:Arial,Helvetica Neue,Helvetica,sans-serif; font-size:36px; text-anchor:start;" transform="rotate(0, 2141.73, 200.708)" x="2141.73" y="200.708">Beef</text>
</g>
<path clip-path="url(#clip6700)" d="
M1973.73 251.212 L2117.73 251.212 L2117.73 214.924 L1973.73 214.924 L1973.73 251.212  Z
  " fill="#0000ff" fill-rule="evenodd" fill-opacity="1"/>
<polyline clip-path="url(#clip6700)" style="stroke:#000000; stroke-width:4; stroke-opacity:1; fill:none" points="
  1973.73,251.212 2117.73,251.212 2117.73,214.924 1973.73,214.924 1973.73,251.212 
  "/>
<g clip-path="url(#clip6700)">
<text style="fill:#000000; fill-opacity:1; font-family:Arial,Helvetica Neue,Helvetica,sans-serif; font-size:36px; text-anchor:start;" transform="rotate(0, 2141.73, 246.068)" x="2141.73" y="246.068">Dairy</text>
</g>
<path clip-path="url(#clip6700)" d="
M1973.73 296.572 L2117.73 296.572 L2117.73 260.284 L1973.73 260.284 L1973.73 296.572  Z
  " fill="#ffff00" fill-rule="evenodd" fill-opacity="1"/>
<polyline clip-path="url(#clip6700)" style="stroke:#000000; stroke-width:4; stroke-opacity:1; fill:none" points="
  1973.73,296.572 2117.73,296.572 2117.73,260.284 1973.73,260.284 1973.73,296.572 
  "/>
<g clip-path="url(#clip6700)">
<text style="fill:#000000; fill-opacity:1; font-family:Arial,Helvetica Neue,Helvetica,sans-serif; font-size:36px; text-anchor:start;" transform="rotate(0, 2141.73, 291.428)" x="2141.73" y="291.428">Eggs</text>
</g>
<path clip-path="url(#clip6700)" d="
M1973.73 341.932 L2117.73 341.932 L2117.73 305.644 L1973.73 305.644 L1973.73 341.932  Z
  " fill="#ffc0cb" fill-rule="evenodd" fill-opacity="1"/>
<polyline clip-path="url(#clip6700)" style="stroke:#000000; stroke-width:4; stroke-opacity:1; fill:none" points="
  1973.73,341.932 2117.73,341.932 2117.73,305.644 1973.73,305.644 1973.73,341.932 
  "/>
<g clip-path="url(#clip6700)">
<text style="fill:#000000; fill-opacity:1; font-family:Arial,Helvetica Neue,Helvetica,sans-serif; font-size:36px; text-anchor:start;" transform="rotate(0, 2141.73, 336.788)" x="2141.73" y="336.788">Pork</text>
</g>
<path clip-path="url(#clip6700)" d="
M1973.73 387.292 L2117.73 387.292 L2117.73 351.004 L1973.73 351.004 L1973.73 387.292  Z
  " fill="#ff0000" fill-rule="evenodd" fill-opacity="1"/>
<polyline clip-path="url(#clip6700)" style="stroke:#000000; stroke-width:4; stroke-opacity:1; fill:none" points="
  1973.73,387.292 2117.73,387.292 2117.73,351.004 1973.73,351.004 1973.73,387.292 
  "/>
<g clip-path="url(#clip6700)">
<text style="fill:#000000; fill-opacity:1; font-family:Arial,Helvetica Neue,Helvetica,sans-serif; font-size:36px; text-anchor:start;" transform="rotate(0, 2141.73, 382.148)" x="2141.73" y="382.148">Poultry</text>
</g>
<path clip-path="url(#clip6700)" d="
M1973.73 432.652 L2117.73 432.652 L2117.73 396.364 L1973.73 396.364 L1973.73 432.652  Z
  " fill="#a52a2a" fill-rule="evenodd" fill-opacity="1"/>
<polyline clip-path="url(#clip6700)" style="stroke:#000000; stroke-width:4; stroke-opacity:1; fill:none" points="
  1973.73,432.652 2117.73,432.652 2117.73,396.364 1973.73,396.364 1973.73,432.652 
  "/>
<g clip-path="url(#clip6700)">
<text style="fill:#000000; fill-opacity:1; font-family:Arial,Helvetica Neue,Helvetica,sans-serif; font-size:36px; text-anchor:start;" transform="rotate(0, 2141.73, 427.508)" x="2141.73" y="427.508">Sheep/Goat</text>
</g>
</svg>
