<?xml version="1.0" encoding="utf-8"?>
<svg xmlns="http://www.w3.org/2000/svg" xmlns:xlink="http://www.w3.org/1999/xlink" width="600" height="400" viewBox="0 0 2400 1600">
<defs>
  <clipPath id="clip8200">
    <rect x="0" y="0" width="2400" height="1600"/>
  </clipPath>
</defs>
<path clip-path="url(#clip8200)" d="
M0 1600 L2400 1600 L2400 0 L0 0  Z
  " fill="#ffffff" fill-rule="evenodd" fill-opacity="1"/>
<defs>
  <clipPath id="clip8201">
    <rect x="480" y="0" width="1681" height="1600"/>
  </clipPath>
</defs>
<path clip-path="url(#clip8200)" d="
M278.067 1376.69 L2352.76 1376.69 L2352.76 47.2441 L278.067 47.2441  Z
  " fill="#ffffff" fill-rule="evenodd" fill-opacity="1"/>
<defs>
  <clipPath id="clip8202">
    <rect x="278" y="47" width="2076" height="1330"/>
  </clipPath>
</defs>
<polyline clip-path="url(#clip8200)" style="stroke:#000000; stroke-width:4; stroke-opacity:1; fill:none" points="
  278.067,1376.69 2352.76,1376.69 
  "/>
<polyline clip-path="url(#clip8200)" style="stroke:#000000; stroke-width:4; stroke-opacity:1; fill:none" points="
  278.067,1376.69 278.067,47.2441 
  "/>
<polyline clip-path="url(#clip8200)" style="stroke:#000000; stroke-width:4; stroke-opacity:1; fill:none" points="
  278.067,1376.69 278.067,1360.73 
  "/>
<polyline clip-path="url(#clip8200)" style="stroke:#000000; stroke-width:4; stroke-opacity:1; fill:none" points="
  485.536,1376.69 485.536,1360.73 
  "/>
<polyline clip-path="url(#clip8200)" style="stroke:#000000; stroke-width:4; stroke-opacity:1; fill:none" points="
  693.005,1376.69 693.005,1360.73 
  "/>
<polyline clip-path="url(#clip8200)" style="stroke:#000000; stroke-width:4; stroke-opacity:1; fill:none" points="
  900.474,1376.69 900.474,1360.73 
  "/>
<polyline clip-path="url(#clip8200)" style="stroke:#000000; stroke-width:4; stroke-opacity:1; fill:none" points="
  1107.94,1376.69 1107.94,1360.73 
  "/>
<polyline clip-path="url(#clip8200)" style="stroke:#000000; stroke-width:4; stroke-opacity:1; fill:none" points="
  1315.41,1376.69 1315.41,1360.73 
  "/>
<polyline clip-path="url(#clip8200)" style="stroke:#000000; stroke-width:4; stroke-opacity:1; fill:none" points="
  1522.88,1376.69 1522.88,1360.73 
  "/>
<polyline clip-path="url(#clip8200)" style="stroke:#000000; stroke-width:4; stroke-opacity:1; fill:none" points="
  1730.35,1376.69 1730.35,1360.73 
  "/>
<polyline clip-path="url(#clip8200)" style="stroke:#000000; stroke-width:4; stroke-opacity:1; fill:none" points="
  1937.82,1376.69 1937.82,1360.73 
  "/>
<polyline clip-path="url(#clip8200)" style="stroke:#000000; stroke-width:4; stroke-opacity:1; fill:none" points="
  2145.29,1376.69 2145.29,1360.73 
  "/>
<polyline clip-path="url(#clip8200)" style="stroke:#000000; stroke-width:4; stroke-opacity:1; fill:none" points="
  2352.76,1376.69 2352.76,1360.73 
  "/>
<polyline clip-path="url(#clip8200)" style="stroke:#000000; stroke-width:4; stroke-opacity:1; fill:none" points="
  278.067,1351.73 302.963,1351.73 
  "/>
<polyline clip-path="url(#clip8200)" style="stroke:#000000; stroke-width:4; stroke-opacity:1; fill:none" points="
  278.067,1225.04 302.963,1225.04 
  "/>
<polyline clip-path="url(#clip8200)" style="stroke:#000000; stroke-width:4; stroke-opacity:1; fill:none" points="
  278.067,1098.36 302.963,1098.36 
  "/>
<polyline clip-path="url(#clip8200)" style="stroke:#000000; stroke-width:4; stroke-opacity:1; fill:none" points="
  278.067,971.672 302.963,971.672 
  "/>
<polyline clip-path="url(#clip8200)" style="stroke:#000000; stroke-width:4; stroke-opacity:1; fill:none" points="
  278.067,844.986 302.963,844.986 
  "/>
<polyline clip-path="url(#clip8200)" style="stroke:#000000; stroke-width:4; stroke-opacity:1; fill:none" points="
  278.067,718.3 302.963,718.3 
  "/>
<polyline clip-path="url(#clip8200)" style="stroke:#000000; stroke-width:4; stroke-opacity:1; fill:none" points="
  278.067,591.614 302.963,591.614 
  "/>
<polyline clip-path="url(#clip8200)" style="stroke:#000000; stroke-width:4; stroke-opacity:1; fill:none" points="
  278.067,464.928 302.963,464.928 
  "/>
<polyline clip-path="url(#clip8200)" style="stroke:#000000; stroke-width:4; stroke-opacity:1; fill:none" points="
  278.067,338.242 302.963,338.242 
  "/>
<polyline clip-path="url(#clip8200)" style="stroke:#000000; stroke-width:4; stroke-opacity:1; fill:none" points="
  278.067,211.556 302.963,211.556 
  "/>
<polyline clip-path="url(#clip8200)" style="stroke:#000000; stroke-width:4; stroke-opacity:1; fill:none" points="
  278.067,84.8698 302.963,84.8698 
  "/>
<g clip-path="url(#clip8200)">
<text style="fill:#000000; fill-opacity:1; font-family:Arial,Helvetica Neue,Helvetica,sans-serif; font-size:48px; text-anchor:middle;" transform="rotate(0, 278.067, 1430.69)" x="278.067" y="1430.69">0</text>
</g>
<g clip-path="url(#clip8200)">
<text style="fill:#000000; fill-opacity:1; font-family:Arial,Helvetica Neue,Helvetica,sans-serif; font-size:48px; text-anchor:middle;" transform="rotate(0, 485.536, 1430.69)" x="485.536" y="1430.69">10</text>
</g>
<g clip-path="url(#clip8200)">
<text style="fill:#000000; fill-opacity:1; font-family:Arial,Helvetica Neue,Helvetica,sans-serif; font-size:48px; text-anchor:middle;" transform="rotate(0, 693.005, 1430.69)" x="693.005" y="1430.69">20</text>
</g>
<g clip-path="url(#clip8200)">
<text style="fill:#000000; fill-opacity:1; font-family:Arial,Helvetica Neue,Helvetica,sans-serif; font-size:48px; text-anchor:middle;" transform="rotate(0, 900.474, 1430.69)" x="900.474" y="1430.69">30</text>
</g>
<g clip-path="url(#clip8200)">
<text style="fill:#000000; fill-opacity:1; font-family:Arial,Helvetica Neue,Helvetica,sans-serif; font-size:48px; text-anchor:middle;" transform="rotate(0, 1107.94, 1430.69)" x="1107.94" y="1430.69">40</text>
</g>
<g clip-path="url(#clip8200)">
<text style="fill:#000000; fill-opacity:1; font-family:Arial,Helvetica Neue,Helvetica,sans-serif; font-size:48px; text-anchor:middle;" transform="rotate(0, 1315.41, 1430.69)" x="1315.41" y="1430.69">50</text>
</g>
<g clip-path="url(#clip8200)">
<text style="fill:#000000; fill-opacity:1; font-family:Arial,Helvetica Neue,Helvetica,sans-serif; font-size:48px; text-anchor:middle;" transform="rotate(0, 1522.88, 1430.69)" x="1522.88" y="1430.69">60</text>
</g>
<g clip-path="url(#clip8200)">
<text style="fill:#000000; fill-opacity:1; font-family:Arial,Helvetica Neue,Helvetica,sans-serif; font-size:48px; text-anchor:middle;" transform="rotate(0, 1730.35, 1430.69)" x="1730.35" y="1430.69">70</text>
</g>
<g clip-path="url(#clip8200)">
<text style="fill:#000000; fill-opacity:1; font-family:Arial,Helvetica Neue,Helvetica,sans-serif; font-size:48px; text-anchor:middle;" transform="rotate(0, 1937.82, 1430.69)" x="1937.82" y="1430.69">80</text>
</g>
<g clip-path="url(#clip8200)">
<text style="fill:#000000; fill-opacity:1; font-family:Arial,Helvetica Neue,Helvetica,sans-serif; font-size:48px; text-anchor:middle;" transform="rotate(0, 2145.29, 1430.69)" x="2145.29" y="1430.69">90</text>
</g>
<g clip-path="url(#clip8200)">
<text style="fill:#000000; fill-opacity:1; font-family:Arial,Helvetica Neue,Helvetica,sans-serif; font-size:48px; text-anchor:middle;" transform="rotate(0, 2352.76, 1430.69)" x="2352.76" y="1430.69">100</text>
</g>
<g clip-path="url(#clip8200)">
<text style="fill:#000000; fill-opacity:1; font-family:Arial,Helvetica Neue,Helvetica,sans-serif; font-size:48px; text-anchor:end;" transform="rotate(0, 254.067, 1369.23)" x="254.067" y="1369.23">0</text>
</g>
<g clip-path="url(#clip8200)">
<text style="fill:#000000; fill-opacity:1; font-family:Arial,Helvetica Neue,Helvetica,sans-serif; font-size:48px; text-anchor:end;" transform="rotate(0, 254.067, 1242.54)" x="254.067" y="1242.54">10</text>
</g>
<g clip-path="url(#clip8200)">
<text style="fill:#000000; fill-opacity:1; font-family:Arial,Helvetica Neue,Helvetica,sans-serif; font-size:48px; text-anchor:end;" transform="rotate(0, 254.067, 1115.86)" x="254.067" y="1115.86">20</text>
</g>
<g clip-path="url(#clip8200)">
<text style="fill:#000000; fill-opacity:1; font-family:Arial,Helvetica Neue,Helvetica,sans-serif; font-size:48px; text-anchor:end;" transform="rotate(0, 254.067, 989.172)" x="254.067" y="989.172">30</text>
</g>
<g clip-path="url(#clip8200)">
<text style="fill:#000000; fill-opacity:1; font-family:Arial,Helvetica Neue,Helvetica,sans-serif; font-size:48px; text-anchor:end;" transform="rotate(0, 254.067, 862.486)" x="254.067" y="862.486">40</text>
</g>
<g clip-path="url(#clip8200)">
<text style="fill:#000000; fill-opacity:1; font-family:Arial,Helvetica Neue,Helvetica,sans-serif; font-size:48px; text-anchor:end;" transform="rotate(0, 254.067, 735.8)" x="254.067" y="735.8">50</text>
</g>
<g clip-path="url(#clip8200)">
<text style="fill:#000000; fill-opacity:1; font-family:Arial,Helvetica Neue,Helvetica,sans-serif; font-size:48px; text-anchor:end;" transform="rotate(0, 254.067, 609.114)" x="254.067" y="609.114">60</text>
</g>
<g clip-path="url(#clip8200)">
<text style="fill:#000000; fill-opacity:1; font-family:Arial,Helvetica Neue,Helvetica,sans-serif; font-size:48px; text-anchor:end;" transform="rotate(0, 254.067, 482.428)" x="254.067" y="482.428">70</text>
</g>
<g clip-path="url(#clip8200)">
<text style="fill:#000000; fill-opacity:1; font-family:Arial,Helvetica Neue,Helvetica,sans-serif; font-size:48px; text-anchor:end;" transform="rotate(0, 254.067, 355.742)" x="254.067" y="355.742">80</text>
</g>
<g clip-path="url(#clip8200)">
<text style="fill:#000000; fill-opacity:1; font-family:Arial,Helvetica Neue,Helvetica,sans-serif; font-size:48px; text-anchor:end;" transform="rotate(0, 254.067, 229.056)" x="254.067" y="229.056">90</text>
</g>
<g clip-path="url(#clip8200)">
<text style="fill:#000000; fill-opacity:1; font-family:Arial,Helvetica Neue,Helvetica,sans-serif; font-size:48px; text-anchor:end;" transform="rotate(0, 254.067, 102.37)" x="254.067" y="102.37">100</text>
</g>
<g clip-path="url(#clip8200)">
<text style="fill:#000000; fill-opacity:1; font-family:Arial,Helvetica Neue,Helvetica,sans-serif; font-size:66px; text-anchor:middle;" transform="rotate(0, 1315.41, 1512.67)" x="1315.41" y="1512.67">Industrial Emissions </text>
</g>
<g clip-path="url(#clip8200)">
<text style="fill:#000000; fill-opacity:1; font-family:Arial,Helvetica Neue,Helvetica,sans-serif; font-size:66px; text-anchor:middle;" transform="rotate(0, 1315.41, 1583.95)" x="1315.41" y="1583.95"> (% of Baseline)</text>
</g>
<g clip-path="url(#clip8200)">
<text style="fill:#000000; fill-opacity:1; font-family:Arial,Helvetica Neue,Helvetica,sans-serif; font-size:66px; text-anchor:middle;" transform="rotate(-90, 64.8202, 711.965)" x="64.8202" y="711.965">Agricultural Emissions </text>
</g>
<g clip-path="url(#clip8200)">
<text style="fill:#000000; fill-opacity:1; font-family:Arial,Helvetica Neue,Helvetica,sans-serif; font-size:66px; text-anchor:middle;" transform="rotate(-90, 136.1, 711.965)" x="136.1" y="711.965"> (% of Baseline)</text>
</g>
<polyline clip-path="url(#clip8202)" style="stroke:#000000; stroke-width:8; stroke-opacity:1; fill:none" points="
  278.067,84.8698 290.515,122.876 302.963,160.881 315.412,198.887 327.86,236.893 340.308,274.899 352.756,312.905 365.204,350.91 381.802,388.916 394.25,426.922 
  406.698,464.928 419.146,502.934 431.594,540.939 448.192,578.945 460.64,616.951 473.088,654.957 485.536,692.962 502.134,730.968 514.582,768.974 527.03,806.98 
  539.478,844.986 556.075,882.991 568.524,920.997 585.121,959.003 597.569,997.009 614.167,1035.01 626.615,1073.02 643.212,1111.03 655.661,1149.03 672.258,1187.04 
  688.856,1225.04 701.304,1263.05 717.901,1301.06 734.499,1339.06 
  "/>
<polyline clip-path="url(#clip8202)" style="stroke:#000000; stroke-width:8; stroke-opacity:1; fill:none" stroke-dasharray="32, 20" points="
  659.81,84.8698 672.258,122.876 684.706,160.881 697.154,198.887 709.602,236.893 722.051,274.899 734.499,312.905 746.947,350.91 763.544,388.916 775.992,426.922 
  788.441,464.928 800.889,502.934 817.486,540.939 829.934,578.945 842.383,616.951 858.98,654.957 871.428,692.962 883.876,730.968 900.474,768.974 912.922,806.98 
  929.519,844.986 941.968,882.991 958.565,920.997 971.013,959.003 987.611,997.009 1004.21,1035.01 1016.66,1073.02 1033.25,1111.03 1049.85,1149.03 1066.45,1187.04 
  1083.05,1225.04 1099.64,1263.05 1116.24,1301.06 1132.84,1339.06 
  "/>
<polyline clip-path="url(#clip8202)" style="stroke:#000000; stroke-width:8; stroke-opacity:1; fill:none" stroke-dasharray="32, 16, 4, 16" points="
  1054,84.8698 1066.45,122.876 1078.9,160.881 1091.35,198.887 1107.94,236.893 1120.39,274.899 1132.84,312.905 1149.44,350.91 1161.88,388.916 1174.33,426.922 
  1190.93,464.928 1203.38,502.934 1219.98,540.939 1232.42,578.945 1249.02,616.951 1261.47,654.957 1278.07,692.962 1294.66,730.968 1307.11,768.974 1323.71,806.98 
  1340.31,844.986 1352.76,882.991 1369.35,920.997 1385.95,959.003 1402.55,997.009 1419.15,1035.01 1435.74,1073.02 1452.34,1111.03 1468.94,1149.03 1485.54,1187.04 
  1502.13,1225.04 1518.73,1263.05 1535.33,1301.06 1556.08,1339.06 
  "/>
<polyline clip-path="url(#clip8202)" style="stroke:#000000; stroke-width:8; stroke-opacity:1; fill:none" stroke-dasharray="4, 8" points="
  1477.24,84.8698 1489.69,122.876 1506.28,160.881 1518.73,198.887 1535.33,236.893 1547.78,274.899 1564.37,312.905 1576.82,350.91 1593.42,388.916 1610.02,426.922 
  1622.47,464.928 1639.06,502.934 1655.66,540.939 1668.11,578.945 1684.71,616.951 1701.3,654.957 1717.9,692.962 1734.5,730.968 1746.95,768.974 1763.54,806.98 
  1780.14,844.986 1796.74,882.991 1813.34,920.997 1829.93,959.003 1850.68,997.009 1867.28,1035.01 1883.88,1073.02 1900.47,1111.03 1917.07,1149.03 1937.82,1187.04 
  1954.42,1225.04 1975.16,1263.05 1991.76,1301.06 2012.51,1339.06 
  "/>
<path clip-path="url(#clip8200)" d="
M1872.19 433.164 L2280.76 433.164 L2280.76 130.764 L1872.19 130.764  Z
  " fill="#ffffff" fill-rule="evenodd" fill-opacity="1"/>
<polyline clip-path="url(#clip8200)" style="stroke:#000000; stroke-width:4; stroke-opacity:1; fill:none" points="
  1872.19,433.164 2280.76,433.164 2280.76,130.764 1872.19,130.764 1872.19,433.164 
  "/>
<polyline clip-path="url(#clip8200)" style="stroke:#000000; stroke-width:8; stroke-opacity:1; fill:none" points="
  1896.19,191.244 2040.19,191.244 
  "/>
<g clip-path="url(#clip8200)">
<text style="fill:#000000; fill-opacity:1; font-family:Arial,Helvetica Neue,Helvetica,sans-serif; font-size:48px; text-anchor:start;" transform="rotate(0, 2064.19, 208.744)" x="2064.19" y="208.744">1.5 Deg</text>
</g>
<polyline clip-path="url(#clip8200)" style="stroke:#000000; stroke-width:8; stroke-opacity:1; fill:none" stroke-dasharray="32, 20" points="
  1896.19,251.724 2040.19,251.724 
  "/>
<g clip-path="url(#clip8200)">
<text style="fill:#000000; fill-opacity:1; font-family:Arial,Helvetica Neue,Helvetica,sans-serif; font-size:48px; text-anchor:start;" transform="rotate(0, 2064.19, 269.224)" x="2064.19" y="269.224">2 Deg</text>
</g>
<polyline clip-path="url(#clip8200)" style="stroke:#000000; stroke-width:8; stroke-opacity:1; fill:none" stroke-dasharray="32, 16, 4, 16" points="
  1896.19,312.204 2040.19,312.204 
  "/>
<g clip-path="url(#clip8200)">
<text style="fill:#000000; fill-opacity:1; font-family:Arial,Helvetica Neue,Helvetica,sans-serif; font-size:48px; text-anchor:start;" transform="rotate(0, 2064.19, 329.704)" x="2064.19" y="329.704">2.5 Deg</text>
</g>
<polyline clip-path="url(#clip8200)" style="stroke:#000000; stroke-width:8; stroke-opacity:1; fill:none" stroke-dasharray="4, 8" points="
  1896.19,372.684 2040.19,372.684 
  "/>
<g clip-path="url(#clip8200)">
<text style="fill:#000000; fill-opacity:1; font-family:Arial,Helvetica Neue,Helvetica,sans-serif; font-size:48px; text-anchor:start;" transform="rotate(0, 2064.19, 390.184)" x="2064.19" y="390.184">3 Deg</text>
</g>
</svg>
