<?xml version="1.0" encoding="utf-8"?>
<svg xmlns="http://www.w3.org/2000/svg" xmlns:xlink="http://www.w3.org/1999/xlink" width="600" height="400" viewBox="0 0 2400 1600">
<defs>
  <clipPath id="clip6200">
    <rect x="0" y="0" width="2400" height="1600"/>
  </clipPath>
</defs>
<path clip-path="url(#clip6200)" d="
M0 1600 L2400 1600 L2400 0 L0 0  Z
  " fill="#ffffff" fill-rule="evenodd" fill-opacity="1"/>
<defs>
  <clipPath id="clip6201">
    <rect x="480" y="0" width="1681" height="1600"/>
  </clipPath>
</defs>
<path clip-path="url(#clip6200)" d="
M278.067 1376.69 L2352.76 1376.69 L2352.76 47.2441 L278.067 47.2441  Z
  " fill="#ffffff" fill-rule="evenodd" fill-opacity="1"/>
<defs>
  <clipPath id="clip6202">
    <rect x="278" y="47" width="2076" height="1330"/>
  </clipPath>
</defs>
<polyline clip-path="url(#clip6200)" style="stroke:#000000; stroke-width:4; stroke-opacity:1; fill:none" points="
  278.067,1376.69 2352.76,1376.69 
  "/>
<polyline clip-path="url(#clip6200)" style="stroke:#000000; stroke-width:4; stroke-opacity:1; fill:none" points="
  278.067,1376.69 278.067,47.2441 
  "/>
<polyline clip-path="url(#clip6200)" style="stroke:#000000; stroke-width:4; stroke-opacity:1; fill:none" points="
  278.067,1376.69 278.067,1360.73 
  "/>
<polyline clip-path="url(#clip6200)" style="stroke:#000000; stroke-width:4; stroke-opacity:1; fill:none" points="
  485.536,1376.69 485.536,1360.73 
  "/>
<polyline clip-path="url(#clip6200)" style="stroke:#000000; stroke-width:4; stroke-opacity:1; fill:none" points="
  693.005,1376.69 693.005,1360.73 
  "/>
<polyline clip-path="url(#clip6200)" style="stroke:#000000; stroke-width:4; stroke-opacity:1; fill:none" points="
  900.474,1376.69 900.474,1360.73 
  "/>
<polyline clip-path="url(#clip6200)" style="stroke:#000000; stroke-width:4; stroke-opacity:1; fill:none" points="
  1107.94,1376.69 1107.94,1360.73 
  "/>
<polyline clip-path="url(#clip6200)" style="stroke:#000000; stroke-width:4; stroke-opacity:1; fill:none" points="
  1315.41,1376.69 1315.41,1360.73 
  "/>
<polyline clip-path="url(#clip6200)" style="stroke:#000000; stroke-width:4; stroke-opacity:1; fill:none" points="
  1522.88,1376.69 1522.88,1360.73 
  "/>
<polyline clip-path="url(#clip6200)" style="stroke:#000000; stroke-width:4; stroke-opacity:1; fill:none" points="
  1730.35,1376.69 1730.35,1360.73 
  "/>
<polyline clip-path="url(#clip6200)" style="stroke:#000000; stroke-width:4; stroke-opacity:1; fill:none" points="
  1937.82,1376.69 1937.82,1360.73 
  "/>
<polyline clip-path="url(#clip6200)" style="stroke:#000000; stroke-width:4; stroke-opacity:1; fill:none" points="
  2145.29,1376.69 2145.29,1360.73 
  "/>
<polyline clip-path="url(#clip6200)" style="stroke:#000000; stroke-width:4; stroke-opacity:1; fill:none" points="
  2352.76,1376.69 2352.76,1360.73 
  "/>
<polyline clip-path="url(#clip6200)" style="stroke:#000000; stroke-width:4; stroke-opacity:1; fill:none" points="
  278.067,1339.06 302.963,1339.06 
  "/>
<polyline clip-path="url(#clip6200)" style="stroke:#000000; stroke-width:4; stroke-opacity:1; fill:none" points="
  278.067,1213.64 302.963,1213.64 
  "/>
<polyline clip-path="url(#clip6200)" style="stroke:#000000; stroke-width:4; stroke-opacity:1; fill:none" points="
  278.067,1088.22 302.963,1088.22 
  "/>
<polyline clip-path="url(#clip6200)" style="stroke:#000000; stroke-width:4; stroke-opacity:1; fill:none" points="
  278.067,962.804 302.963,962.804 
  "/>
<polyline clip-path="url(#clip6200)" style="stroke:#000000; stroke-width:4; stroke-opacity:1; fill:none" points="
  278.067,837.385 302.963,837.385 
  "/>
<polyline clip-path="url(#clip6200)" style="stroke:#000000; stroke-width:4; stroke-opacity:1; fill:none" points="
  278.067,711.965 302.963,711.965 
  "/>
<polyline clip-path="url(#clip6200)" style="stroke:#000000; stroke-width:4; stroke-opacity:1; fill:none" points="
  278.067,586.546 302.963,586.546 
  "/>
<polyline clip-path="url(#clip6200)" style="stroke:#000000; stroke-width:4; stroke-opacity:1; fill:none" points="
  278.067,461.127 302.963,461.127 
  "/>
<polyline clip-path="url(#clip6200)" style="stroke:#000000; stroke-width:4; stroke-opacity:1; fill:none" points="
  278.067,335.708 302.963,335.708 
  "/>
<polyline clip-path="url(#clip6200)" style="stroke:#000000; stroke-width:4; stroke-opacity:1; fill:none" points="
  278.067,210.289 302.963,210.289 
  "/>
<polyline clip-path="url(#clip6200)" style="stroke:#000000; stroke-width:4; stroke-opacity:1; fill:none" points="
  278.067,84.8698 302.963,84.8698 
  "/>
<g clip-path="url(#clip6200)">
<text style="fill:#000000; fill-opacity:1; font-family:Arial,Helvetica Neue,Helvetica,sans-serif; font-size:48px; text-anchor:middle;" transform="rotate(0, 278.067, 1430.69)" x="278.067" y="1430.69">0</text>
</g>
<g clip-path="url(#clip6200)">
<text style="fill:#000000; fill-opacity:1; font-family:Arial,Helvetica Neue,Helvetica,sans-serif; font-size:48px; text-anchor:middle;" transform="rotate(0, 485.536, 1430.69)" x="485.536" y="1430.69">10</text>
</g>
<g clip-path="url(#clip6200)">
<text style="fill:#000000; fill-opacity:1; font-family:Arial,Helvetica Neue,Helvetica,sans-serif; font-size:48px; text-anchor:middle;" transform="rotate(0, 693.005, 1430.69)" x="693.005" y="1430.69">20</text>
</g>
<g clip-path="url(#clip6200)">
<text style="fill:#000000; fill-opacity:1; font-family:Arial,Helvetica Neue,Helvetica,sans-serif; font-size:48px; text-anchor:middle;" transform="rotate(0, 900.474, 1430.69)" x="900.474" y="1430.69">30</text>
</g>
<g clip-path="url(#clip6200)">
<text style="fill:#000000; fill-opacity:1; font-family:Arial,Helvetica Neue,Helvetica,sans-serif; font-size:48px; text-anchor:middle;" transform="rotate(0, 1107.94, 1430.69)" x="1107.94" y="1430.69">40</text>
</g>
<g clip-path="url(#clip6200)">
<text style="fill:#000000; fill-opacity:1; font-family:Arial,Helvetica Neue,Helvetica,sans-serif; font-size:48px; text-anchor:middle;" transform="rotate(0, 1315.41, 1430.69)" x="1315.41" y="1430.69">50</text>
</g>
<g clip-path="url(#clip6200)">
<text style="fill:#000000; fill-opacity:1; font-family:Arial,Helvetica Neue,Helvetica,sans-serif; font-size:48px; text-anchor:middle;" transform="rotate(0, 1522.88, 1430.69)" x="1522.88" y="1430.69">60</text>
</g>
<g clip-path="url(#clip6200)">
<text style="fill:#000000; fill-opacity:1; font-family:Arial,Helvetica Neue,Helvetica,sans-serif; font-size:48px; text-anchor:middle;" transform="rotate(0, 1730.35, 1430.69)" x="1730.35" y="1430.69">70</text>
</g>
<g clip-path="url(#clip6200)">
<text style="fill:#000000; fill-opacity:1; font-family:Arial,Helvetica Neue,Helvetica,sans-serif; font-size:48px; text-anchor:middle;" transform="rotate(0, 1937.82, 1430.69)" x="1937.82" y="1430.69">80</text>
</g>
<g clip-path="url(#clip6200)">
<text style="fill:#000000; fill-opacity:1; font-family:Arial,Helvetica Neue,Helvetica,sans-serif; font-size:48px; text-anchor:middle;" transform="rotate(0, 2145.29, 1430.69)" x="2145.29" y="1430.69">90</text>
</g>
<g clip-path="url(#clip6200)">
<text style="fill:#000000; fill-opacity:1; font-family:Arial,Helvetica Neue,Helvetica,sans-serif; font-size:48px; text-anchor:middle;" transform="rotate(0, 2352.76, 1430.69)" x="2352.76" y="1430.69">100</text>
</g>
<g clip-path="url(#clip6200)">
<text style="fill:#000000; fill-opacity:1; font-family:Arial,Helvetica Neue,Helvetica,sans-serif; font-size:48px; text-anchor:end;" transform="rotate(0, 254.067, 1356.56)" x="254.067" y="1356.56">0</text>
</g>
<g clip-path="url(#clip6200)">
<text style="fill:#000000; fill-opacity:1; font-family:Arial,Helvetica Neue,Helvetica,sans-serif; font-size:48px; text-anchor:end;" transform="rotate(0, 254.067, 1231.14)" x="254.067" y="1231.14">10</text>
</g>
<g clip-path="url(#clip6200)">
<text style="fill:#000000; fill-opacity:1; font-family:Arial,Helvetica Neue,Helvetica,sans-serif; font-size:48px; text-anchor:end;" transform="rotate(0, 254.067, 1105.72)" x="254.067" y="1105.72">20</text>
</g>
<g clip-path="url(#clip6200)">
<text style="fill:#000000; fill-opacity:1; font-family:Arial,Helvetica Neue,Helvetica,sans-serif; font-size:48px; text-anchor:end;" transform="rotate(0, 254.067, 980.304)" x="254.067" y="980.304">30</text>
</g>
<g clip-path="url(#clip6200)">
<text style="fill:#000000; fill-opacity:1; font-family:Arial,Helvetica Neue,Helvetica,sans-serif; font-size:48px; text-anchor:end;" transform="rotate(0, 254.067, 854.885)" x="254.067" y="854.885">40</text>
</g>
<g clip-path="url(#clip6200)">
<text style="fill:#000000; fill-opacity:1; font-family:Arial,Helvetica Neue,Helvetica,sans-serif; font-size:48px; text-anchor:end;" transform="rotate(0, 254.067, 729.465)" x="254.067" y="729.465">50</text>
</g>
<g clip-path="url(#clip6200)">
<text style="fill:#000000; fill-opacity:1; font-family:Arial,Helvetica Neue,Helvetica,sans-serif; font-size:48px; text-anchor:end;" transform="rotate(0, 254.067, 604.046)" x="254.067" y="604.046">60</text>
</g>
<g clip-path="url(#clip6200)">
<text style="fill:#000000; fill-opacity:1; font-family:Arial,Helvetica Neue,Helvetica,sans-serif; font-size:48px; text-anchor:end;" transform="rotate(0, 254.067, 478.627)" x="254.067" y="478.627">70</text>
</g>
<g clip-path="url(#clip6200)">
<text style="fill:#000000; fill-opacity:1; font-family:Arial,Helvetica Neue,Helvetica,sans-serif; font-size:48px; text-anchor:end;" transform="rotate(0, 254.067, 353.208)" x="254.067" y="353.208">80</text>
</g>
<g clip-path="url(#clip6200)">
<text style="fill:#000000; fill-opacity:1; font-family:Arial,Helvetica Neue,Helvetica,sans-serif; font-size:48px; text-anchor:end;" transform="rotate(0, 254.067, 227.789)" x="254.067" y="227.789">90</text>
</g>
<g clip-path="url(#clip6200)">
<text style="fill:#000000; fill-opacity:1; font-family:Arial,Helvetica Neue,Helvetica,sans-serif; font-size:48px; text-anchor:end;" transform="rotate(0, 254.067, 102.37)" x="254.067" y="102.37">100</text>
</g>
<g clip-path="url(#clip6200)">
<text style="fill:#000000; fill-opacity:1; font-family:Arial,Helvetica Neue,Helvetica,sans-serif; font-size:66px; text-anchor:middle;" transform="rotate(0, 1315.41, 1512.67)" x="1315.41" y="1512.67">Industrial Emissions </text>
</g>
<g clip-path="url(#clip6200)">
<text style="fill:#000000; fill-opacity:1; font-family:Arial,Helvetica Neue,Helvetica,sans-serif; font-size:66px; text-anchor:middle;" transform="rotate(0, 1315.41, 1583.95)" x="1315.41" y="1583.95"> (% of Baseline)</text>
</g>
<g clip-path="url(#clip6200)">
<text style="fill:#000000; fill-opacity:1; font-family:Arial,Helvetica Neue,Helvetica,sans-serif; font-size:66px; text-anchor:middle;" transform="rotate(-90, 64.8202, 711.965)" x="64.8202" y="711.965">Agricultural Emissions </text>
</g>
<g clip-path="url(#clip6200)">
<text style="fill:#000000; fill-opacity:1; font-family:Arial,Helvetica Neue,Helvetica,sans-serif; font-size:66px; text-anchor:middle;" transform="rotate(-90, 136.1, 711.965)" x="136.1" y="711.965"> (% of Baseline)</text>
</g>
<polyline clip-path="url(#clip6202)" style="stroke:#000000; stroke-width:8; stroke-opacity:1; fill:none" points="
  278.067,84.8698 282.217,109.954 290.515,135.037 294.665,160.121 302.963,185.205 307.113,210.289 315.412,235.373 319.561,260.457 327.86,285.54 336.158,310.624 
  340.308,335.708 348.607,360.792 352.756,385.876 361.055,410.96 365.204,436.043 369.353,461.127 377.652,486.211 381.802,511.295 390.1,536.379 394.25,561.462 
  402.549,586.546 406.698,611.63 414.997,636.714 419.146,661.798 423.295,686.882 431.594,711.965 435.744,737.049 444.042,762.133 448.192,787.217 456.49,812.301 
  460.64,837.385 468.939,862.468 473.088,887.552 481.387,912.636 485.536,937.72 493.835,962.804 502.134,987.887 506.283,1012.97 514.582,1038.06 518.731,1063.14 
  527.03,1088.22 531.179,1113.31 539.478,1138.39 543.627,1163.47 551.926,1188.56 560.225,1213.64 564.374,1238.73 572.673,1263.81 576.822,1288.89 585.121,1313.98 
  589.27,1339.06 
  "/>
<polyline clip-path="url(#clip6202)" style="stroke:#000000; stroke-width:8; stroke-opacity:1; fill:none" stroke-dasharray="32, 20" points="
  659.81,84.8698 663.959,109.954 672.258,135.037 676.407,160.121 680.557,185.205 688.856,210.289 693.005,235.373 701.304,260.457 705.453,285.54 713.752,310.624 
  717.901,335.708 726.2,360.792 730.349,385.876 738.648,410.96 742.797,436.043 746.947,461.127 755.246,486.211 759.395,511.295 767.694,536.379 771.843,561.462 
  780.142,586.546 784.291,611.63 792.59,636.714 796.739,661.798 805.038,686.882 809.187,711.965 817.486,737.049 825.785,762.133 829.934,787.217 838.233,812.301 
  842.383,837.385 850.681,862.468 854.831,887.552 863.129,912.636 867.279,937.72 875.578,962.804 883.876,987.887 888.026,1012.97 896.324,1038.06 900.474,1063.14 
  908.773,1088.22 917.071,1113.31 921.221,1138.39 929.519,1163.47 937.818,1188.56 941.968,1213.64 950.266,1238.73 958.565,1263.81 962.714,1288.89 971.013,1313.98 
  979.312,1339.06 
  "/>
<polyline clip-path="url(#clip6202)" style="stroke:#000000; stroke-width:8; stroke-opacity:1; fill:none" stroke-dasharray="32, 16, 4, 16" points="
  1054,84.8698 1058.15,109.954 1066.45,135.037 1070.6,160.121 1078.9,185.205 1083.05,210.289 1091.35,235.373 1095.49,260.457 1103.79,285.54 1107.94,310.624 
  1116.24,335.708 1120.39,360.792 1128.69,385.876 1136.99,410.96 1141.14,436.043 1149.44,461.127 1153.59,486.211 1161.88,511.295 1166.03,536.379 1174.33,561.462 
  1182.63,586.546 1186.78,611.63 1195.08,636.714 1199.23,661.798 1207.53,686.882 1215.83,711.965 1219.98,737.049 1228.27,762.133 1236.57,787.217 1240.72,812.301 
  1249.02,837.385 1253.17,862.468 1261.47,887.552 1269.77,912.636 1273.92,937.72 1282.22,962.804 1290.52,987.887 1298.81,1012.97 1302.96,1038.06 1311.26,1063.14 
  1319.56,1088.22 1323.71,1113.31 1332.01,1138.39 1340.31,1163.47 1348.61,1188.56 1352.76,1213.64 1361.05,1238.73 1369.35,1263.81 1377.65,1288.89 1381.8,1313.98 
  1390.1,1339.06 
  "/>
<polyline clip-path="url(#clip6202)" style="stroke:#000000; stroke-width:8; stroke-opacity:1; fill:none" stroke-dasharray="4, 8" points="
  1477.24,84.8698 1485.54,109.954 1489.69,135.037 1497.98,160.121 1502.13,185.205 1510.43,210.289 1518.73,235.373 1522.88,260.457 1531.18,285.54 1539.48,310.624 
  1543.63,335.708 1551.93,360.792 1556.08,385.876 1564.37,410.96 1572.67,436.043 1576.82,461.127 1585.12,486.211 1593.42,511.295 1597.57,536.379 1605.87,561.462 
  1614.17,586.546 1622.47,611.63 1626.61,636.714 1634.91,661.798 1643.21,686.882 1647.36,711.965 1655.66,737.049 1663.96,762.133 1672.26,787.217 1676.41,812.301 
  1684.71,837.385 1693,862.468 1701.3,887.552 1705.45,912.636 1713.75,937.72 1722.05,962.804 1730.35,987.887 1738.65,1012.97 1742.8,1038.06 1751.1,1063.14 
  1759.39,1088.22 1767.69,1113.31 1775.99,1138.39 1780.14,1163.47 1788.44,1188.56 1796.74,1213.64 1805.04,1238.73 1813.34,1263.81 1821.64,1288.89 1829.93,1313.98 
  1838.23,1339.06 
  "/>
<path clip-path="url(#clip6200)" d="
M1858.81 433.164 L2280.76 433.164 L2280.76 130.764 L1858.81 130.764  Z
  " fill="#ffffff" fill-rule="evenodd" fill-opacity="1"/>
<polyline clip-path="url(#clip6200)" style="stroke:#000000; stroke-width:4; stroke-opacity:1; fill:none" points="
  1858.81,433.164 2280.76,433.164 2280.76,130.764 1858.81,130.764 1858.81,433.164 
  "/>
<polyline clip-path="url(#clip6200)" style="stroke:#000000; stroke-width:8; stroke-opacity:1; fill:none" points="
  1882.81,191.244 2026.81,191.244 
  "/>
<g clip-path="url(#clip6200)">
<text style="fill:#000000; fill-opacity:1; font-family:Arial,Helvetica Neue,Helvetica,sans-serif; font-size:48px; text-anchor:start;" transform="rotate(0, 2050.81, 208.744)" x="2050.81" y="208.744">1.5 Deg.</text>
</g>
<polyline clip-path="url(#clip6200)" style="stroke:#000000; stroke-width:8; stroke-opacity:1; fill:none" stroke-dasharray="32, 20" points="
  1882.81,251.724 2026.81,251.724 
  "/>
<g clip-path="url(#clip6200)">
<text style="fill:#000000; fill-opacity:1; font-family:Arial,Helvetica Neue,Helvetica,sans-serif; font-size:48px; text-anchor:start;" transform="rotate(0, 2050.81, 269.224)" x="2050.81" y="269.224">2 Deg.</text>
</g>
<polyline clip-path="url(#clip6200)" style="stroke:#000000; stroke-width:8; stroke-opacity:1; fill:none" stroke-dasharray="32, 16, 4, 16" points="
  1882.81,312.204 2026.81,312.204 
  "/>
<g clip-path="url(#clip6200)">
<text style="fill:#000000; fill-opacity:1; font-family:Arial,Helvetica Neue,Helvetica,sans-serif; font-size:48px; text-anchor:start;" transform="rotate(0, 2050.81, 329.704)" x="2050.81" y="329.704">2.5 Deg</text>
</g>
<polyline clip-path="url(#clip6200)" style="stroke:#000000; stroke-width:8; stroke-opacity:1; fill:none" stroke-dasharray="4, 8" points="
  1882.81,372.684 2026.81,372.684 
  "/>
<g clip-path="url(#clip6200)">
<text style="fill:#000000; fill-opacity:1; font-family:Arial,Helvetica Neue,Helvetica,sans-serif; font-size:48px; text-anchor:start;" transform="rotate(0, 2050.81, 390.184)" x="2050.81" y="390.184">3 Deg</text>
</g>
</svg>
